<svg width="430" height="66" viewBox="0 0 430 66" fill="none" xmlns="http://www.w3.org/2000/svg">
<path d="M197.125 45.7712L180.643 30.8475L177.691 14.7758L197.125 24.2056V45.7712Z" fill="#CDC400"/>
<path d="M198.437 45.8532L219.264 28.7975L222.052 11.7418L198.437 24.2876V45.8532Z" fill="#043F85"/>
<path d="M197.453 6.82187L222.626 3.37793L223.61 6.08388L197.453 17.1537L177.527 14.2837L176.625 11.8238L197.453 6.82187Z" fill="#5E99C4"/>
<path d="M114.634 21.4177C113.076 21.4177 111.928 22.4017 111.354 23.8776L99.4642 55.8571C99.3002 56.2671 98.8082 56.2671 98.6442 55.8571L86.5084 23.6317C86.0164 22.4017 84.8684 21.3357 83.4745 21.3357C81.0145 21.3357 79.3745 23.5497 80.2765 25.8456L92.9043 57.989C94.1343 61.187 96.2662 62.8269 98.9722 62.8269C101.842 62.8269 103.974 61.187 105.286 57.907L117.668 25.9276C118.57 23.7137 117.012 21.4177 114.634 21.4177Z" fill="#5E99C4"/>
<path d="M131.033 10.3478C131.033 8.54385 129.476 7.06787 127.672 7.06787C125.786 7.06787 124.392 8.54385 124.392 10.3478V59.3829C124.392 61.2689 125.868 62.6628 127.672 62.6628C129.64 62.6628 131.033 61.2689 131.033 59.3829V32.8974C133.575 29.6175 138.167 26.9115 143.005 26.9115C149.483 26.9115 153.009 30.8474 153.009 37.3253V59.3829C153.009 61.2689 154.485 62.6628 156.289 62.6628C158.175 62.6628 159.651 61.2689 159.651 59.3829V36.7513C159.651 26.3375 153.173 20.9256 143.743 20.9256C138.659 20.9256 133.739 23.2216 131.033 26.0915V10.3478Z" fill="#5E99C4"/>
<path d="M47.8051 39.3753C47.5591 31.5855 51.4951 26.6656 59.4489 26.6656C66.4188 26.6656 70.8467 31.4215 70.3547 38.4733C70.2727 39.1293 69.9447 39.3753 69.2887 39.3753H47.8051ZM76.8326 37.8173C76.8326 27.9775 70.1087 20.9257 59.4489 20.9257C49.5271 20.9257 42.4752 26.9935 41.5732 36.9974C41.3273 39.3753 41.3273 43.3932 41.4912 46.3452C42.0652 56.267 48.7071 63.0729 59.8589 63.0729C64.4508 63.0729 70.1087 62.0889 72.7327 60.6129C74.1266 59.7929 74.5366 58.809 74.5366 57.825C74.5366 56.021 72.7327 54.217 69.8627 55.365C66.2548 56.595 62.8929 57.415 59.9409 57.415C52.807 57.415 47.8871 53.3151 47.8871 46.0172V44.7872H72.0767C75.4386 44.7872 76.8326 42.9833 76.8326 40.2773V37.8173Z" fill="#CDC400"/>
<path d="M28.5355 46.9191C27.8795 53.643 24.1896 57.1689 17.1377 57.1689C13.2018 57.1689 8.19985 55.283 6.47788 53.971V29.5355C8.44584 28.4695 13.1198 26.8295 17.8757 26.8295C24.8455 26.8295 28.0435 30.3554 28.4535 36.7513C28.6995 39.0473 28.7815 44.2132 28.5355 46.9191ZM35.1774 36.3413C34.3574 26.6655 28.4535 20.9256 18.2037 20.9256C13.7757 20.9256 9.42983 22.1556 6.55988 23.3856V10.3478C6.55988 8.54385 5.00191 7.06787 3.27994 7.06787C1.39397 7.06787 0 8.54385 0 10.3478V55.857C0 56.923 0.163996 57.6609 1.31197 58.3989C3.36194 59.7109 10.0858 63.0728 17.3837 63.0728C28.1255 63.0728 34.4394 56.9229 35.2593 47.3291C35.4233 44.5412 35.4233 39.2113 35.1774 36.3413Z" fill="#5E99C4"/>
<path fill-rule="evenodd" clip-rule="evenodd" d="M256.975 65.4508V1H257.483V65.4508H256.975Z" fill="#5E99C4"/>
<path d="M428.196 62.1709C428.196 62.4169 428.278 62.6629 428.442 62.8269C428.606 62.9909 428.852 63.0729 429.098 63.0729C429.344 63.0729 429.59 62.9909 429.754 62.8269C429.918 62.6629 430 62.4169 430 62.1709C430 61.9249 429.918 61.6789 429.754 61.5149C429.59 61.3509 429.344 61.2689 429.098 61.2689C428.852 61.2689 428.606 61.3509 428.442 61.5149C428.278 61.6789 428.196 61.9249 428.196 62.1709ZM425.736 62.9089C426.146 62.7449 426.31 62.5809 426.31 62.2529C426.31 61.8429 425.982 61.5149 425.408 61.5969C424.998 61.6789 424.588 61.9249 424.096 61.9249C423.194 61.9249 422.784 61.2689 422.784 60.4489V55.775H425.326C425.654 55.775 425.982 55.529 425.982 55.119C425.982 54.791 425.654 54.463 425.326 54.463H422.784V53.069C422.784 52.659 422.456 52.413 422.128 52.413C421.8 52.413 421.472 52.741 421.472 53.069V60.4489C421.472 62.0069 422.292 63.1549 424.014 63.1549C424.588 63.1549 425.244 63.0729 425.736 62.9089ZM415.24 54.545H414.666C414.338 54.545 414.01 54.791 414.01 55.201C414.01 55.529 414.338 55.857 414.666 55.857H415.24V62.4989C415.24 62.9089 415.568 63.2369 415.896 63.2369C416.306 63.2369 416.552 62.9089 416.552 62.4989V55.857H418.848C419.176 55.857 419.504 55.611 419.504 55.201C419.504 54.873 419.176 54.545 418.848 54.545H416.552V53.889C416.552 52.905 416.962 52.3311 417.864 52.3311C418.438 52.3311 418.848 52.4951 419.176 52.4951C419.586 52.4951 419.832 52.1671 419.832 51.9211C419.832 51.5931 419.668 51.3471 419.34 51.2651C419.012 51.1831 418.438 51.1011 417.864 51.1011C416.142 51.1011 415.24 52.1671 415.24 53.807V54.545ZM412.206 57.579C412.206 55.365 410.976 54.217 408.68 54.217C406.958 54.217 405.728 54.791 405.318 55.119C405.154 55.283 404.99 55.447 404.99 55.693V62.4169C404.99 62.8269 405.318 63.1549 405.646 63.1549C406.056 63.1549 406.302 62.8269 406.302 62.4169V56.021C406.712 55.775 407.696 55.447 408.598 55.447C409.828 55.447 410.812 56.103 410.812 57.661V62.4169C410.812 62.8269 411.14 63.1549 411.468 63.1549C411.878 63.1549 412.124 62.8269 412.124 62.4169V57.579H412.206ZM394.987 59.7929C394.987 62.0069 396.463 63.1549 398.595 63.1549C400.316 63.1549 401.464 62.4989 401.956 62.1709C402.12 62.0069 402.202 61.9249 402.202 61.5969V54.955C402.202 54.545 401.874 54.217 401.546 54.217C401.136 54.217 400.89 54.545 400.89 54.955V61.2689C400.398 61.5969 399.66 61.9249 398.595 61.9249C397.201 61.9249 396.381 61.1049 396.381 59.7929V54.955C396.381 54.545 396.053 54.217 395.725 54.217C395.315 54.217 395.069 54.545 395.069 54.955V59.7929H394.987ZM392.445 54.217C392.281 54.217 392.117 54.299 391.953 54.463L388.837 57.497C388.509 57.825 388.263 57.907 387.935 57.907H387.689V51.9211C387.689 51.5111 387.361 51.2651 387.033 51.2651C386.705 51.2651 386.377 51.5931 386.377 51.9211V62.4169C386.377 62.8269 386.705 63.1549 387.033 63.1549C387.443 63.1549 387.689 62.8269 387.689 62.4169V59.2189H388.017C388.345 59.2189 388.591 59.3009 388.919 59.6289L392.117 62.9089C392.363 63.1549 392.855 63.2369 393.101 62.9089C393.347 62.5809 393.347 62.1709 393.101 61.9249L389.739 58.5629L393.019 55.447C393.183 55.283 393.183 55.119 393.183 54.955C393.101 54.545 392.773 54.217 392.445 54.217ZM376.209 59.7929C376.209 62.0069 377.685 63.1549 379.817 63.1549C381.539 63.1549 382.687 62.4989 383.179 62.1709C383.343 62.0069 383.425 61.9249 383.425 61.5969V54.955C383.425 54.545 383.097 54.217 382.769 54.217C382.359 54.217 382.113 54.545 382.113 54.955V61.2689C381.621 61.5969 380.883 61.9249 379.817 61.9249C378.423 61.9249 377.603 61.1049 377.603 59.7929V54.955C377.603 54.545 377.275 54.217 376.947 54.217C376.537 54.217 376.291 54.545 376.291 54.955V59.7929H376.209ZM373.913 63.0729C374.323 63.0729 374.651 62.8269 374.651 62.4169C374.651 62.0889 374.323 61.7609 373.913 61.7609H367.845L373.831 53.397C374.077 53.069 374.241 52.741 374.241 52.4951C374.241 51.8391 373.831 51.4291 373.011 51.4291H367.107C366.697 51.4291 366.451 51.6751 366.451 52.0851C366.451 52.4131 366.779 52.741 367.107 52.741H372.765L366.615 61.1049C366.369 61.3509 366.287 61.6789 366.287 61.9249C366.287 62.5809 366.779 62.9909 367.517 62.9909H373.913V63.0729Z" fill="#5E99C4"/>
<path d="M413.929 40.8512C413.929 38.6372 412.699 37.4892 410.403 37.4892C408.681 37.4892 407.451 38.0632 407.041 38.3912C406.877 38.5552 406.713 38.7192 406.713 38.9652V45.6891C406.713 46.0991 407.041 46.4271 407.369 46.4271C407.779 46.4271 408.025 46.0991 408.025 45.6891V39.2932C408.435 39.0472 409.419 38.7192 410.321 38.7192C411.551 38.7192 412.535 39.3752 412.535 40.9332V45.6891C412.535 46.0991 412.863 46.4271 413.191 46.4271C413.601 46.4271 413.847 46.0991 413.847 45.6891V40.8512H413.929ZM404.417 37.6532C404.089 37.5712 403.515 37.4892 402.941 37.4892C401.219 37.4892 400.235 38.4732 400.235 40.1132V45.6891C400.235 46.0991 400.563 46.3451 400.891 46.3451C401.301 46.3451 401.547 46.0171 401.547 45.6891V40.1952C401.547 39.2112 401.957 38.7192 402.859 38.7192C403.433 38.7192 403.843 38.8832 404.171 38.8832C404.663 38.8832 404.827 38.5552 404.827 38.2272C404.909 37.9812 404.827 37.7352 404.417 37.6532ZM392.035 41.4252C391.953 39.7852 392.773 38.7192 394.413 38.7192C395.807 38.7192 396.791 39.7032 396.627 41.2612C396.627 41.4252 396.545 41.4252 396.381 41.4252H392.035ZM398.021 41.0972C398.021 38.9652 396.627 37.4892 394.413 37.4892C392.363 37.4892 390.887 38.8012 390.723 40.9332C390.641 41.4252 390.641 42.3271 390.723 42.9011C390.805 45.0331 392.199 46.5091 394.495 46.5091C395.479 46.5091 396.627 46.2631 397.119 46.0171C397.365 45.8531 397.447 45.6071 397.447 45.4431C397.447 45.0331 397.119 44.7051 396.463 44.9511C395.725 45.1971 395.069 45.3611 394.413 45.3611C392.937 45.3611 391.953 44.4591 391.953 42.9011V42.6551H396.955C397.611 42.6551 397.939 42.2451 397.939 41.6712V41.0972H398.021ZM384.983 37.8992H384.409C384.081 37.8992 383.753 38.1452 383.753 38.5552C383.753 38.8832 384.081 39.2112 384.409 39.2112H384.983V45.6891C384.983 46.0991 385.311 46.4271 385.639 46.4271C386.049 46.4271 386.295 46.0991 386.295 45.6891V39.1292H388.591C388.919 39.1292 389.247 38.8832 389.247 38.4732C389.247 38.1452 388.919 37.8172 388.591 37.8172H386.295V37.1612C386.295 36.1773 386.705 35.6033 387.607 35.6033C388.181 35.6033 388.591 35.7673 388.919 35.7673C389.329 35.7673 389.575 35.4393 389.575 35.1933C389.575 34.8653 389.411 34.7013 389.083 34.5373C388.755 34.4553 388.181 34.3733 387.607 34.3733C385.885 34.3733 384.983 35.4393 384.983 37.0792V37.8992ZM376.291 41.4252C376.209 39.7852 377.029 38.7192 378.669 38.7192C380.063 38.7192 381.047 39.7032 380.883 41.2612C380.883 41.4252 380.801 41.4252 380.637 41.4252H376.291ZM382.277 41.0972C382.277 38.9652 380.883 37.4892 378.669 37.4892C376.619 37.4892 375.143 38.8012 374.979 40.9332C374.897 41.4252 374.897 42.3271 374.979 42.9011C375.061 45.0331 376.455 46.5091 378.751 46.5091C379.735 46.5091 380.883 46.2631 381.375 46.0171C381.621 45.8531 381.703 45.6071 381.703 45.4431C381.703 45.0331 381.375 44.7051 380.719 44.9511C379.981 45.1971 379.325 45.3611 378.669 45.3611C377.193 45.3611 376.209 44.4591 376.209 42.9011V42.6551H381.211C381.867 42.6551 382.195 42.2451 382.195 41.6712V41.0972H382.277ZM371.781 37.5712C371.371 37.5712 371.125 37.8992 371.125 38.3092V45.6891C371.125 46.0991 371.453 46.4271 371.781 46.4271C372.191 46.4271 372.437 46.0991 372.437 45.6891V38.3092C372.519 37.8992 372.191 37.5712 371.781 37.5712ZM372.683 35.4393C372.683 34.9473 372.355 34.6193 371.863 34.6193C371.371 34.6193 371.043 34.9473 371.043 35.4393C371.043 35.8493 371.371 36.2593 371.863 36.2593C372.273 36.2593 372.683 35.8493 372.683 35.4393ZM367.681 34.5373C367.271 34.5373 367.025 34.8653 367.025 35.1933V45.6891C367.025 46.0991 367.353 46.4271 367.681 46.4271C368.091 46.4271 368.337 46.0991 368.337 45.6891V35.1933C368.337 34.8653 368.009 34.5373 367.681 34.5373Z" fill="#5E99C4"/>
<path d="M391.133 21.0077C390.805 20.9257 390.231 20.8437 389.657 20.8437C387.935 20.8437 386.951 21.8277 386.951 23.4676V29.0435C386.951 29.4535 387.279 29.6995 387.607 29.6995C388.017 29.6995 388.263 29.3715 388.263 29.0435V23.5496C388.263 22.5656 388.673 22.0736 389.575 22.0736C390.149 22.0736 390.559 22.2376 390.887 22.2376C391.379 22.2376 391.543 21.9096 391.543 21.5817C391.625 21.3357 391.461 21.0897 391.133 21.0077ZM383.343 20.9257C382.933 20.9257 382.687 21.2537 382.687 21.6637V29.1255C382.687 29.5355 383.015 29.8635 383.343 29.8635C383.753 29.8635 383.999 29.5355 383.999 29.1255V21.6637C384.081 21.2537 383.753 20.9257 383.343 20.9257ZM384.245 18.7117C384.245 18.2197 383.917 17.8917 383.425 17.8917C382.933 17.8917 382.605 18.2197 382.605 18.7117C382.605 19.1217 382.933 19.5317 383.425 19.5317C383.835 19.6137 384.245 19.2037 384.245 18.7117ZM366.123 18.6297C366.123 18.7117 366.123 18.7117 366.123 18.7937L368.337 28.7975C368.501 29.4535 368.993 29.8635 369.567 29.8635C370.059 29.8635 370.551 29.5355 370.715 28.8795L373.175 19.3677C373.175 19.2857 373.257 19.2857 373.257 19.3677L375.717 28.8795C375.881 29.5355 376.455 29.8635 376.947 29.8635C377.439 29.8635 378.013 29.5355 378.095 28.8795L380.391 18.8757C380.391 18.7937 380.391 18.7937 380.391 18.7117C380.391 18.3837 380.145 18.0557 379.735 18.0557C379.407 18.0557 379.161 18.2197 379.079 18.5477L376.947 28.6335C376.947 28.7155 376.865 28.7155 376.865 28.6335L374.405 19.1217C374.241 18.4657 373.667 18.1377 373.257 18.1377C372.765 18.1377 372.191 18.4657 372.027 19.1217L369.567 28.6335C369.567 28.7155 369.485 28.7155 369.485 28.6335L367.435 18.4657C367.353 18.1377 367.107 17.9737 366.779 17.9737C366.369 17.9737 366.123 18.3017 366.123 18.6297Z" fill="#5E99C4"/>
<path d="M405.483 3.37786C404.991 3.37786 404.745 3.70586 404.745 4.11585V9.03576C404.745 9.44575 404.991 9.77375 405.483 9.77375H408.599C408.845 9.77375 409.091 9.52775 409.091 9.28175C409.091 9.03576 408.845 8.78976 408.599 8.78976H405.729V6.9858H408.517C408.763 6.9858 409.009 6.7398 409.009 6.49381C409.009 6.24781 408.845 6.00182 408.517 6.00182H405.729V4.19785H408.599C408.845 4.19785 409.091 3.95185 409.091 3.70586C409.091 3.45986 408.845 3.21387 408.599 3.21387H405.483V3.37786ZM399.333 6.49381V4.36185H400.891C401.711 4.36185 402.121 4.77184 402.121 5.42783C402.121 6.08381 401.793 6.49381 400.891 6.49381H399.333ZM400.235 7.47779C400.481 7.47779 400.563 7.55979 400.727 7.80578L402.367 9.77375C402.531 9.93774 402.859 10.0197 403.105 9.77375C403.269 9.60975 403.269 9.28176 403.105 9.11776L401.629 7.31379C402.449 7.14979 403.023 6.5758 403.023 5.50982C403.023 4.19785 402.039 3.45986 400.891 3.45986H399.005C398.513 3.45986 398.267 3.78786 398.267 4.19785V9.44575C398.267 9.69175 398.513 9.93774 398.759 9.93774C399.005 9.93774 399.251 9.69175 399.251 9.44575V7.55979H400.235V7.47779ZM391.215 9.36375C391.215 9.60975 391.461 9.85574 391.707 9.85574C391.953 9.85574 392.199 9.60975 392.199 9.36375V7.14979H395.479V9.44575C395.479 9.69175 395.725 9.93774 395.971 9.93774C396.217 9.93774 396.463 9.69175 396.463 9.44575V3.95185C396.463 3.70586 396.217 3.45986 395.971 3.45986C395.725 3.45986 395.479 3.70586 395.479 3.95185V6.24781H392.199V3.95185C392.199 3.70586 391.953 3.45986 391.707 3.45986C391.461 3.45986 391.215 3.70586 391.215 3.95185V9.36375ZM386.869 4.44384C386.869 4.36185 386.951 4.27985 387.033 4.27985C387.115 4.27985 387.197 4.36185 387.197 4.44384L388.099 6.9038H385.967L386.869 4.44384ZM389.985 9.36375C389.985 9.28176 389.985 9.28175 389.985 9.19976L388.181 4.11585C388.017 3.62386 387.607 3.29586 387.115 3.29586C386.623 3.29586 386.213 3.54186 386.049 4.11585L384.245 9.19976C384.245 9.28175 384.245 9.28176 384.245 9.36375C384.245 9.60975 384.409 9.85574 384.737 9.85574C384.901 9.85574 385.147 9.77375 385.229 9.52775L385.803 7.80578H388.591L389.165 9.52775C389.247 9.69175 389.411 9.85574 389.657 9.85574C389.821 9.85574 389.985 9.60975 389.985 9.36375ZM379.325 8.87176C379.653 9.52775 380.309 9.93774 381.047 9.93774C382.113 9.93774 383.015 9.11776 383.015 7.88778V3.86985C383.015 3.62386 382.769 3.37786 382.523 3.37786C382.277 3.37786 382.031 3.62386 382.031 3.86985V7.88778C382.031 8.62577 381.539 9.03576 381.047 9.03576C380.637 9.03576 380.309 8.78976 380.145 8.46177C380.063 8.29777 379.899 8.21577 379.735 8.21577C379.489 8.21577 379.243 8.46177 379.243 8.70777C379.243 8.70777 379.325 8.78976 379.325 8.87176ZM375.717 7.31379C375.717 6.24781 374.979 5.50982 373.749 5.50982C373.175 5.50982 372.765 5.67382 372.355 5.83782V4.36185H374.815C375.061 4.36185 375.307 4.11585 375.307 3.86985C375.307 3.62386 375.061 3.37786 374.815 3.37786H372.109C371.699 3.37786 371.371 3.54186 371.371 4.11585V6.32981C371.371 6.6578 371.617 6.9858 372.191 6.8218C372.437 6.7398 372.929 6.49381 373.585 6.49381C374.241 6.49381 374.733 6.9038 374.733 7.39579C374.733 8.46177 373.503 8.95376 371.781 8.95376C371.535 8.95376 371.289 9.11776 371.289 9.44575C371.289 9.69175 371.535 9.93774 371.781 9.93774C374.077 9.85575 375.717 9.03576 375.717 7.31379ZM366.205 3.37786C365.959 3.37786 365.713 3.54186 365.713 3.86985C365.713 4.11585 365.959 4.36185 366.205 4.36185H368.993C367.681 6.49381 367.025 7.80578 366.615 9.19976C366.615 9.28175 366.615 9.36375 366.615 9.36375C366.615 9.52775 366.697 9.69175 366.861 9.77375C366.943 9.85574 367.025 9.85574 367.107 9.85574C367.271 9.85574 367.517 9.77375 367.599 9.44575C367.927 7.96978 368.583 6.8218 370.059 4.36185C370.141 4.19785 370.223 4.11585 370.223 3.95185C370.223 3.54186 369.977 3.37786 369.567 3.37786H366.205Z" fill="#043F85"/>
<path fill-rule="evenodd" clip-rule="evenodd" d="M319.327 33.9068C326.095 27.1393 337.109 27.1393 343.876 33.9068C350.644 40.6743 350.644 51.6882 343.876 58.4557C337.109 65.2232 326.095 65.2232 319.327 58.4557C318.3 57.4281 318.3 55.762 319.327 54.7344C320.355 53.7068 322.021 53.7068 323.049 54.7344C327.761 59.4467 335.443 59.4467 340.155 54.7344C344.867 50.0221 344.867 42.3404 340.155 37.6281C335.443 32.9158 327.761 32.9158 323.049 37.6281C322.021 38.6557 320.355 38.6557 319.327 37.6281C318.3 36.6005 318.3 34.9344 319.327 33.9068Z" fill="#5E99C4"/>
<path fill-rule="evenodd" clip-rule="evenodd" d="M321.188 21.4922C322.641 21.4922 323.819 22.6703 323.819 24.1235V35.4393C323.819 36.8926 322.641 38.0706 321.188 38.0706C319.735 38.0706 318.557 36.8926 318.557 35.4393V24.1235C318.557 22.6703 319.735 21.4922 321.188 21.4922Z" fill="#043F85"/>
<path fill-rule="evenodd" clip-rule="evenodd" d="M290.759 5.67393C290.759 4.22069 291.937 3.0426 293.391 3.0426H321.188C322.641 3.0426 323.819 4.22069 323.819 5.67393C323.819 7.12718 322.641 8.30527 321.188 8.30527H293.391C291.937 8.30527 290.759 7.12718 290.759 5.67393Z" fill="#043F85"/>
<path fill-rule="evenodd" clip-rule="evenodd" d="M322.964 3.89243C323.993 4.91849 323.995 6.58456 322.969 7.61369L295.582 35.0832C294.556 36.1123 292.89 36.1148 291.86 35.0887C290.831 34.0627 290.829 32.3966 291.855 31.3675L319.242 3.89799C320.268 2.86886 321.934 2.86637 322.964 3.89243Z" fill="#043F85"/>
<path fill-rule="evenodd" clip-rule="evenodd" d="M309.298 43.3055C310.388 43.3055 311.272 44.1892 311.272 45.2792V61.023C311.272 62.113 310.388 62.9967 309.298 62.9967C308.208 62.9967 307.325 62.113 307.325 61.023V45.2792C307.325 44.1892 308.208 43.3055 309.298 43.3055Z" fill="#5E99C4"/>
<path fill-rule="evenodd" clip-rule="evenodd" d="M291.171 45.2792C291.171 44.1892 292.055 43.3055 293.145 43.3055H309.216C310.306 43.3055 311.19 44.1892 311.19 45.2792C311.19 46.3693 310.306 47.2529 309.216 47.2529H293.145C292.055 47.2529 291.171 46.3693 291.171 45.2792Z" fill="#5E99C4"/>
<path fill-rule="evenodd" clip-rule="evenodd" d="M310.691 43.962C311.463 44.7307 311.467 45.9804 310.698 46.7532L295.282 62.2509C294.513 63.0237 293.264 63.027 292.491 62.2583C291.718 61.4896 291.715 60.2399 292.484 59.4671L307.899 43.9694C308.668 43.1965 309.918 43.1932 310.691 43.962Z" fill="#5E99C4"/>
<path fill-rule="evenodd" clip-rule="evenodd" d="M346.28 3.04431C347.37 3.04431 348.254 3.92797 348.254 5.01802V18.6298C348.254 19.7198 347.37 20.6035 346.28 20.6035C345.19 20.6035 344.306 19.7198 344.306 18.6298V5.01802C344.306 3.92797 345.19 3.04431 346.28 3.04431Z" fill="#CDC400"/>
<path fill-rule="evenodd" clip-rule="evenodd" d="M330.448 5.01802C330.448 3.92797 331.332 3.04431 332.422 3.04431H346.198C347.288 3.04431 348.171 3.92797 348.171 5.01802C348.171 6.10806 347.288 6.99172 346.198 6.99172H332.422C331.332 6.99172 330.448 6.10806 330.448 5.01802Z" fill="#CDC400"/>
<path fill-rule="evenodd" clip-rule="evenodd" d="M347.676 3.78646C348.446 4.55724 348.446 5.80692 347.676 6.5777L334.392 19.8615C333.621 20.6322 332.371 20.6322 331.601 19.8615C330.83 19.0907 330.83 17.841 331.601 17.0702L344.884 3.78646C345.655 3.01568 346.905 3.01568 347.676 3.78646Z" fill="#CDC400"/>
<path fill-rule="evenodd" clip-rule="evenodd" d="M319.327 33.9068C326.095 27.1393 337.109 27.1393 343.876 33.9068C350.644 40.6743 350.644 51.6882 343.876 58.4557C337.109 65.2232 326.095 65.2232 319.327 58.4557C318.3 57.4281 318.3 55.762 319.327 54.7344C320.355 53.7068 322.021 53.7068 323.049 54.7344C327.761 59.4467 335.443 59.4467 340.155 54.7344C344.867 50.0221 344.867 42.3404 340.155 37.6281C335.443 32.9158 327.761 32.9158 323.049 37.6281C322.021 38.6557 320.355 38.6557 319.327 37.6281C318.3 36.6005 318.3 34.9344 319.327 33.9068Z" fill="#043F85"/>
</svg>
