<svg width="19" height="20" viewBox="0 0 19 20" fill="none" xmlns="http://www.w3.org/2000/svg">
<path d="M15.7826 10.9286V9.35714C15.7826 9.14434 15.7049 8.96019 15.5494 8.80469C15.3939 8.64918 15.2097 8.57143 14.9969 8.57143H3.99693C3.78413 8.57143 3.59998 8.64918 3.44448 8.80469C3.28897 8.96019 3.21122 9.14434 3.21122 9.35714V10.9286C3.21122 11.1414 3.28897 11.3255 3.44448 11.481C3.59998 11.6365 3.78413 11.7143 3.99693 11.7143H14.9969C15.2097 11.7143 15.3939 11.6365 15.5494 11.481C15.7049 11.3255 15.7826 11.1414 15.7826 10.9286ZM18.9255 4.25V16.0357C18.9255 17.0097 18.5777 17.8404 17.882 18.5279C17.1945 19.2236 16.3637 19.5714 15.3898 19.5714H3.60407C2.63012 19.5714 1.79529 19.2236 1.09961 18.5279C0.412109 17.8404 0.0683594 17.0097 0.0683594 16.0357V4.25C0.0683594 3.27604 0.412109 2.44531 1.09961 1.75781C1.79529 1.06213 2.63012 0.714285 3.60407 0.714285H15.3898C16.3637 0.714285 17.1945 1.06213 17.882 1.75781C18.5777 2.44531 18.9255 3.27604 18.9255 4.25Z" fill="#043F85"/>
</svg>
