<svg width="24" height="19" viewBox="0 0 24 19" fill="none" xmlns="http://www.w3.org/2000/svg">
<path d="M3.00063 5.5L7.00079 8.5C7.00079 8.5 11.0005 11.4988 12.0007 11.4994C13.0008 11.5 16.0008 9 16.0008 9L21.0008 5.5C21.0008 5.5 23.3107 4.1207 22.5007 2.49941C21.9016 1.3005 20.5007 1.49941 20.5007 1.49941H3.50065C3.50065 1.49941 2.08757 1.32781 1.5008 2.5C0.804034 3.89194 3.00063 5.5 3.00063 5.5Z" stroke="#5E99C4" stroke-width="2"/>
<path d="M1 8.47619C1 8.47619 1 14.2381 1 15.619C1 17 2.5 18 3.55814 18C4.61628 18 18.8837 18 20.4419 18C22 18 23 17 23 16.0952C23 15.1905 23 8 23 8" stroke="#5E99C4" stroke-width="2" stroke-linecap="round"/>
</svg>
