<svg width="26" height="27" viewBox="0 0 26 27" fill="none" xmlns="http://www.w3.org/2000/svg">
<path d="M21.0315 0.42857C22.3597 0.42857 23.4925 0.9029 24.43 1.85156C25.3786 2.78906 25.853 3.92187 25.853 5.25V21.3214C25.853 22.6496 25.3786 23.7824 24.43 24.7199C23.4925 25.6685 22.3597 26.1429 21.0315 26.1429H17.8842V16.1819H21.2157L21.7179 12.298H17.8842V9.82031C17.8842 9.19531 18.0126 8.72656 18.2693 8.41406C18.5371 8.10156 19.0505 7.94531 19.8094 7.94531L21.8518 7.92857V4.46317C21.1487 4.36272 20.1554 4.3125 18.8719 4.3125C17.3541 4.3125 16.1376 4.75893 15.2224 5.65178C14.3184 6.54464 13.8664 7.8058 13.8664 9.43527V12.298H10.5181V16.1819H13.8664V26.1429H4.9601C3.63198 26.1429 2.49358 25.6685 1.54492 24.7199C0.607422 23.7824 0.138672 22.6496 0.138672 21.3214V5.25C0.138672 3.92187 0.607422 2.78906 1.54492 1.85156C2.49358 0.9029 3.63198 0.42857 4.9601 0.42857H21.0315Z" fill="#595959"/>
</svg>
