<?xml version="1.0" encoding="utf-8"?>
<!-- Generator: Adobe Illustrator 26.3.0, SVG Export Plug-In . SVG Version: 6.00 Build 0)  -->
<svg version="1.1" id="Layer_1" xmlns="http://www.w3.org/2000/svg" xmlns:xlink="http://www.w3.org/1999/xlink" x="0px" y="0px"
	 viewBox="0 0 20 20" style="enable-background:new 0 0 20 20;" xml:space="preserve">
<g>
	<path d="M9.94,20c-2.49,0-4.98,0-7.46,0C0.92,20,0,19.08,0,17.54c0-5,0-9.99,0.01-14.99C0.01,0.88,0.89,0,2.57,0
		c4.96,0,9.91,0,14.87,0C19.11,0,20,0.89,20,2.55c0,4.98,0,9.95,0,14.93c0,1.62-0.9,2.52-2.54,2.52C14.95,20,12.45,20,9.94,20z
		 M16.65,12.22c0-1.53,0-2.96,0-4.46c-1.49,0-2.93,0-4.45,0c0-1.52,0-2.96,0-4.41c-1.5,0-2.93,0-4.43,0c0,1.49,0,2.93,0,4.45
		c-1.52,0-2.96,0-4.41,0c0,1.5,0,2.93,0,4.43c1.49,0,2.93,0,4.45,0c0,1.52,0,2.96,0,4.41c1.5,0,2.93,0,4.43,0c0-1.49,0-2.93,0-4.43
		C13.74,12.22,15.18,12.22,16.65,12.22z"/>
</g>
</svg>
