<?xml version="1.0" encoding="utf-8"?>
<!-- Generator: Adobe Illustrator 26.3.0, SVG Export Plug-In . SVG Version: 6.00 Build 0)  -->
<svg version="1.1" id="Layer_1" xmlns="http://www.w3.org/2000/svg" xmlns:xlink="http://www.w3.org/1999/xlink" x="0px" y="0px"
	 viewBox="0 0 20 20" style="enable-background:new 0 0 20 20;" xml:space="preserve">
<style type="text/css">
	.st0{fill:#FFFFFF;}
</style>
<path class="st0" d="M8.37,13.99c0-0.63-0.02-1.27,0.01-1.9c0.02-0.35-0.05-0.48-0.45-0.47C6.63,11.65,5.31,11.64,4,11.63
	c-0.79-0.01-1.44-0.52-1.61-1.24C2.22,9.68,2.55,8.91,3.2,8.56c0.28-0.15,0.58-0.21,0.89-0.21c1.28,0,2.57-0.01,3.85,0.01
	c0.34,0.01,0.45-0.05,0.44-0.42C8.36,6.66,8.37,5.38,8.37,4.09c0-1,0.67-1.73,1.6-1.75c0.96-0.02,1.65,0.69,1.66,1.73
	c0.01,1.27,0.03,2.54-0.01,3.8c-0.01,0.43,0.12,0.49,0.51,0.49c1.28-0.03,2.56-0.02,3.85-0.01c0.67,0.01,1.2,0.29,1.51,0.9
	c0.29,0.59,0.23,1.18-0.15,1.71c-0.34,0.47-0.83,0.66-1.39,0.66c-1.28,0-2.57,0.02-3.85-0.01c-0.41-0.01-0.47,0.13-0.47,0.49
	c0.02,1.27,0.02,2.54,0.01,3.8c-0.02,1.24-1.04,2.01-2.16,1.64c-0.63-0.21-1.09-0.82-1.1-1.5C8.37,15.37,8.37,14.68,8.37,13.99z"/>
</svg>
