<svg width="26" height="27" viewBox="0 0 26 27" fill="none" xmlns="http://www.w3.org/2000/svg">
<path d="M4.10631 21.9576H7.97349V10.3393H4.10631V21.9576ZM8.22461 6.7567C8.21345 6.17634 8.01256 5.69643 7.62193 5.31696C7.23131 4.9375 6.71233 4.74777 6.06501 4.74777C5.41769 4.74777 4.88756 4.9375 4.47461 5.31696C4.07282 5.69643 3.87193 6.17634 3.87193 6.7567C3.87193 7.32589 4.06724 7.8058 4.45787 8.19643C4.85965 8.57589 5.37863 8.76562 6.01479 8.76562H6.03153C6.69001 8.76562 7.22015 8.57589 7.62193 8.19643C8.02372 7.8058 8.22461 7.32589 8.22461 6.7567ZM18.0181 21.9576H21.8853V15.2946C21.8853 13.5759 21.478 12.2757 20.6632 11.394C19.8485 10.5123 18.7715 10.0714 17.4322 10.0714C15.9143 10.0714 14.748 10.7243 13.9333 12.0301H13.9668V10.3393H10.0996C10.1331 11.0759 10.1331 14.9487 10.0996 21.9576H13.9668V15.4621C13.9668 15.0379 14.0059 14.7254 14.084 14.5246C14.2514 14.1339 14.5025 13.8047 14.8373 13.5368C15.1722 13.2578 15.5851 13.1183 16.0762 13.1183C17.3708 13.1183 18.0181 13.9944 18.0181 15.7467V21.9576ZM25.853 5.25V21.3214C25.853 22.6496 25.3786 23.7824 24.43 24.7199C23.4925 25.6685 22.3597 26.1429 21.0315 26.1429H4.9601C3.63198 26.1429 2.49358 25.6685 1.54492 24.7199C0.607422 23.7824 0.138672 22.6496 0.138672 21.3214V5.25C0.138672 3.92187 0.607422 2.78906 1.54492 1.85156C2.49358 0.9029 3.63198 0.42857 4.9601 0.42857H21.0315C22.3597 0.42857 23.4925 0.9029 24.43 1.85156C25.3786 2.78906 25.853 3.92187 25.853 5.25Z" fill="#595959"/>
</svg>
