<svg width="19" height="19" viewBox="0 0 19 19" fill="none" xmlns="http://www.w3.org/2000/svg">
<path d="M4.35296 6.81585V18.9821H0.301618V6.81585H4.35296ZM4.61077 3.05915C4.61895 3.65662 4.41025 4.15588 3.98465 4.55692C3.56724 4.95796 3.01479 5.15848 2.32729 5.15848H2.30273C1.6316 5.15848 1.09142 4.95796 0.682199 4.55692C0.272972 4.15588 0.0683594 3.65662 0.0683594 3.05915C0.0683594 2.4535 0.277065 1.95424 0.694475 1.56138C1.12007 1.16034 1.67253 0.959821 2.35184 0.959821C3.03116 0.959821 3.57543 1.16034 3.98465 1.56138C4.39388 1.95424 4.60259 2.4535 4.61077 3.05915ZM18.9255 12.0089V18.9821H14.8864V12.4754C14.8864 11.6161 14.7187 10.9449 14.3831 10.4621C14.0557 9.97098 13.5401 9.72545 12.8362 9.72545C12.3206 9.72545 11.8868 9.86868 11.5349 10.1551C11.1911 10.4334 10.9333 10.7812 10.7614 11.1987C10.6714 11.4442 10.6264 11.7757 10.6264 12.1931V18.9821H6.58733C6.6037 15.7165 6.61189 13.0688 6.61189 11.0391C6.61189 9.0093 6.60779 7.79799 6.59961 7.40513L6.58733 6.81585H10.6264V8.5837H10.6018C10.7655 8.3218 10.9333 8.09263 11.1052 7.8962C11.2771 7.69978 11.5062 7.48698 11.7927 7.25781C12.0873 7.02865 12.4434 6.85268 12.8608 6.72991C13.2864 6.59896 13.757 6.53348 14.2726 6.53348C15.6722 6.53348 16.7975 7 17.6487 7.93304C18.4999 8.85789 18.9255 10.2165 18.9255 12.0089Z" fill="#5E99C4"/>
</svg>
