<svg width="64" height="64" viewBox="0 0 64 64" fill="none" xmlns="http://www.w3.org/2000/svg">
<line x1="50" y1="22" x2="50" y2="38" stroke="white" stroke-width="4" stroke-linecap="round"/>
<line x1="58" y1="30" x2="42" y2="30" stroke="white" stroke-width="4" stroke-linecap="round"/>
<rect x="6" y="52" width="34" height="4" rx="2" fill="white"/>
<path fill-rule="evenodd" clip-rule="evenodd" d="M12.0943 36.8323C15.2166 35.1996 19.262 34 23 34C26.738 34 30.7834 35.1996 33.9057 36.8323C35.4712 37.6509 36.9016 38.6282 37.9745 39.7099C38.9841 40.7277 40 42.167 40 43.9V53.875C40 55.0486 39.0486 56 37.875 56C36.7014 56 35.75 55.0486 35.75 53.875V43.9C35.75 43.9094 35.7498 43.9088 35.7469 43.8984C35.7307 43.8414 35.6302 43.488 35.0096 42.8623C34.3395 42.1868 33.3061 41.4481 31.9896 40.7597C29.3478 39.3784 25.9558 38.4 23 38.4C20.0442 38.4 16.6522 39.3784 14.0104 40.7597C12.6939 41.4481 11.6605 42.1868 10.9904 42.8623C10.3698 43.488 10.2693 43.8414 10.2531 43.8984C10.2502 43.9088 10.25 43.9094 10.25 43.9V53.875C10.25 55.0486 9.2986 56 8.125 56C6.95139 56 6 55.0486 6 53.875V43.9C6 42.167 7.01586 40.7277 8.02545 39.7099C9.09844 38.6282 10.5288 37.6509 12.0943 36.8323Z" fill="white"/>
<path fill-rule="evenodd" clip-rule="evenodd" d="M15.5275 10.5405C17.5477 8.95599 20.2288 8 23 8C25.7712 8 28.4523 8.95599 30.4725 10.5405C32.4903 12.1232 34 14.4717 34 17.2509V22.7491C34 25.5283 32.4903 27.8768 30.4725 29.4595C28.4523 31.044 25.7712 32 23 32C20.2288 32 17.5477 31.044 15.5275 29.4595C13.5097 27.8768 12 25.5283 12 22.7491V17.2509C12 14.4717 13.5097 12.1232 15.5275 10.5405ZM18.257 13.9631C17.0133 14.9386 16.4 16.1247 16.4 17.2509V22.7491C16.4 23.8753 17.0133 25.0614 18.257 26.0369C19.4983 27.0105 21.2172 27.6364 23 27.6364C24.7828 27.6364 26.5017 27.0105 27.743 26.0369C28.9867 25.0614 29.6 23.8753 29.6 22.7491V17.2509C29.6 16.1247 28.9867 14.9386 27.743 13.9631C26.5017 12.9895 24.7828 12.3636 23 12.3636C21.2172 12.3636 19.4983 12.9895 18.257 13.9631Z" fill="white"/>
</svg>
