<svg width="32" height="32" viewBox="0 0 32 32" fill="none" xmlns="http://www.w3.org/2000/svg">
<line x1="25" y1="11" x2="25" y2="19" stroke="#5E99C4" stroke-width="2" stroke-linecap="round"/>
<line x1="29" y1="15" x2="21" y2="15" stroke="#5E99C4" stroke-width="2" stroke-linecap="round"/>
<rect x="3" y="26" width="17" height="2" rx="1" fill="#5E99C4"/>
<path fill-rule="evenodd" clip-rule="evenodd" d="M6.04717 18.4161C7.6083 17.5998 9.63101 17 11.5 17C13.369 17 15.3917 17.5998 16.9528 18.4161C17.7356 18.8254 18.4508 19.3141 18.9873 19.855C19.4921 20.3638 20 21.0835 20 21.95V26.9375C20 27.5243 19.5243 28 18.9375 28C18.3507 28 17.875 27.5243 17.875 26.9375V21.95C17.875 21.9547 17.8749 21.9544 17.8734 21.9492C17.8653 21.9207 17.8151 21.744 17.5048 21.4312C17.1697 21.0934 16.6531 20.7241 15.9948 20.3799C14.6739 19.6892 12.9779 19.2 11.5 19.2C10.0221 19.2 8.32608 19.6892 7.00518 20.3799C6.34694 20.7241 5.83027 21.0934 5.49518 21.4312C5.18488 21.744 5.13466 21.9207 5.12656 21.9492C5.12508 21.9544 5.125 21.9547 5.125 21.95V26.9375C5.125 27.5243 4.6493 28 4.0625 28C3.4757 28 3 27.5243 3 26.9375V21.95C3 21.0835 3.50793 20.3638 4.01273 19.855C4.54922 19.3141 5.26439 18.8254 6.04717 18.4161Z" fill="#5E99C4"/>
<path fill-rule="evenodd" clip-rule="evenodd" d="M7.76376 5.27026C8.77385 4.47799 10.1144 4 11.5 4C12.8856 4 14.2261 4.47799 15.2362 5.27026C16.2452 6.06162 17 7.23584 17 8.62545V11.3745C17 12.7642 16.2452 13.9384 15.2362 14.7297C14.2261 15.522 12.8856 16 11.5 16C10.1144 16 8.77385 15.522 7.76376 14.7297C6.75483 13.9384 6 12.7642 6 11.3745V8.62545C6 7.23584 6.75483 6.06162 7.76376 5.27026ZM9.12849 6.98155C8.50667 7.46929 8.2 8.06235 8.2 8.62545V11.3745C8.2 11.9377 8.50667 12.5307 9.12849 13.0184C9.74915 13.5053 10.6086 13.8182 11.5 13.8182C12.3914 13.8182 13.2509 13.5053 13.8715 13.0184C14.4933 12.5307 14.8 11.9377 14.8 11.3745V8.62545C14.8 8.06235 14.4933 7.46929 13.8715 6.98155C13.2509 6.49473 12.3914 6.18182 11.5 6.18182C10.6086 6.18182 9.74915 6.49473 9.12849 6.98155Z" fill="#5E99C4"/>
</svg>
