<svg width="19" height="20" viewBox="0 0 19 20" fill="none" xmlns="http://www.w3.org/2000/svg">
<path d="M14.1007 9.86049C14.1744 9.93415 14.2112 10.0283 14.2112 10.1429C14.2112 10.2574 14.1744 10.3516 14.1007 10.4252L10.1722 14.3538C10.0985 14.4275 10.0044 14.4643 9.88979 14.4643C9.78339 14.4643 9.68927 14.4275 9.60742 14.3538C9.53376 14.2719 9.49693 14.1778 9.49693 14.0714V11.7143H5.1755C5.0691 11.7143 4.97498 11.6775 4.89314 11.6038C4.81948 11.5219 4.78265 11.4278 4.78265 11.3214V8.96429C4.78265 8.85789 4.81948 8.76786 4.89314 8.6942C4.97498 8.61235 5.0691 8.57143 5.1755 8.57143H9.49693V6.21428C9.49693 6.0997 9.53376 6.00558 9.60742 5.93192C9.68108 5.85826 9.77521 5.82143 9.88979 5.82143C9.988 5.82143 10.0862 5.86235 10.1844 5.9442L14.1007 9.86049ZM15.2793 13.4944C15.8768 12.4714 16.1755 11.3542 16.1755 10.1429C16.1755 8.93155 15.8768 7.81436 15.2793 6.79129C14.6818 5.76823 13.8716 4.95796 12.8485 4.36049C11.8254 3.76302 10.7082 3.46428 9.49693 3.46428C8.28562 3.46428 7.16843 3.76302 6.14537 4.36049C5.1223 4.95796 4.31204 5.76823 3.71456 6.79129C3.11709 7.81436 2.81836 8.93155 2.81836 10.1429C2.81836 11.3542 3.11709 12.4714 3.71456 13.4944C4.31204 14.5175 5.1223 15.3278 6.14537 15.9252C7.16843 16.5227 8.28562 16.8214 9.49693 16.8214C10.7082 16.8214 11.8254 16.5227 12.8485 15.9252C13.8716 15.3278 14.6818 14.5175 15.2793 13.4944ZM17.661 5.41629C18.504 6.85677 18.9255 8.43229 18.9255 10.1429C18.9255 11.8534 18.504 13.433 17.661 14.8817C16.818 16.3222 15.6722 17.4639 14.2235 18.3069C12.783 19.1499 11.2075 19.5714 9.49693 19.5714C7.78637 19.5714 6.20675 19.1499 4.75809 18.3069C3.31762 17.4639 2.17587 16.3222 1.33287 14.8817C0.489862 13.433 0.0683594 11.8534 0.0683594 10.1429C0.0683594 8.43229 0.489862 6.85677 1.33287 5.41629C2.17587 3.96763 3.31762 2.8218 4.75809 1.97879C6.20675 1.13579 7.78637 0.714285 9.49693 0.714285C11.2075 0.714285 12.783 1.13579 14.2235 1.97879C15.6722 2.8218 16.818 3.96763 17.661 5.41629Z" fill="#5E99C4"/>
</svg>
