<svg width="54" height="46" viewBox="0 0 54 46" fill="none" xmlns="http://www.w3.org/2000/svg">
<path fill-rule="evenodd" clip-rule="evenodd" d="M0.715332 25.4734C0.43919 24.9952 0.603064 24.3836 1.08136 24.1074L40.9185 1.10742C41.3968 0.83128 42.0084 0.995155 42.2846 1.47345L44.6015 5.48644C44.8133 5.85345 44.7637 6.30987 44.5284 6.66229C43.2999 8.50193 43.1397 10.9535 44.3206 12.9989C45.5014 15.0442 47.7047 16.1313 49.9121 15.9872C50.335 15.9596 50.7551 16.1448 50.967 16.5118L53.2846 20.526C53.5607 21.0043 53.3968 21.6159 52.9185 21.892L13.0814 44.892C12.6031 45.1682 11.9915 45.0043 11.7153 44.526L9.39794 40.5122C9.18602 40.1451 9.23567 39.6886 9.4711 39.3362C10.7 37.4965 10.8604 35.0445 9.67941 32.9989C8.49839 30.9533 6.2947 29.8662 4.087 30.0106C3.66406 30.0383 3.2439 29.8531 3.03198 29.486L0.715332 25.4734Z" fill="white"/>
</svg>
