<svg width="28" height="22" viewBox="0 0 28 22" fill="none" xmlns="http://www.w3.org/2000/svg">
<path d="M27.1899 3.11607C26.4421 4.20982 25.5381 5.14174 24.4778 5.91183C24.489 6.06808 24.4946 6.30245 24.4946 6.61495C24.4946 8.06585 24.2825 9.51674 23.8584 10.9676C23.4343 12.4074 22.787 13.7913 21.9164 15.1194C21.0571 16.4475 20.0303 17.625 18.8361 18.6518C17.6419 19.6674 16.2021 20.4821 14.5169 21.096C12.8316 21.6987 11.0292 22 9.10951 22C6.08496 22 3.3171 21.1908 0.805943 19.5725C1.19657 19.6172 1.63184 19.6395 2.11175 19.6395C4.62291 19.6395 6.86063 18.8694 8.82492 17.3292C7.65304 17.3069 6.60393 16.9498 5.67759 16.2578C4.75126 15.5547 4.11509 14.6618 3.76911 13.5792C4.13742 13.635 4.47782 13.6629 4.79032 13.6629C5.27023 13.6629 5.74456 13.6016 6.21331 13.4788C4.96331 13.2221 3.92536 12.6027 3.09947 11.6205C2.28474 10.6272 1.87737 9.47768 1.87737 8.17187V8.10491C2.6363 8.52902 3.45103 8.75781 4.32157 8.79129C3.58496 8.30022 2.99902 7.65848 2.56376 6.86607C2.12849 6.07366 1.91085 5.21428 1.91085 4.28795C1.91085 3.3058 2.15639 2.3962 2.64746 1.55915C3.99791 3.2221 5.63853 4.5558 7.56934 5.56027C9.5113 6.55357 11.5872 7.10603 13.797 7.21763C13.7077 6.79353 13.6631 6.38058 13.6631 5.97879C13.6631 4.48326 14.1876 3.21094 15.2367 2.16183C16.297 1.10156 17.5749 0.571428 19.0705 0.571428C20.633 0.571428 21.9499 1.14062 23.0213 2.27902C24.2379 2.04464 25.3818 1.60937 26.4533 0.973214C26.0403 2.2567 25.2479 3.25 24.076 3.95312C25.114 3.84152 26.1519 3.5625 27.1899 3.11607Z" fill="#595959"/>
</svg>
