<svg width="21" height="16" viewBox="0 0 21 16" fill="none" xmlns="http://www.w3.org/2000/svg">
<path d="M20.1726 2.15178C19.6242 2.95387 18.9613 3.63728 18.1837 4.20201C18.1919 4.31659 18.196 4.48847 18.196 4.71763C18.196 5.78162 18.0405 6.84561 17.7295 7.9096C17.4185 8.9654 16.9438 9.98028 16.3054 10.9542C15.6752 11.9282 14.9222 12.7917 14.0465 13.5446C13.1707 14.2894 12.1149 14.8869 10.879 15.3371C9.64318 15.779 8.32138 16 6.91364 16C4.69564 16 2.66588 15.4066 0.824358 14.2199C1.11082 14.2526 1.43001 14.269 1.78195 14.269C3.62347 14.269 5.26446 13.7042 6.70494 12.5748C5.84556 12.5584 5.07622 12.2965 4.3969 11.7891C3.71759 11.2734 3.25107 10.6187 2.99735 9.82478C3.26744 9.8657 3.51707 9.88616 3.74623 9.88616C4.09817 9.88616 4.44601 9.84115 4.78976 9.75112C3.87309 9.56287 3.11193 9.10863 2.50628 8.38839C1.90881 7.65997 1.61007 6.81696 1.61007 5.85937V5.81027C2.16662 6.12128 2.76409 6.28906 3.40248 6.31362C2.8623 5.9535 2.43262 5.48289 2.11342 4.90178C1.79422 4.32068 1.63463 3.69048 1.63463 3.01116C1.63463 2.29092 1.81469 1.62388 2.1748 1.01004C3.16513 2.22954 4.36826 3.20759 5.78418 3.9442C7.20829 4.67262 8.73061 5.07775 10.3511 5.1596C10.2857 4.84859 10.2529 4.54576 10.2529 4.25112C10.2529 3.15439 10.6376 2.22135 11.4069 1.45201C12.1845 0.674479 13.1216 0.285714 14.2183 0.285714C15.3642 0.285714 16.3299 0.703125 17.1157 1.53795C18.0078 1.36607 18.8467 1.04687 19.6324 0.580357C19.3296 1.52158 18.7485 2.25 17.8891 2.76562C18.6503 2.68378 19.4114 2.47917 20.1726 2.15178Z" fill="#5E99C4"/>
</svg>
