<svg width="33" height="28" viewBox="0 0 33 28" fill="none" xmlns="http://www.w3.org/2000/svg">
<path d="M29.6419 6.9494C30.9335 5.93735 32.0959 4.72289 33 3.30602C31.8376 3.84578 30.4814 4.2506 29.1252 4.38554C30.546 3.50843 31.5793 2.15904 32.0959 0.472289C30.8043 1.28193 29.319 1.88916 27.8337 2.22651C26.5421 0.809639 24.7984 0 22.8611 0C19.1155 0 16.0802 3.17108 16.0802 7.08434C16.0802 7.6241 16.1448 8.16386 16.274 8.70361C10.6556 8.36627 5.6184 5.53253 2.26027 1.28193C1.67906 2.29398 1.35616 3.50843 1.35616 4.85783C1.35616 7.28675 2.51859 9.44578 4.39139 10.7277C3.29354 10.6602 2.19569 10.3904 1.29159 9.8506V9.91807C1.29159 13.359 3.61644 16.1928 6.71624 16.8675C6.19961 17.0024 5.55382 17.1374 4.9726 17.1374C4.52055 17.1374 4.13307 17.0699 3.68102 17.0024C4.52055 19.8361 7.03914 21.8602 10.0098 21.9277C7.68493 23.8169 4.77886 24.9639 1.61448 24.9639C1.03327 24.9639 0.516634 24.8964 0 24.8289C2.97065 26.853 6.5225 28 10.3973 28C22.8611 28 29.6419 17.2723 29.6419 7.89398C29.6419 7.55663 29.6419 7.28675 29.6419 6.9494Z" fill="white" fill-opacity="0.75"/>
</svg>
