<svg width="19" height="20" viewBox="0 0 19 20" fill="none" xmlns="http://www.w3.org/2000/svg">
<path d="M11.5226 11.702C11.8418 11.301 12.0546 11.1004 12.161 11.1004C12.2674 11.1004 12.6643 11.2805 13.3518 11.6406C14.0475 12.0007 14.4158 12.2176 14.4568 12.2913C14.4731 12.3322 14.4813 12.3936 14.4813 12.4754C14.4813 12.7455 14.4117 13.0565 14.2726 13.4085C14.1416 13.7277 13.8511 13.9978 13.4009 14.2187C12.9508 14.4315 12.5334 14.5379 12.1487 14.5379C11.6822 14.5379 10.9047 14.2842 9.81613 13.7768C9.01404 13.4085 8.31836 12.9256 7.72907 12.3281C7.13979 11.7307 6.53413 10.9736 5.91211 10.0569C5.32282 9.18118 5.03227 8.38728 5.04046 7.67522V7.57701C5.06501 6.83222 5.36784 6.18564 5.94894 5.63728C6.14537 5.45722 6.35817 5.36719 6.58733 5.36719C6.63644 5.36719 6.7101 5.37537 6.80831 5.39174C6.90653 5.39992 6.98428 5.40402 7.04157 5.40402C7.19708 5.40402 7.30348 5.43266 7.36077 5.48995C7.42625 5.53906 7.49172 5.64955 7.5572 5.82143C7.62268 5.98512 7.75772 6.34524 7.96233 6.90178C8.16695 7.45833 8.26925 7.76525 8.26925 7.82254C8.26925 7.99442 8.12602 8.23177 7.83956 8.5346C7.56129 8.82924 7.42215 9.01748 7.42215 9.09933C7.42215 9.15662 7.44262 9.21801 7.48354 9.28348C7.76181 9.88095 8.17922 10.4416 8.73577 10.9654C9.1941 11.3992 9.81204 11.8125 10.5896 12.2054C10.6878 12.2626 10.7778 12.2913 10.8597 12.2913C10.9824 12.2913 11.2034 12.0949 11.5226 11.702ZM9.66881 17.6071C10.7082 17.6071 11.7027 17.4025 12.6521 16.9933C13.6097 16.5841 14.4322 16.0357 15.1197 15.3482C15.8072 14.6607 16.3556 13.8423 16.7648 12.8929C17.174 11.9353 17.3786 10.9368 17.3786 9.89732C17.3786 8.85789 17.174 7.86347 16.7648 6.91406C16.3556 5.95647 15.8072 5.13393 15.1197 4.44643C14.4322 3.75893 13.6097 3.21056 12.6521 2.80134C11.7027 2.39211 10.7082 2.1875 9.66881 2.1875C8.62937 2.1875 7.63086 2.39211 6.67327 2.80134C5.72387 3.21056 4.90541 3.75893 4.21791 4.44643C3.53041 5.13393 2.98205 5.95647 2.57282 6.91406C2.1636 7.86347 1.95898 8.85789 1.95898 9.89732C1.95898 11.5588 2.45006 13.0647 3.4322 14.4152L2.46233 17.2757L5.43331 16.3304C6.72647 17.1815 8.1383 17.6071 9.66881 17.6071ZM6.07171 1.37723C7.21754 0.88616 8.41657 0.640624 9.66881 0.640624C10.921 0.640624 12.116 0.88616 13.2536 1.37723C14.3995 1.8683 15.3857 2.52716 16.2123 3.35379C17.039 4.18043 17.6978 5.16667 18.1889 6.3125C18.68 7.45015 18.9255 8.64509 18.9255 9.89732C18.9255 11.1496 18.68 12.3486 18.1889 13.4944C17.6978 14.6321 17.039 15.6142 16.2123 16.4408C15.3857 17.2675 14.3995 17.9263 13.2536 18.4174C12.116 18.9085 10.921 19.154 9.66881 19.154C8.07282 19.154 6.57915 18.7693 5.18778 18L0.0683594 19.6451L1.738 14.673C0.854074 13.2161 0.412109 11.6243 0.412109 9.89732C0.412109 8.64509 0.657645 7.45015 1.14872 6.3125C1.63979 5.16667 2.29864 4.18043 3.12528 3.35379C3.95192 2.52716 4.93406 1.8683 6.07171 1.37723Z" fill="#5E99C4"/>
</svg>
