<svg width="36" height="24" viewBox="0 0 36 24" fill="none" xmlns="http://www.w3.org/2000/svg">
<path d="M35.2102 3.8125C34.8154 2.3125 33.5649 1.125 32.0512 0.75C29.2212 0 18.0329 0 18.0329 0C18.0329 0 6.77879 0 3.94881 0.75C2.4351 1.125 1.18464 2.3125 0.789762 3.8125C0 6.4375 0 12.0625 0 12.0625C0 12.0625 0 17.625 0.789762 20.3125C1.18464 21.8125 2.4351 22.9375 3.94881 23.3125C6.77879 24 18.0329 24 18.0329 24C18.0329 24 29.2212 24 32.0512 23.3125C33.5649 22.9375 34.8154 21.8125 35.2102 20.3125C36 17.625 36 12.0625 36 12.0625C36 12.0625 36 6.4375 35.2102 3.8125ZM14.3473 17.125V7L23.6929 12.0625L14.3473 17.125Z" fill="white" fill-opacity="0.75"/>
</svg>
