<?xml version="1.0" encoding="iso-8859-1"?>
<!-- Uploaded to: SVG Repo, www.svgrepo.com, Generator: SVG Repo Mixer Tools -->
<svg fill="#000000" height="800px" width="800px" version="1.1" id="Layer_1" xmlns="http://www.w3.org/2000/svg" xmlns:xlink="http://www.w3.org/1999/xlink" 
	 viewBox="0 0 512 512" xml:space="preserve">
<g>
	<g>
		<g>
			<path d="M438.187,101.428L339.872,3.124c-2-2-4.712-3.124-7.542-3.124H103.978C85.621,0,70.687,14.934,70.687,33.291v445.419
				c0,18.356,14.933,33.291,33.291,33.291h304.043c18.357,0,33.292-14.934,33.292-33.291V108.971
				C441.311,106.142,440.188,103.428,438.187,101.428z M404.891,98.304h-61.894V36.416l-0.002-0.002L404.891,98.304z
				 M419.978,478.709c0,6.594-5.364,11.957-11.958,11.957H103.978c-6.593,0-11.957-5.363-11.957-11.957V33.291
				c0-6.594,5.364-11.957,11.957-11.957h217.685v87.637c0,5.89,4.777,10.667,10.667,10.667h87.648V478.709z"/>
			<path d="M124.444,448h-0.423c-5.891,0-10.667,4.777-10.667,10.667s4.775,10.667,10.667,10.667h0.423
				c5.891,0,10.667-4.777,10.667-10.667S130.335,448,124.444,448z"/>
			<path d="M159.999,448c-5.891,0-10.667,4.777-10.667,10.667s4.776,10.667,10.667,10.667h227.979
				c5.89,0,10.667-4.777,10.667-10.667S393.869,448,387.978,448H159.999z"/>
			<path d="M307.54,165.292l-54.054,54.054c-12.13,12.13-12.13,31.869,0,43.999l6.285,6.285l-22.626,22.626l-6.286-6.286
				c-12.13-12.128-31.867-12.128-43.998,0l-54.053,54.055c-5.876,5.876-9.112,13.689-9.112,21.999
				c0,8.309,3.236,16.123,9.112,21.999l27.654,27.657c5.876,5.876,13.689,9.112,21.999,9.112s16.123-3.236,21.999-9.112
				l54.053-54.054c5.877-5.876,9.114-13.689,9.114-21.999c0-8.309-3.236-16.123-9.113-21.999l-6.285-6.286l22.627-22.627
				l6.286,6.286c5.876,5.876,13.689,9.113,21.999,9.113c8.309,0,16.123-3.236,21.999-9.113l54.054-54.054
				c5.876-5.876,9.112-13.69,9.112-21.999c0-8.31-3.236-16.123-9.112-21.999l-27.656-27.656
				C339.407,153.163,319.671,153.164,307.54,165.292z M243.426,342.541l-54.055,54.054c-1.846,1.846-4.302,2.865-6.913,2.865
				s-5.067-1.018-6.913-2.865l-27.655-27.655c-1.847-1.846-2.864-4.302-2.864-6.913s1.019-5.068,2.866-6.914l54.053-54.055
				c1.906-1.906,4.41-2.86,6.914-2.86c2.503,0,5.008,0.954,6.913,2.86l6.285,6.286l-15.085,15.086
				c-4.165,4.165-4.165,10.919,0,15.086c2.083,2.082,4.813,3.124,7.542,3.124s5.46-1.042,7.542-3.124l15.085-15.086l6.285,6.286
				c1.847,1.846,2.864,4.302,2.864,6.913S245.273,340.694,243.426,342.541z M364.108,208.034c1.845,1.846,2.864,4.302,2.864,6.913
				s-1.018,5.067-2.865,6.913l-54.054,54.054c-1.846,1.846-4.302,2.865-6.913,2.865c-2.611,0-5.067-1.018-6.913-2.864v-0.001
				l-6.286-6.286l15.085-15.085c4.165-4.165,4.165-10.919,0-15.086c-4.166-4.164-10.918-4.164-15.086,0l-15.085,15.085l-6.285-6.283
				c-3.812-3.812-3.812-10.016,0-13.828l54.054-54.054c1.906-1.906,4.41-2.86,6.914-2.86c2.503,0,5.007,0.954,6.913,2.86
				L364.108,208.034z"/>
		</g>
	</g>
</g>
</svg>