<svg xmlns="http://www.w3.org/2000/svg" width="124.042" height="124.042" viewBox="0 0 124.042 124.042">
  <g id="Group_734" data-name="Group 734" transform="translate(-690.585 -18164.941)">
    <g id="Group_491" data-name="Group 491" transform="translate(690.585 18164.941)">
      <g id="Group_490" data-name="Group 490">
        <path id="Path_5213" data-name="Path 5213" d="M300.084,298.546H176.043V174.505H300.084ZM177.767,296.82H298.358V176.231H177.767Z" transform="translate(-176.043 -174.505)" fill="#fff"/>
      </g>
    </g>
    <g id="Group_493" data-name="Group 493" transform="translate(712.866 18256.783)">
      <g id="Group_492" data-name="Group 492">
        <rect id="Rectangle_60" data-name="Rectangle 60" width="100.896" height="18.389" fill="#fff"/>
      </g>
    </g>
    <g id="Group_539" data-name="Group 539" transform="translate(717.284 18258.852)">
      <path id="Path_5228" data-name="Path 5228" d="M191.573,208.738h-5.488a.716.716,0,1,1,0-1.431h5.488a.716.716,0,0,1,0,1.431Z" transform="translate(-185.369 -207.307)" fill="#7b9073"/>
    </g>
    <g id="Group_540" data-name="Group 540" transform="translate(726.767 18265.688)">
      <path id="Path_5229" data-name="Path 5229" d="M193.076,211.126H189.4a.716.716,0,0,1,0-1.431h3.679a.716.716,0,0,1,0,1.431Z" transform="translate(-188.681 -209.695)" fill="#7b9073"/>
    </g>
    <g id="Group_541" data-name="Group 541" transform="translate(736.108 18258.852)">
      <path id="Path_5230" data-name="Path 5230" d="M196.339,208.738H192.66a.716.716,0,1,1,0-1.431h3.679a.716.716,0,0,1,0,1.431Z" transform="translate(-191.944 -207.307)" fill="#7b9073"/>
    </g>
    <g id="Group_542" data-name="Group 542" transform="translate(741.951 18271.496)">
      <path id="Path_5231" data-name="Path 5231" d="M198.38,213.155H194.7a.716.716,0,1,1,0-1.431h3.679a.716.716,0,0,1,0,1.431Z" transform="translate(-193.985 -211.724)" fill="#7b9073"/>
    </g>
    <g id="Group_543" data-name="Group 543" transform="translate(747.437 18267.68)">
      <path id="Path_5232" data-name="Path 5232" d="M200.3,211.823h-3.679a.716.716,0,1,1,0-1.431H200.3a.716.716,0,1,1,0,1.431Z" transform="translate(-195.901 -210.391)" fill="#7b9073"/>
    </g>
    <g id="Group_544" data-name="Group 544" transform="translate(756.063 18258.852)">
      <path id="Path_5233" data-name="Path 5233" d="M203.309,208.738H199.63a.716.716,0,0,1,0-1.431h3.679a.716.716,0,0,1,0,1.431Z" transform="translate(-198.914 -207.307)" fill="#7b9073"/>
    </g>
    <g id="Group_545" data-name="Group 545" transform="translate(767.589 18265.688)">
      <path id="Path_5234" data-name="Path 5234" d="M207.337,211.126h-3.682a.716.716,0,1,1,0-1.431h3.682a.716.716,0,0,1,0,1.431Z" transform="translate(-202.94 -209.695)" fill="#7b9073"/>
    </g>
    <g id="Group_546" data-name="Group 546" transform="translate(776.089 18260.6)">
      <path id="Path_5235" data-name="Path 5235" d="M210.3,209.349h-3.679a.716.716,0,1,1,0-1.431H210.3a.716.716,0,0,1,0,1.431Z" transform="translate(-205.909 -207.918)" fill="#7b9073"/>
    </g>
    <g id="Group_547" data-name="Group 547" transform="translate(790.166 18270.781)">
      <path id="Path_5236" data-name="Path 5236" d="M215.221,212.905h-3.679a.716.716,0,0,1,0-1.431h3.679a.716.716,0,0,1,0,1.431Z" transform="translate(-210.826 -211.474)" fill="#7b9073"/>
    </g>
    <g id="Group_548" data-name="Group 548" transform="translate(792.711 18260.6)">
      <path id="Path_5237" data-name="Path 5237" d="M216.11,209.349h-3.679a.716.716,0,1,1,0-1.431h3.679a.716.716,0,0,1,0,1.431Z" transform="translate(-211.715 -207.918)" fill="#7b9073"/>
    </g>
    <g id="Group_549" data-name="Group 549" transform="translate(797.712 18266.326)">
      <path id="Path_5238" data-name="Path 5238" d="M223.972,211.349h-9.794a.716.716,0,0,1,0-1.431h9.794a.716.716,0,0,1,0,1.431Z" transform="translate(-213.462 -209.918)" fill="#7b9073"/>
    </g>
    <g id="Group_550" data-name="Group 550" transform="translate(713.973 18270.781)">
      <path id="Path_5239" data-name="Path 5239" d="M194.722,212.905h-9.794a.716.716,0,0,1,0-1.431h9.794a.716.716,0,1,1,0,1.431Z" transform="translate(-184.212 -211.474)" fill="#7b9073"/>
    </g>
    <g id="Group_551" data-name="Group 551" transform="translate(744.571 18262.35)">
      <path id="Path_5240" data-name="Path 5240" d="M205.41,209.961h-9.794a.716.716,0,0,1,0-1.431h9.794a.716.716,0,0,1,0,1.431Z" transform="translate(-194.9 -208.529)" fill="#7b9073"/>
    </g>
    <g id="Group_552" data-name="Group 552" transform="translate(764.534 18271.891)">
      <path id="Path_5241" data-name="Path 5241" d="M212.383,213.294h-9.794a.716.716,0,1,1,0-1.431h9.794a.716.716,0,0,1,0,1.431Z" transform="translate(-201.873 -211.862)" fill="#7b9073"/>
    </g>
    <g id="Group_718" data-name="Group 718" transform="translate(14236.803 3833.165) rotate(45)">
      <g id="Group_687" data-name="Group 687" transform="translate(657.448 19714.701)">
        <g id="Group_686" data-name="Group 686">
          <g id="Group_685" data-name="Group 685">
            <rect id="Rectangle_64" data-name="Rectangle 64" width="0.766" height="8.308" fill="#fff"/>
          </g>
        </g>
      </g>
      <g id="Group_690" data-name="Group 690" transform="translate(640.472 19709.982)">
        <g id="Group_689" data-name="Group 689">
          <g id="Group_688" data-name="Group 688">
            <path id="Path_5293" data-name="Path 5293" d="M48.161,189.919,43.242,185v14.993H28.252l4.918,4.918h14.99ZM33.488,204.145l-3.387-3.39H44.007V186.85l3.39,3.387v13.908Z" transform="translate(-28.252 -184.998)" fill="#fff"/>
          </g>
        </g>
      </g>
      <g id="Group_693" data-name="Group 693" transform="translate(651.444 19708.738)">
        <g id="Group_692" data-name="Group 692">
          <g id="Group_691" data-name="Group 691">
            <rect id="Rectangle_65" data-name="Rectangle 65" width="0.766" height="8.308" fill="#fff"/>
          </g>
        </g>
      </g>
      <g id="Group_696" data-name="Group 696" transform="translate(634.466 19704.02)">
        <g id="Group_695" data-name="Group 695">
          <g id="Group_694" data-name="Group 694">
            <path id="Path_5294" data-name="Path 5294" d="M46.066,187.836l-4.921-4.921v14.99H26.154l4.921,4.921h14.99ZM31.393,202.059,28,198.673H41.911V184.764l3.387,3.39v13.905Z" transform="translate(-26.154 -182.915)" fill="#fff"/>
          </g>
        </g>
      </g>
    </g>
  </g>
</svg>
