<svg xmlns="http://www.w3.org/2000/svg" width="124.041" height="124.042" viewBox="0 0 124.041 124.042">
  <g id="Group_733" data-name="Group 733" transform="translate(-536.208 -18164.941)">
    <g id="Group_671" data-name="Group 671" transform="translate(536.208 18164.941)">
      <g id="Group_667" data-name="Group 667">
        <g id="Group_666" data-name="Group 666">
          <path id="Path_5284" data-name="Path 5284" d="M246.161,298.546H122.12V174.505H246.161ZM123.846,296.82H244.435V176.231H123.846Z" transform="translate(-122.12 -174.505)" fill="#fff"/>
        </g>
      </g>
      <g id="Group_669" data-name="Group 669" transform="translate(22.283 91.842)">
        <g id="Group_668" data-name="Group 668">
          <path id="Rectangle_63" data-name="Rectangle 63" d="M3.688,0H100.9a0,0,0,0,1,0,0V18.389a0,0,0,0,1,0,0H0a0,0,0,0,1,0,0V3.688A3.688,3.688,0,0,1,3.688,0Z" fill="#fff"/>
        </g>
      </g>
      <g id="Group_670" data-name="Group 670" transform="translate(17.561 87.413)">
        <path id="Path_5285" data-name="Path 5285" d="M131.707,229.751V219.493a11.016,11.016,0,0,1,11.005-11.005H151.6v-3.45h-8.884a14.474,14.474,0,0,0-14.458,14.455v10.258Z" transform="translate(-128.254 -205.038)" fill="#7b9073"/>
      </g>
    </g>
    <g id="Group_717" data-name="Group 717" transform="translate(-82.824 -1484)">
      <g id="Group_687" data-name="Group 687" transform="translate(657.448 19714.701)">
        <g id="Group_686" data-name="Group 686">
          <g id="Group_685" data-name="Group 685">
            <rect id="Rectangle_64" data-name="Rectangle 64" width="0.766" height="8.308" fill="#fff"/>
          </g>
        </g>
      </g>
      <g id="Group_690" data-name="Group 690" transform="translate(640.472 19709.982)">
        <g id="Group_689" data-name="Group 689">
          <g id="Group_688" data-name="Group 688">
            <path id="Path_5293" data-name="Path 5293" d="M48.161,189.919,43.242,185v14.993H28.252l4.918,4.918h14.99ZM33.488,204.145l-3.387-3.39H44.007V186.85l3.39,3.387v13.908Z" transform="translate(-28.252 -184.998)" fill="#fff"/>
          </g>
        </g>
      </g>
      <g id="Group_693" data-name="Group 693" transform="translate(651.444 19708.738)">
        <g id="Group_692" data-name="Group 692">
          <g id="Group_691" data-name="Group 691">
            <rect id="Rectangle_65" data-name="Rectangle 65" width="0.766" height="8.308" fill="#fff"/>
          </g>
        </g>
      </g>
      <g id="Group_696" data-name="Group 696" transform="translate(634.466 19704.02)">
        <g id="Group_695" data-name="Group 695">
          <g id="Group_694" data-name="Group 694">
            <path id="Path_5294" data-name="Path 5294" d="M46.066,187.836l-4.921-4.921v14.99H26.154l4.921,4.921h14.99ZM31.393,202.059,28,198.673H41.911V184.764l3.387,3.39v13.905Z" transform="translate(-26.154 -182.915)" fill="#fff"/>
          </g>
        </g>
      </g>
    </g>
  </g>
</svg>
