<svg xmlns="http://www.w3.org/2000/svg" width="37.696" height="37.696" viewBox="0 0 37.696 37.696">
  <g id="category-svgrepo-com" transform="translate(-2 -2)">
    <path id="Path_5015" data-name="Path 5015" d="M10.482,4.993a27.089,27.089,0,0,0-4.614.586.36.36,0,0,0-.288.288,27.089,27.089,0,0,0-.586,4.614A27.089,27.089,0,0,0,5.58,15.1a.36.36,0,0,0,.288.288,27.089,27.089,0,0,0,4.614.586,27.089,27.089,0,0,0,4.614-.586.36.36,0,0,0,.288-.288,27.089,27.089,0,0,0,.586-4.614,27.089,27.089,0,0,0-.586-4.614A.36.36,0,0,0,15.1,5.58,27.089,27.089,0,0,0,10.482,4.993Zm-5.2-2.349A29.811,29.811,0,0,1,10.482,2a29.811,29.811,0,0,1,5.2.644,3.353,3.353,0,0,1,2.638,2.638,29.805,29.805,0,0,1,.644,5.2,29.805,29.805,0,0,1-.644,5.2,3.353,3.353,0,0,1-2.638,2.638,29.805,29.805,0,0,1-5.2.644,29.805,29.805,0,0,1-5.2-.644,3.353,3.353,0,0,1-2.638-2.638A29.811,29.811,0,0,1,2,10.482a29.811,29.811,0,0,1,.644-5.2A3.353,3.353,0,0,1,5.282,2.644Z" fill="#0c3766" fill-rule="evenodd"/>
    <path id="Path_5016" data-name="Path 5016" d="M10.482,15.993a27.083,27.083,0,0,0-4.614.587.36.36,0,0,0-.288.288,27.088,27.088,0,0,0-.586,4.614A27.088,27.088,0,0,0,5.58,26.1a.36.36,0,0,0,.288.288,27.083,27.083,0,0,0,4.614.587,27.083,27.083,0,0,0,4.614-.587.36.36,0,0,0,.288-.288,27.089,27.089,0,0,0,.586-4.614,27.089,27.089,0,0,0-.586-4.614.36.36,0,0,0-.288-.288A27.083,27.083,0,0,0,10.482,15.993Zm-5.2-2.349a29.8,29.8,0,0,1,5.2-.644,29.805,29.805,0,0,1,5.2.644,3.353,3.353,0,0,1,2.638,2.638,29.807,29.807,0,0,1,.644,5.2,29.807,29.807,0,0,1-.644,5.2,3.353,3.353,0,0,1-2.638,2.638,29.805,29.805,0,0,1-5.2.644,29.805,29.805,0,0,1-5.2-.644,3.353,3.353,0,0,1-2.638-2.638A29.812,29.812,0,0,1,2,21.482a29.812,29.812,0,0,1,.644-5.2A3.353,3.353,0,0,1,5.282,13.644Z" transform="translate(0 9.733)" fill="#0c3766" fill-rule="evenodd"/>
    <path id="Path_5017" data-name="Path 5017" d="M21.482,4.993a27.088,27.088,0,0,0-4.614.586.36.36,0,0,0-.288.288,27.083,27.083,0,0,0-.587,4.614A27.083,27.083,0,0,0,16.58,15.1a.36.36,0,0,0,.288.288,27.089,27.089,0,0,0,4.614.586,27.089,27.089,0,0,0,4.614-.586.36.36,0,0,0,.288-.288,27.083,27.083,0,0,0,.587-4.614,27.083,27.083,0,0,0-.587-4.614A.36.36,0,0,0,26.1,5.58,27.088,27.088,0,0,0,21.482,4.993Zm-5.2-2.349A29.812,29.812,0,0,1,21.482,2a29.812,29.812,0,0,1,5.2.644,3.353,3.353,0,0,1,2.638,2.638,29.805,29.805,0,0,1,.644,5.2,29.805,29.805,0,0,1-.644,5.2,3.353,3.353,0,0,1-2.638,2.638,29.807,29.807,0,0,1-5.2.644,29.807,29.807,0,0,1-5.2-.644,3.353,3.353,0,0,1-2.638-2.638,29.805,29.805,0,0,1-.644-5.2,29.8,29.8,0,0,1,.644-5.2A3.353,3.353,0,0,1,16.282,2.644Z" transform="translate(9.733)" fill="#0c3766" fill-rule="evenodd"/>
    <path id="Path_5018" data-name="Path 5018" d="M21.482,15.993a27.083,27.083,0,0,0-4.614.587.36.36,0,0,0-.288.288,27.083,27.083,0,0,0-.587,4.614A27.083,27.083,0,0,0,16.58,26.1a.36.36,0,0,0,.288.288,27.083,27.083,0,0,0,4.614.587,27.083,27.083,0,0,0,4.614-.587.36.36,0,0,0,.288-.288,27.083,27.083,0,0,0,.587-4.614,27.083,27.083,0,0,0-.587-4.614.36.36,0,0,0-.288-.288A27.083,27.083,0,0,0,21.482,15.993Zm-5.2-2.349a29.806,29.806,0,0,1,5.2-.644,29.806,29.806,0,0,1,5.2.644,3.353,3.353,0,0,1,2.638,2.638,29.806,29.806,0,0,1,.644,5.2,29.806,29.806,0,0,1-.644,5.2,3.353,3.353,0,0,1-2.638,2.638,29.806,29.806,0,0,1-5.2.644,29.806,29.806,0,0,1-5.2-.644,3.353,3.353,0,0,1-2.638-2.638,29.806,29.806,0,0,1-.644-5.2,29.806,29.806,0,0,1,.644-5.2A3.353,3.353,0,0,1,16.282,13.644Z" transform="translate(9.733 9.733)" fill="#0c3766" fill-rule="evenodd"/>
  </g>
</svg>
