<svg id="Group_182" data-name="Group 182" xmlns="http://www.w3.org/2000/svg" width="13.542" height="14.896" viewBox="0 0 13.542 14.896">
  <g id="group-38svg" transform="translate(0)">
    <path id="path-1_31_" d="M31.038,76.514H28.461a.61.61,0,0,1-.562-.279.574.574,0,0,1,0-.607L30.3,71.441,29.166,69.1a.761.761,0,0,1,.033-.685c.1-.154.258-.416.551-.416h2.577c.233,0,.429.159.584.474L34.2,71.212a.593.593,0,0,1-.023.581L31.6,76.24A.6.6,0,0,1,31.038,76.514ZM28.613,75.8h2.421l2.508-4.328-1.271-2.693a.658.658,0,0,0-.041-.072H29.852c-.016.023-.032.05-.043.066h0a.122.122,0,0,0,0,.032l1.212,2.49a.356.356,0,0,1-.011.332Z" transform="translate(-27.811 -66.347)" fill="#0c3766"/>
    <path id="path-2_21_" d="M246.06,14.9h-2.577a.609.609,0,0,1-.561-.279L239.7,9.1a.676.676,0,0,1-.006-.658l4.511-8.06A.679.679,0,0,1,244.772,0h2.578a.677.677,0,0,1,.561.374.692.692,0,0,1,.007.664l-4.331,7.73L246.623,14a.59.59,0,0,1-.563.9Zm-2.569-.709h2.422l-3.041-5.237a.355.355,0,0,1,0-.352L247.286.713l0,0h-2.447a.219.219,0,0,0-.014.022l-4.5,8.035Z" transform="translate(-234.457)" fill="#0c3766"/>
  </g>
</svg>
