<svg id="instagram" xmlns="http://www.w3.org/2000/svg" width="14.265" height="14.266" viewBox="0 0 14.265 14.266">
  <path id="Path_5022" data-name="Path 5022" d="M10.4,0H3.861A3.866,3.866,0,0,0,0,3.862V10.4a3.866,3.866,0,0,0,3.862,3.861H10.4A3.866,3.866,0,0,0,14.264,10.4V3.862A3.866,3.866,0,0,0,10.4,0Zm3.025,10.4A3.029,3.029,0,0,1,10.4,13.429H3.861A3.029,3.029,0,0,1,.835,10.4V3.862A3.029,3.029,0,0,1,3.861.836H10.4a3.029,3.029,0,0,1,3.025,3.025Zm0,0" transform="translate(0.001 0)" fill="#0c3766"/>
  <path id="Path_5023" data-name="Path 5023" d="M119.9,116a3.9,3.9,0,1,0,3.9,3.9A3.9,3.9,0,0,0,119.9,116Zm0,6.965a3.064,3.064,0,1,1,3.064-3.064A3.068,3.068,0,0,1,119.9,122.969Zm0,0" transform="translate(-112.772 -112.772)" fill="#0c3766"/>
  <path id="Path_5024" data-name="Path 5024" d="M359.129,66.285a1.153,1.153,0,1,0,1.153,1.153A1.154,1.154,0,0,0,359.129,66.285Zm0,1.469a.316.316,0,1,1,.316-.316A.317.317,0,0,1,359.129,67.754Zm0,0" transform="translate(-348.003 -64.438)" fill="#0c3766"/>
</svg>
