<svg xmlns="http://www.w3.org/2000/svg" width="58.316" height="58.316" viewBox="0 0 58.316 58.316">
  <g id="danger" transform="translate(-1.25 -1.25)">
    <path id="Path_5019" data-name="Path 5019" d="M30.408,59.566A29.158,29.158,0,1,1,59.566,30.408,29.183,29.183,0,0,1,30.408,59.566Zm0-54.248A25.09,25.09,0,1,0,55.5,30.408,25.12,25.12,0,0,0,30.408,5.319Z" transform="translate(0 0)" fill="#0c3766"/>
    <path id="Path_5020" data-name="Path 5020" d="M13.284,24.881a2.049,2.049,0,0,1-2.034-2.034V9.284a2.034,2.034,0,0,1,4.069,0V22.846A2.049,2.049,0,0,1,13.284,24.881Z" transform="translate(17.124 10.274)" fill="#0c3766"/>
    <path id="Path_5021" data-name="Path 5021" d="M13.712,20.416a2.7,2.7,0,0,1-1.031-.217,3.132,3.132,0,0,1-.9-.57,2.8,2.8,0,0,1-.57-.9,2.556,2.556,0,0,1,0-2.061,3.132,3.132,0,0,1,.57-.9,3.132,3.132,0,0,1,.9-.57,2.713,2.713,0,0,1,2.061,0,3.132,3.132,0,0,1,.9.57,3.132,3.132,0,0,1,.57.9,2.556,2.556,0,0,1,0,2.061,2.8,2.8,0,0,1-.57.9,3.132,3.132,0,0,1-.9.57A2.7,2.7,0,0,1,13.712,20.416Z" transform="translate(16.696 23.554)" fill="#0c3766"/>
  </g>
</svg>
