<svg xmlns="http://www.w3.org/2000/svg" width="58.316" height="58.316" viewBox="0 0 58.316 58.316">
  <path id="plus" d="M29.159,0A29.158,29.158,0,1,0,58.317,29.159,29.191,29.191,0,0,0,29.159,0Zm0,54.672A25.513,25.513,0,1,1,54.673,29.159,25.542,25.542,0,0,1,29.159,54.673ZM45.333,29.159a1.822,1.822,0,0,1-1.822,1.822H30.982V43.511a1.822,1.822,0,1,1-3.645,0V30.982H14.808a1.822,1.822,0,1,1,0-3.645H27.337V14.808a1.822,1.822,0,1,1,3.645,0V27.337H43.511A1.822,1.822,0,0,1,45.333,29.159Z" transform="translate(-0.001 -0.001)" fill="#0c3766"/>
</svg>
