<svg xmlns="http://www.w3.org/2000/svg" width="58.316" height="58.316" viewBox="0 0 58.316 58.316">
  <path id="Path_5012" data-name="Path 5012" d="M49.776,8.54A29.158,29.158,0,0,0,8.54,49.776,29.158,29.158,0,0,0,49.776,8.54ZM12.655,48.9a16.682,16.682,0,0,1,16.5-14.681,16.619,16.619,0,0,1,16.5,14.68,25.687,25.687,0,0,1-33.007,0Zm16.5-18.2a8.856,8.856,0,1,1,8.856-8.856A8.867,8.867,0,0,1,29.158,30.7ZM48.6,46.008A20.087,20.087,0,0,0,36.03,32a12.273,12.273,0,1,0-13.738,0,20.069,20.069,0,0,0-12.58,14,25.741,25.741,0,1,1,38.892,0Z" fill="#0c3766"/>
</svg>
