<svg xmlns="http://www.w3.org/2000/svg" xmlns:xlink="http://www.w3.org/1999/xlink" width="4.558" height="8.021" viewBox="0 0 4.558 8.021">
  <defs>
    <clipPath id="clip-path">
      <rect width="4.558" height="8.021" fill="none"/>
    </clipPath>
  </defs>
  <g id="Scroll_Group_1" data-name="Scroll Group 1" clip-path="url(#clip-path)" style="isolation: isolate">
    <path id="Path_5342" data-name="Path 5342" d="M905.079,469.427a.549.549,0,0,0-.771,0l-.625.626-1.035,1.037-.236.236-.635.635-.546.546-.77-.769h0l-.1-.1-.114-.114-1.788-1.788-.311-.311a.545.545,0,1,0-.771.771l3.082,3.079.386.386a.55.55,0,0,0,.384.161.532.532,0,0,0,.384-.161l.389-.389,3.075-3.075A.543.543,0,0,0,905.079,469.427Z" transform="translate(-469.267 905.24) rotate(-90)" fill="#0c3766"/>
  </g>
</svg>
