<svg xmlns="http://www.w3.org/2000/svg" width="351" height="84.235" viewBox="0 0 351 84.235">
  <g id="Group_190" data-name="Group 190" transform="translate(-200 -1111)">
    <g id="Group_189" data-name="Group 189" transform="translate(200 1111)">
      <g id="Ebene_1" transform="translate(0 0)">
        <g id="_63430936" data-name=" 63430936">
          <path id="_24868928" data-name=" 24868928" d="M933.79,676.745H849.9V611.383H933.79Z" transform="translate(-849.896 -593.024)" fill="#0033ba"/>
          <g id="g3594">
            <path id="_62230312" data-name=" 62230312" d="M887.546,602.122h9.365v3.684H891.63v2.89h5.281v3.488H891.63v6.378h-4.084Z" transform="translate(-813.017 -602.095)"/>
            <path id="_24855208" data-name=" 24855208" d="M860.259,605.808H857.27v12.754h-4.185V605.808H849.9v-3.686h10.363Z" transform="translate(-849.896 -602.095)"/>
            <path id="_63217712" data-name=" 63217712" d="M888.272,608.486a1.529,1.529,0,0,1-.372.671,1.735,1.735,0,0,1-.624.426,2.333,2.333,0,0,1-.7.226h-1.594v-3.987h1.594a2.349,2.349,0,0,1,1.544,1.045,1.7,1.7,0,0,1,.224.624A1.763,1.763,0,0,1,888.272,608.486Zm3.961-2.316a4.541,4.541,0,0,0-1.021-2.094,4.462,4.462,0,0,0-1.37-1.118,5.081,5.081,0,0,0-1.445-.6,7.275,7.275,0,0,0-1.817-.224,11.886,11.886,0,0,0-1.594,0H880.7v16.44h4.286v-5.382c.62,0,.972.012,1.594,0,.778-.014,1.217-.01,1.991-.073a2.684,2.684,0,0,0,1.37-.574,4.368,4.368,0,0,0,1.247-1.172,4.835,4.835,0,0,0,.845-1.443,5.139,5.139,0,0,0,.374-2.142,5.435,5.435,0,0,0-.174-1.619Z" transform="translate(-819.723 -602.109)"/>
            <path id="_62617536" data-name=" 62617536" d="M874.395,618.562V608.348l3.486,10.214h2.74l3.49-10.214v10.214h3.983v-16.44h-5.529l-3.239,10.062-3.236-10.062h-5.481v16.44Z" transform="translate(-829.608 -602.095)"/>
            <path id="_62618200" data-name=" 62618200" d="M871.365,602.122v10.761a1.686,1.686,0,0,1-.2.944,2.18,2.18,0,0,1-1.17,1.021,1.754,1.754,0,0,1-.873.1,1.936,1.936,0,0,1-.649-.174,1.746,1.746,0,0,1-.721-.475,1.821,1.821,0,0,1-.376-.7,2.482,2.482,0,0,1-.147-.721V602.122H863.1v10.062h-.026l.026.7c.026.333.047.517.1.845a7.281,7.281,0,0,0,.273,1.32,4.6,4.6,0,0,0,.622,1.344,4.53,4.53,0,0,0,1.3,1.271,5.083,5.083,0,0,0,1.869.922,5.9,5.9,0,0,0,2.041.2,5.793,5.793,0,0,0,1.546-.174,5.428,5.428,0,0,0,1.568-.645,5.243,5.243,0,0,0,1.372-1.021,4.674,4.674,0,0,0,1.045-1.6,5.726,5.726,0,0,0,.449-1.694,6.687,6.687,0,0,0,.073-.77V602.122Z" transform="translate(-836.991 -602.095)"/>
            <path id="_62618152" data-name=" 62618152" d="M859.995,605.846h2.443a1.969,1.969,0,0,1,.946.548,1.914,1.914,0,0,1,.473.649,2.339,2.339,0,0,1,.2.97,2.3,2.3,0,0,1-.026.746,1.677,1.677,0,0,1-.174.5,1.733,1.733,0,0,1-.447.6,1.674,1.674,0,0,1-.972.447v.026h-2.443Zm4.385,7.075v-.079a3.717,3.717,0,0,0,.8-.243,5.153,5.153,0,0,0,2.29-2.043,4.509,4.509,0,0,0,.55-1.845,5.551,5.551,0,0,0-.026-1.94,5.194,5.194,0,0,0-.525-1.645,4.8,4.8,0,0,0-1.12-1.594,4.228,4.228,0,0,0-1.942-1.2,4.33,4.33,0,0,0-1.968-.176h-6.526V618.6h4.084v-5.38l3.389,5.38h4.981l-3.985-5.679Z" transform="translate(-844.004 -602.096)"/>
          </g>
        </g>
      </g>
      <g id="Group_187" data-name="Group 187" transform="translate(105.964 28.926)">
        <path id="Path_5057" data-name="Path 5057" d="M918.963,636.932a12.7,12.7,0,0,1-5.111.887c-6.883,0-10.426-4.313-10.426-9.985,0-6.8,4.844-10.577,10.869-10.577a11.744,11.744,0,0,1,4.905.887l-.917,3.575a9.688,9.688,0,0,0-3.781-.739c-3.575,0-6.352,2.156-6.352,6.586,0,3.987,2.364,6.5,6.382,6.5a11.208,11.208,0,0,0,3.751-.649Z" transform="translate(-903.426 -616.195)" fill="#231f20"/>
        <path id="Path_5058" data-name="Path 5058" d="M916.278,629c.146,1.861,1.979,2.746,4.076,2.746a12.733,12.733,0,0,0,3.989-.59l.59,3.042a14.258,14.258,0,0,1-5.228.917c-4.9,0-7.71-2.866-7.71-7.386,0-3.664,2.274-7.71,7.3-7.71,4.668,0,6.439,3.632,6.439,7.207a10.621,10.621,0,0,1-.148,1.774Zm5.287-3.072c0-1.095-.473-2.926-2.542-2.926a2.948,2.948,0,0,0-2.775,2.926Z" transform="translate(-895.034 -613.491)" fill="#231f20"/>
        <path id="Path_5059" data-name="Path 5059" d="M920.351,625.1c0-2.128-.057-3.516-.117-4.757h3.87l.148,2.659h.117a4.245,4.245,0,0,1,3.9-2.983,4.616,4.616,0,0,1,.946.059v4.252a4.589,4.589,0,0,0-1.212-.146,2.888,2.888,0,0,0-3.074,2.274,5.45,5.45,0,0,0-.087,1v7.326h-4.491Z" transform="translate(-886.962 -613.491)" fill="#231f20"/>
        <path id="Path_5060" data-name="Path 5060" d="M931.944,618.2v3.929h3.221v3.308h-3.221v5.23c0,1.742.414,2.54,1.774,2.54a5.639,5.639,0,0,0,1.328-.117l.03,3.4a8.682,8.682,0,0,1-2.924.414,4.679,4.679,0,0,1-3.367-1.271c-.827-.857-1.241-2.245-1.241-4.284v-5.909h-1.92v-3.308h1.92v-2.716Z" transform="translate(-881.684 -615.274)" fill="#231f20"/>
        <path id="Path_5061" data-name="Path 5061" d="M936.455,619.278a2.256,2.256,0,0,1-2.423,2.247,2.261,2.261,0,1,1,.03-4.519A2.253,2.253,0,0,1,936.455,619.278Zm-4.64,18.463V623.3h4.491V637.74Z" transform="translate(-875.734 -616.443)" fill="#231f20"/>
        <path id="Path_5062" data-name="Path 5062" d="M937.038,638.019V626.882h-1.892v-3.308h1.892v-.562a6.587,6.587,0,0,1,1.831-4.844,5.854,5.854,0,0,1,3.989-1.447,8.581,8.581,0,0,1,2.391.295l-.176,3.456a4.909,4.909,0,0,0-1.449-.206c-1.477,0-2.1,1.152-2.1,2.569v.738h2.894v3.308h-2.864v11.137Z" transform="translate(-872.356 -616.721)" fill="#231f20"/>
        <path id="Path_5063" data-name="Path 5063" d="M945.635,619.278a2.256,2.256,0,0,1-2.423,2.247,2.261,2.261,0,1,1,.03-4.519A2.252,2.252,0,0,1,945.635,619.278ZM941,637.74V623.3h4.491V637.74Z" transform="translate(-866.742 -616.443)" fill="#231f20"/>
        <path id="Path_5064" data-name="Path 5064" d="M948.894,629c.148,1.861,1.979,2.746,4.076,2.746a12.733,12.733,0,0,0,3.989-.59l.59,3.042a14.258,14.258,0,0,1-5.228.917c-4.9,0-7.71-2.866-7.71-7.386,0-3.664,2.274-7.71,7.3-7.71,4.668,0,6.439,3.632,6.439,7.207A10.892,10.892,0,0,1,958.2,629Zm5.287-3.072c0-1.095-.471-2.926-2.54-2.926a2.95,2.95,0,0,0-2.777,2.926Z" transform="translate(-863.086 -613.491)" fill="#231f20"/>
        <path id="Path_5065" data-name="Path 5065" d="M967.321,616.885v16.661c0,1.623.059,3.337.117,4.311h-3.987l-.208-2.126h-.057a5.044,5.044,0,0,1-4.521,2.453c-3.427,0-6.172-2.926-6.172-7.415-.03-4.874,3.013-7.681,6.469-7.681a4.4,4.4,0,0,1,3.811,1.625h.057v-7.829Zm-4.491,12.643a7.178,7.178,0,0,0-.057-.8,2.7,2.7,0,0,0-2.631-2.215c-2.037,0-3.1,1.831-3.1,4.105,0,2.453,1.209,3.989,3.072,3.989a2.628,2.628,0,0,0,2.6-2.156,3.822,3.822,0,0,0,.117-1.033Z" transform="translate(-855.365 -616.56)" fill="#231f20"/>
        <path id="Path_5066" data-name="Path 5066" d="M964.879,625.189c0-1.89-.057-3.517-.117-4.846h3.9l.208,2.009h.059a5.544,5.544,0,0,1,4.816-2.334c3.161,0,6,2.748,6,7.354,0,5.26-3.337,7.742-6.558,7.742a4.5,4.5,0,0,1-3.753-1.655h-.057v7.18h-4.492Zm4.492,3.4a4.332,4.332,0,0,0,.089.944,2.715,2.715,0,0,0,2.629,2.126c1.948,0,3.1-1.623,3.1-4.076,0-2.3-1.033-4.046-3.042-4.046a2.818,2.818,0,0,0-2.686,2.274,3.351,3.351,0,0,0-.089.8Z" transform="translate(-843.346 -613.491)" fill="#231f20"/>
        <path id="Path_5067" data-name="Path 5067" d="M986.269,631.275a22.308,22.308,0,0,0,.206,3.514h-4.048l-.263-1.447h-.089a5.207,5.207,0,0,1-4.135,1.774,4.428,4.428,0,0,1-4.668-4.432c0-3.751,3.367-5.553,8.478-5.525v-.206c0-.768-.414-1.861-2.629-1.861a8.107,8.107,0,0,0-3.989,1.093l-.827-2.9a11.943,11.943,0,0,1,5.612-1.269c4.816,0,6.352,2.835,6.352,6.234Zm-4.373-3.31c-2.362-.028-4.195.532-4.195,2.276a1.612,1.612,0,0,0,1.772,1.712,2.449,2.449,0,0,0,2.334-1.655,3.205,3.205,0,0,0,.089-.768Z" transform="translate(-835.012 -613.491)" fill="#231f20"/>
        <path id="Path_5068" data-name="Path 5068" d="M981.689,625.1c0-2.128-.057-3.516-.119-4.757h3.87l.148,2.659h.117a4.245,4.245,0,0,1,3.9-2.983,4.606,4.606,0,0,1,.944.059v4.252a4.589,4.589,0,0,0-1.212-.146,2.886,2.886,0,0,0-3.072,2.274,5.279,5.279,0,0,0-.089,1v7.326h-4.49Z" transform="translate(-826.883 -613.491)" fill="#231f20"/>
        <path id="Path_5069" data-name="Path 5069" d="M993.28,618.2v3.929H996.5v3.308H993.28v5.23c0,1.742.414,2.54,1.774,2.54a5.651,5.651,0,0,0,1.328-.117l.03,3.4a8.681,8.681,0,0,1-2.924.414,4.679,4.679,0,0,1-3.367-1.271c-.828-.857-1.241-2.245-1.241-4.284v-5.909h-1.92v-3.308h1.92v-2.716Z" transform="translate(-821.604 -615.274)" fill="#231f20"/>
        <path id="Path_5070" data-name="Path 5070" d="M993.153,624.952c0-1.8-.059-3.338-.119-4.608h3.9l.206,1.979h.089a5.293,5.293,0,0,1,4.46-2.3c2.955,0,5.172,1.95,5.172,6.2v8.567h-4.491v-8c0-1.863-.649-3.134-2.274-3.134a2.4,2.4,0,0,0-2.275,1.685,3.179,3.179,0,0,0-.178,1.122v8.33h-4.49Z" transform="translate(-815.654 -613.491)" fill="#231f20"/>
        <path id="Path_5071" data-name="Path 5071" d="M1005.708,629c.146,1.861,1.979,2.746,4.076,2.746a12.725,12.725,0,0,0,3.989-.59l.59,3.042a14.259,14.259,0,0,1-5.228.917c-4.9,0-7.71-2.866-7.71-7.386,0-3.664,2.274-7.71,7.3-7.71,4.668,0,6.439,3.632,6.439,7.207a10.906,10.906,0,0,1-.146,1.774Zm5.287-3.072c0-1.095-.471-2.926-2.54-2.926a2.95,2.95,0,0,0-2.777,2.926Z" transform="translate(-807.435 -613.491)" fill="#231f20"/>
        <path id="Path_5072" data-name="Path 5072" d="M1009.783,625.1c0-2.128-.059-3.516-.119-4.757h3.87l.146,2.659h.119a4.244,4.244,0,0,1,3.9-2.983,4.606,4.606,0,0,1,.944.059v4.252a4.588,4.588,0,0,0-1.211-.146,2.886,2.886,0,0,0-3.072,2.274,5.28,5.28,0,0,0-.089,1v7.326h-4.49Z" transform="translate(-799.364 -613.491)" fill="#231f20"/>
      </g>
      <g id="Group_188" data-name="Group 188" transform="translate(107.064 63.983)">
        <path id="Path_5073" data-name="Path 5073" d="M903.982,635.236a28.151,28.151,0,0,1,4.692-.366,7.779,7.779,0,0,1,5.309,1.574,5.089,5.089,0,0,1,1.657,3.961,5.566,5.566,0,0,1-1.461,4.044,7.848,7.848,0,0,1-5.786,2.08,8.53,8.53,0,0,1-1.968-.168v7.583h-2.443Zm2.443,9.13a8.2,8.2,0,0,0,2.023.2c2.95,0,4.747-1.435,4.747-4.046,0-2.5-1.77-3.708-4.466-3.708a10.371,10.371,0,0,0-2.3.2Z" transform="translate(-903.982 -634.001)" fill="#231f20"/>
        <path id="Path_5074" data-name="Path 5074" d="M911.316,642.032c0-1.6-.028-2.977-.113-4.24h2.164l.083,2.666h.115a4.077,4.077,0,0,1,3.763-2.977,2.685,2.685,0,0,1,.7.085V639.9a3.728,3.728,0,0,0-.841-.085,3.47,3.47,0,0,0-3.316,3.175,7.068,7.068,0,0,0-.111,1.152v7.247h-2.445Z" transform="translate(-896.909 -631.444)" fill="#231f20"/>
        <path id="Path_5075" data-name="Path 5075" d="M917.622,645.039c.055,3.341,2.191,4.719,4.662,4.719a8.95,8.95,0,0,0,3.763-.7l.422,1.77a11,11,0,0,1-4.521.841c-4.187,0-6.687-2.751-6.687-6.851s2.417-7.334,6.378-7.334c4.438,0,5.618,3.905,5.618,6.406a8.959,8.959,0,0,1-.085,1.152Zm7.247-1.772c.028-1.572-.647-4.016-3.428-4.016-2.5,0-3.595,2.3-3.791,4.016Z" transform="translate(-892.935 -631.444)" fill="#231f20"/>
        <path id="Path_5076" data-name="Path 5076" d="M929.59,640.206v1.827h-6.938v-1.827Z" transform="translate(-885.694 -628.774)" fill="#231f20"/>
        <path id="Path_5077" data-name="Path 5077" d="M940.663,644.477c0,5.028-3.482,7.219-6.77,7.219-3.678,0-6.517-2.7-6.517-6.994,0-4.551,2.977-7.221,6.742-7.221C938.022,637.481,940.663,640.32,940.663,644.477Zm-10.786.141c0,2.977,1.714,5.226,4.129,5.226,2.36,0,4.129-2.221,4.129-5.281,0-2.3-1.152-5.226-4.074-5.226S929.876,642.032,929.876,644.617Z" transform="translate(-881.067 -631.444)" fill="#231f20"/>
        <path id="Path_5078" data-name="Path 5078" d="M937.31,637.638l1.8,6.911c.394,1.516.758,2.92,1.012,4.323h.085c.309-1.376.758-2.835,1.208-4.3l2.219-6.938h2.078l2.106,6.8c.507,1.631.9,3.062,1.209,4.438h.083a41.169,41.169,0,0,1,1.039-4.408l1.938-6.825h2.445l-4.383,13.6H947.9l-2.078-6.489a45.373,45.373,0,0,1-1.208-4.466h-.057a40.188,40.188,0,0,1-1.235,4.494l-2.191,6.461h-2.247l-4.1-13.6Z" transform="translate(-873.813 -631.29)" fill="#231f20"/>
        <path id="Path_5079" data-name="Path 5079" d="M946.06,641.47c0-1.4-.028-2.555-.113-3.678h2.191l.141,2.245h.057a5,5,0,0,1,4.494-2.555c1.882,0,4.8,1.124,4.8,5.786v8.12h-2.473V643.55c0-2.193-.816-4.016-3.145-4.016a3.623,3.623,0,0,0-3.484,3.678v8.175H946.06Z" transform="translate(-862.877 -631.444)" fill="#231f20"/>
        <path id="Path_5080" data-name="Path 5080" d="M955.741,645.039c.057,3.341,2.191,4.719,4.664,4.719a8.951,8.951,0,0,0,3.763-.7l.422,1.77a11.006,11.006,0,0,1-4.523.841c-4.185,0-6.685-2.751-6.685-6.851s2.417-7.334,6.378-7.334c4.436,0,5.616,3.905,5.616,6.406a9.447,9.447,0,0,1-.083,1.152Zm7.247-1.772c.03-1.572-.645-4.016-3.427-4.016-2.5,0-3.595,2.3-3.793,4.016Z" transform="translate(-855.595 -631.444)" fill="#231f20"/>
        <path id="Path_5081" data-name="Path 5081" d="M973.214,634.431v16.432c0,1.208.03,2.583.113,3.512h-2.217l-.115-2.362h-.056a5.026,5.026,0,0,1-4.634,2.67c-3.288,0-5.816-2.781-5.816-6.911-.028-4.521,2.781-7.3,6.095-7.3a4.558,4.558,0,0,1,4.1,2.078h.055v-8.116Zm-2.47,11.883a4.33,4.33,0,0,0-.115-1.041,3.63,3.63,0,0,0-3.565-2.864c-2.556,0-4.074,2.247-4.074,5.252,0,2.754,1.348,5.028,4.016,5.028a3.713,3.713,0,0,0,3.623-2.949,4.244,4.244,0,0,0,.115-1.067Z" transform="translate(-848.633 -634.431)" fill="#231f20"/>
        <path id="Path_5082" data-name="Path 5082" d="M972.051,641.47c0-1.4-.03-2.555-.113-3.678H974.1l.113,2.189h.083a4.691,4.691,0,0,1,4.27-2.5,4.017,4.017,0,0,1,3.848,2.726h.057a5.6,5.6,0,0,1,1.516-1.77,4.63,4.63,0,0,1,3-.956c1.8,0,4.468,1.18,4.468,5.9v8.005h-2.417v-7.7c0-2.611-.954-4.185-2.949-4.185a3.2,3.2,0,0,0-2.922,2.249,4.109,4.109,0,0,0-.2,1.235v8.4h-2.415v-8.146c0-2.164-.956-3.737-2.839-3.737a3.383,3.383,0,0,0-3.062,2.472,3.451,3.451,0,0,0-.2,1.208v8.2h-2.415Z" transform="translate(-837.418 -631.444)" fill="#231f20"/>
        <path id="Path_5083" data-name="Path 5083" d="M991.883,651.387l-.2-1.712H991.6a5.064,5.064,0,0,1-4.157,2.021,3.873,3.873,0,0,1-4.157-3.906c0-3.286,2.922-5.083,8.173-5.056v-.281a2.8,2.8,0,0,0-3.09-3.145,6.784,6.784,0,0,0-3.539,1.011l-.562-1.629a8.444,8.444,0,0,1,4.468-1.209c4.157,0,5.167,2.839,5.167,5.562v5.083a18.977,18.977,0,0,0,.228,3.26Zm-.366-6.938c-2.7-.055-5.758.422-5.758,3.062a2.188,2.188,0,0,0,2.332,2.358,3.384,3.384,0,0,0,3.288-2.274,2.609,2.609,0,0,0,.139-.788Z" transform="translate(-826.301 -631.444)" fill="#231f20"/>
        <path id="Path_5084" data-name="Path 5084" d="M1000.844,650.866a9.091,9.091,0,0,1-3.906.786c-4.1,0-6.77-2.779-6.77-6.936a6.907,6.907,0,0,1,7.3-7.219,8.241,8.241,0,0,1,3.428.7l-.562,1.908a5.76,5.76,0,0,0-2.866-.645c-3.118,0-4.8,2.3-4.8,5.141,0,3.145,2.023,5.083,4.719,5.083a7.006,7.006,0,0,0,3.035-.675Z" transform="translate(-819.561 -631.429)" fill="#231f20"/>
        <path id="Path_5085" data-name="Path 5085" d="M997.021,634.431H999.5v8.482h.056a4.587,4.587,0,0,1,1.768-1.742,5.093,5.093,0,0,1,2.53-.7c1.825,0,4.747,1.124,4.747,5.816v8.09h-2.472v-7.809c0-2.191-.816-4.044-3.148-4.044a3.55,3.55,0,0,0-3.314,2.472,2.983,2.983,0,0,0-.166,1.178v8.2h-2.474Z" transform="translate(-812.849 -634.431)" fill="#231f20"/>
        <path id="Path_5086" data-name="Path 5086" d="M1007.8,636.473a1.531,1.531,0,0,1-3.062,0,1.507,1.507,0,0,1,1.546-1.546A1.468,1.468,0,0,1,1007.8,636.473Zm-2.751,17.416v-13.6h2.472v13.6Z" transform="translate(-805.29 -633.945)" fill="#231f20"/>
        <path id="Path_5087" data-name="Path 5087" d="M1008.271,641.47c0-1.4-.03-2.555-.113-3.678h2.191l.141,2.245h.055a5,5,0,0,1,4.5-2.555c1.88,0,4.8,1.124,4.8,5.786v8.12h-2.473V643.55c0-2.193-.818-4.016-3.147-4.016a3.623,3.623,0,0,0-3.482,3.678v8.175h-2.472Z" transform="translate(-801.94 -631.444)" fill="#231f20"/>
        <path id="Path_5088" data-name="Path 5088" d="M1017.952,645.039c.057,3.341,2.191,4.719,4.664,4.719a8.958,8.958,0,0,0,3.763-.7l.422,1.77a11,11,0,0,1-4.521.841c-4.189,0-6.687-2.751-6.687-6.851s2.417-7.334,6.376-7.334c4.44,0,5.618,3.905,5.618,6.406a8.959,8.959,0,0,1-.085,1.152Zm7.247-1.772c.028-1.572-.645-4.016-3.427-4.016-2.5,0-3.6,2.3-3.793,4.016Z" transform="translate(-794.658 -631.444)" fill="#231f20"/>
        <path id="Path_5089" data-name="Path 5089" d="M1023.33,648.859a6.5,6.5,0,0,0,3.26.984c1.8,0,2.641-.9,2.641-2.023,0-1.182-.7-1.827-2.528-2.5-2.445-.869-3.6-2.219-3.6-3.848,0-2.189,1.772-3.989,4.691-3.989a6.783,6.783,0,0,1,3.343.843l-.619,1.8a5.3,5.3,0,0,0-2.779-.786c-1.461,0-2.277.843-2.277,1.853,0,1.124.815,1.631,2.585,2.306,2.36.9,3.567,2.077,3.567,4.1,0,2.387-1.855,4.072-5.083,4.072a7.769,7.769,0,0,1-3.821-.924Z" transform="translate(-787.682 -631.444)" fill="#231f20"/>
      </g>
    </g>
  </g>
</svg>
