<svg xmlns="http://www.w3.org/2000/svg" width="49.765" height="49.765" viewBox="0 0 49.765 49.765">
  <g id="whatsapp" transform="translate(0 0)">
    <g id="Group_179" data-name="Group 179" transform="translate(11.417 11.418)">
      <g id="Group_178" data-name="Group 178">
        <path id="Path_5028" data-name="Path 5028" d="M143.379,136.011l-2.637-2.637a3.424,3.424,0,0,0-5.234.469l-.919,1.324a8.833,8.833,0,0,1-7.9-7.9l1.324-.919a3.424,3.424,0,0,0,.469-5.234l-2.637-2.637a3.4,3.4,0,0,0-3.975-.63,8.262,8.262,0,0,0-4.275,6.319c-.726,4.689,1.441,10.22,5.657,14.436,3.677,3.677,8.354,5.8,12.6,5.8a12,12,0,0,0,1.836-.138,8.261,8.261,0,0,0,6.319-4.275h0A3.4,3.4,0,0,0,143.379,136.011Zm-2.054,2.585a5.327,5.327,0,0,1-4.1,2.678c-3.7.573-8.343-1.314-11.836-4.807s-5.38-8.139-4.807-11.836a5.327,5.327,0,0,1,2.679-4.1.349.349,0,0,1,.161-.038.411.411,0,0,1,.287.121l2.637,2.637a.4.4,0,0,1-.055.614l-2.083,1.446a1.511,1.511,0,0,0-.646,1.34A12.092,12.092,0,0,0,135.205,138.3a1.513,1.513,0,0,0,1.34-.646l1.446-2.083a.4.4,0,0,1,.614-.055l2.637,2.637A.39.39,0,0,1,141.326,138.6Z" transform="translate(-117.459 -117.469)" fill="#0c3766"/>
      </g>
    </g>
    <g id="Group_181" data-name="Group 181" transform="translate(0 0)">
      <g id="Group_180" data-name="Group 180">
        <path id="Path_5029" data-name="Path 5029" d="M42.477,7.288A24.884,24.884,0,0,0,.146,22.174,25.009,25.009,0,0,0,3.392,37.439L.8,47.116A1.511,1.511,0,0,0,2.65,48.967l9.677-2.593a24.894,24.894,0,0,0,30.15-3.895,24.883,24.883,0,0,0,0-35.191ZM40.34,40.342a21.76,21.76,0,0,1-26.986,3.122,1.511,1.511,0,0,0-1.189-.176L4.4,45.37,6.478,37.6A1.512,1.512,0,0,0,6.3,36.411a21.863,21.863,0,1,1,34.039,3.93Z" transform="translate(0)" fill="#0c3766"/>
      </g>
    </g>
  </g>
</svg>
