<svg xmlns="http://www.w3.org/2000/svg" width="49.765" height="47.842" viewBox="0 0 49.765 47.842">
  <g id="linkedin" transform="translate(0 0)">
    <g id="Group_173" data-name="Group 173" transform="translate(0 15.309)">
      <g id="Group_172" data-name="Group 172">
        <path id="Path_5025" data-name="Path 5025" d="M10.194,167.394H1.477A1.477,1.477,0,0,0,0,168.871V198.45a1.477,1.477,0,0,0,1.477,1.477h8.716a1.477,1.477,0,0,0,1.477-1.477V168.871A1.477,1.477,0,0,0,10.194,167.394ZM8.716,196.973H2.954V170.348H8.716Z" transform="translate(0 -167.394)" fill="#0c3766"/>
      </g>
    </g>
    <g id="Group_175" data-name="Group 175" transform="translate(18.046 15.309)">
      <g id="Group_174" data-name="Group 174">
        <path id="Path_5026" data-name="Path 5026" d="M213.765,172.152a12.962,12.962,0,0,0-10.373-4.757,12.409,12.409,0,0,0-6.057,1.437,1.477,1.477,0,0,0-1.477-1.437h-8.716a1.477,1.477,0,0,0-1.477,1.477v29.579a1.477,1.477,0,0,0,1.477,1.477h8.716a1.477,1.477,0,0,0,1.477-1.477v-15.2a4.189,4.189,0,1,1,8.377,0v15.2a1.477,1.477,0,0,0,1.477,1.477h8.716a1.477,1.477,0,0,0,1.477-1.477v-15.2A17.462,17.462,0,0,0,213.765,172.152Zm.664,24.822h-5.762V183.255a7.143,7.143,0,1,0-14.286,0v13.719h-5.762V170.349h5.762v1.444a1.477,1.477,0,0,0,2.532,1.034,8.7,8.7,0,0,1,6.478-2.477c7.624,0,11.037,6.482,11.037,12.905v13.72Z" transform="translate(-185.665 -167.395)" fill="#0c3766"/>
      </g>
    </g>
    <g id="Group_177" data-name="Group 177" transform="translate(0 0)">
      <g id="Group_176" data-name="Group 176">
        <path id="Path_5027" data-name="Path 5027" d="M5.835,9.892a5.835,5.835,0,1,0,5.835,5.835A5.842,5.842,0,0,0,5.835,9.892Zm0,8.716a2.881,2.881,0,1,1,2.881-2.881A2.884,2.884,0,0,1,5.835,18.608Z" transform="translate(0 -9.892)" fill="#0c3766"/>
      </g>
    </g>
  </g>
</svg>
