<?xml version="1.0" standalone="no"?>
<!DOCTYPE svg PUBLIC "-//W3C//DTD SVG 20010904//EN"
 "http://www.w3.org/TR/2001/REC-SVG-20010904/DTD/svg10.dtd">
<svg version="1.0" xmlns="http://www.w3.org/2000/svg"
 width="64.000000pt" height="64.000000pt" viewBox="0 0 64.000000 64.000000"
 preserveAspectRatio="xMidYMid meet">

<g transform="translate(0.000000,64.000000) scale(0.100000,-0.100000)"
fill="#000000" stroke="none">
<path d="M70 320 l0 -310 210 0 210 0 0 78 c0 75 1 79 30 100 62 47 62 157 0
204 l-30 22 0 108 0 108 -210 0 -210 0 0 -310z m120 280 c0 -5 -18 -10 -40
-10 l-40 0 0 -275 0 -275 170 0 170 0 0 60 c0 33 4 60 10 60 6 0 10 -28 10
-65 l0 -65 -190 0 -190 0 0 290 0 290 50 0 c28 0 50 -4 50 -10z m160 -20 l0
-30 -70 0 -70 0 0 30 0 30 70 0 70 0 0 -30z m120 -65 c0 -57 -4 -95 -10 -95
-6 0 -10 35 -10 85 l0 85 -40 0 c-22 0 -40 5 -40 10 0 6 23 10 50 10 l50 0 0
-95z m-272 35 c10 -17 23 -20 82 -20 59 0 72 3 82 20 8 12 24 20 40 20 l28 0
0 -72 0 -73 -39 -16 c-51 -22 -76 -61 -76 -119 0 -58 25 -98 76 -118 38 -15
39 -16 39 -64 l0 -48 -150 0 -150 0 0 255 0 255 28 0 c16 0 32 -8 40 -20z
m292 -165 c32 -17 60 -61 60 -95 0 -53 -57 -110 -110 -110 -34 0 -78 28 -95
60 -19 37 -19 63 0 100 28 54 90 73 145 45z"/>
<path d="M150 490 c0 -6 50 -10 130 -10 80 0 130 4 130 10 0 6 -50 10 -130 10
-80 0 -130 -4 -130 -10z"/>
<path d="M150 460 c0 -6 50 -10 130 -10 80 0 130 4 130 10 0 6 -50 10 -130 10
-80 0 -130 -4 -130 -10z"/>
<path d="M150 430 c0 -6 37 -10 90 -10 53 0 90 4 90 10 0 6 -37 10 -90 10 -53
0 -90 -4 -90 -10z"/>
<path d="M150 380 c0 -6 30 -10 70 -10 40 0 70 4 70 10 0 6 -30 10 -70 10 -40
0 -70 -4 -70 -10z"/>
<path d="M150 350 c0 -6 30 -10 70 -10 40 0 70 4 70 10 0 6 -30 10 -70 10 -40
0 -70 -4 -70 -10z"/>
<path d="M150 320 c0 -5 14 -10 30 -10 17 0 30 5 30 10 0 6 -13 10 -30 10 -16
0 -30 -4 -30 -10z"/>
<path d="M150 270 c0 -6 30 -10 70 -10 40 0 70 4 70 10 0 6 -30 10 -70 10 -40
0 -70 -4 -70 -10z"/>
<path d="M150 240 c0 -6 30 -10 70 -10 40 0 70 4 70 10 0 6 -30 10 -70 10 -40
0 -70 -4 -70 -10z"/>
<path d="M150 210 c0 -5 14 -10 30 -10 17 0 30 5 30 10 0 6 -13 10 -30 10 -16
0 -30 -4 -30 -10z"/>
<path d="M150 160 c0 -6 40 -10 100 -10 60 0 100 4 100 10 0 6 -40 10 -100 10
-60 0 -100 -4 -100 -10z"/>
<path d="M150 130 c0 -6 40 -10 100 -10 60 0 100 4 100 10 0 6 -40 10 -100 10
-60 0 -100 -4 -100 -10z"/>
<path d="M150 100 c0 -6 27 -10 60 -10 33 0 60 4 60 10 0 6 -27 10 -60 10 -33
0 -60 -4 -60 -10z"/>
<path d="M458 293 c-23 -22 -29 -24 -43 -13 -25 21 -31 2 -7 -22 l22 -22 35
34 c34 33 43 50 27 50 -4 0 -19 -12 -34 -27z"/>
</g>
</svg>
