<?xml version="1.0" encoding="iso-8859-1"?>
<!-- Generator: Adobe Illustrator 18.0.0, SVG Export Plug-In . SVG Version: 6.00 Build 0)  -->
<!DOCTYPE svg PUBLIC "-//W3C//DTD SVG 1.1//EN" "http://www.w3.org/Graphics/SVG/1.1/DTD/svg11.dtd">
<svg version="1.1" id="Capa_1" xmlns="http://www.w3.org/2000/svg" xmlns:xlink="http://www.w3.org/1999/xlink" x="0px" y="0px"
	 viewBox="0 0 57 57" style="enable-background:new 0 0 57 57;" xml:space="preserve">
<g>
	<path d="M30.5,57h24V33h-24V57z M32.5,35h9v12.586l-4.293-4.293l-1.414,1.414l6.707,6.707l6.707-6.707l-1.414-1.414L43.5,47.586V35
		h9v20h-20V35z"/>
	<path d="M43.324,0H13.676C6.962,0,1.5,5.462,1.5,12.176v29.648C1.5,48.538,6.962,54,13.676,54H27.5V42V30h28V12.176
		C55.5,5.462,50.038,0,43.324,0z M22.188,37.65l-6.857,7.999c-0.197,0.23-0.477,0.35-0.76,0.35c-0.209,0-0.42-0.065-0.6-0.2
		L9.4,42.37c-0.442-0.331-0.531-0.958-0.2-1.399c0.332-0.442,0.958-0.53,1.4-0.2l3.822,2.866l6.248-7.287
		c0.359-0.42,0.992-0.468,1.41-0.108C22.499,36.601,22.547,37.231,22.188,37.65z M22.188,22.65l-6.857,8
		c-0.197,0.23-0.477,0.35-0.76,0.35c-0.209,0-0.42-0.065-0.6-0.2L9.4,27.371c-0.442-0.331-0.531-0.958-0.2-1.399
		c0.332-0.442,0.958-0.531,1.4-0.2l3.822,2.866l6.248-7.288c0.359-0.42,0.992-0.468,1.41-0.108
		C22.499,21.601,22.547,22.231,22.188,22.65z M22.188,8.65l-6.857,8c-0.197,0.23-0.477,0.35-0.76,0.35c-0.209,0-0.42-0.065-0.6-0.2
		L9.4,13.371c-0.442-0.331-0.531-0.958-0.2-1.399c0.332-0.442,0.958-0.531,1.4-0.2l3.822,2.866l6.248-7.288
		c0.359-0.42,0.992-0.468,1.41-0.108C22.499,7.601,22.547,8.231,22.188,8.65z M46.5,28h-18c-0.552,0-1-0.447-1-1s0.448-1,1-1h18
		c0.552,0,1,0.447,1,1S47.052,28,46.5,28z M46.5,14h-18c-0.552,0-1-0.447-1-1s0.448-1,1-1h18c0.552,0,1,0.447,1,1S47.052,14,46.5,14
		z"/>
</g>
<g>
</g>
<g>
</g>
<g>
</g>
<g>
</g>
<g>
</g>
<g>
</g>
<g>
</g>
<g>
</g>
<g>
</g>
<g>
</g>
<g>
</g>
<g>
</g>
<g>
</g>
<g>
</g>
<g>
</g>
</svg>
