<?xml version="1.0" encoding="iso-8859-1"?>
<!-- Generator: Adobe Illustrator 19.0.0, SVG Export Plug-In . SVG Version: 6.00 Build 0)  -->
<svg version="1.1" id="Layer_1" xmlns="http://www.w3.org/2000/svg" xmlns:xlink="http://www.w3.org/1999/xlink" x="0px" y="0px"
	 viewBox="0 0 512 512" style="enable-background:new 0 0 512 512;" xml:space="preserve">
<g>
	<g>
		<g>
			<path d="M0,490.667C0,502.443,9.536,512,21.333,512h469.333c11.797,0,21.333-9.557,21.333-21.333v-320H0V490.667z M341.333,448
				h-42.667c-11.797,0-21.333-9.557-21.333-21.333s9.536-21.333,21.333-21.333h42.667c11.797,0,21.333,9.557,21.333,21.333
				S353.131,448,341.333,448z M426.667,384h-128c-11.797,0-21.333-9.557-21.333-21.333s9.536-21.333,21.333-21.333h128
				c11.797,0,21.333,9.557,21.333,21.333S438.464,384,426.667,384z M64,213.333C64,201.557,73.536,192,85.333,192h341.333
				c11.797,0,21.333,9.557,21.333,21.333v85.333c0,11.776-9.536,21.333-21.333,21.333H85.333C73.536,320,64,310.443,64,298.667
				V213.333z M85.333,341.333h128c11.797,0,21.333,9.557,21.333,21.333S225.131,384,213.333,384h-128
				C73.536,384,64,374.443,64,362.667S73.536,341.333,85.333,341.333z M85.333,405.333H128c11.797,0,21.333,9.557,21.333,21.333
				S139.797,448,128,448H85.333C73.536,448,64,438.443,64,426.667S73.536,405.333,85.333,405.333z"/>
			<rect x="106.667" y="234.667" width="298.667" height="42.667"/>
			<path d="M490.667,0H21.333C9.536,0,0,9.557,0,21.333V128h512V21.333C512,9.557,502.464,0,490.667,0z M85.333,106.667
				C73.557,106.667,64,97.109,64,85.333S73.557,64,85.333,64s21.333,9.557,21.333,21.333S97.109,106.667,85.333,106.667z
				 M149.333,106.667c-11.776,0-21.333-9.557-21.333-21.333S137.557,64,149.333,64s21.333,9.557,21.333,21.333
				S161.109,106.667,149.333,106.667z M213.333,106.667c-11.776,0-21.333-9.557-21.333-21.333S201.557,64,213.333,64
				s21.333,9.557,21.333,21.333S225.109,106.667,213.333,106.667z"/>
		</g>
	</g>
</g>
<g>
</g>
<g>
</g>
<g>
</g>
<g>
</g>
<g>
</g>
<g>
</g>
<g>
</g>
<g>
</g>
<g>
</g>
<g>
</g>
<g>
</g>
<g>
</g>
<g>
</g>
<g>
</g>
<g>
</g>
</svg>
