<svg width="131" height="41" viewBox="0 0 131 41" fill="none" xmlns="http://www.w3.org/2000/svg">
<mask id="mask0_1002_4894" style="mask-type:alpha" maskUnits="userSpaceOnUse" x="0" y="0" width="131" height="41">
<rect width="130.156" height="41" fill="white"/>
</mask>
<g mask="url(#mask0_1002_4894)">
<path d="M104.723 27.5034L95.9667 19.5752L94.3984 11.0371L104.723 16.0467V27.5034Z" fill="#CDC400"/>
<path d="M105.418 27.5474L116.483 18.4866L117.964 9.42578L105.418 16.0907V27.5474Z" fill="#043F85"/>
<path d="M104.897 6.81201L118.27 4.98242L118.793 6.41996L104.897 12.3008L94.3112 10.7761L93.832 9.46928L104.897 6.81201Z" fill="#5E99C4"/>
<path d="M60.8992 14.565C60.0715 14.565 59.4616 15.0878 59.1567 15.8719L52.8403 32.861C52.7531 33.0788 52.4918 33.0788 52.4046 32.861L45.9575 15.7412C45.6961 15.0878 45.0863 14.5215 44.3457 14.5215C43.0389 14.5215 42.1677 15.6977 42.6468 16.9174L49.3553 33.9936C50.0088 35.6925 51.1414 36.5637 52.5789 36.5637C54.1036 36.5637 55.2362 35.6925 55.9331 33.95L62.511 16.9609C62.9901 15.7848 62.1625 14.565 60.8992 14.565Z" fill="#5E99C4"/>
<path d="M69.6105 8.68583C69.6105 7.72747 68.7829 6.94336 67.8245 6.94336C66.8226 6.94336 66.082 7.72747 66.082 8.68583V34.7357C66.082 35.7376 66.8661 36.4782 67.8245 36.4782C68.87 36.4782 69.6105 35.7376 69.6105 34.7357V20.6653C70.9609 18.9228 73.4004 17.4853 75.9705 17.4853C79.4119 17.4853 81.2851 19.5763 81.2851 23.0176V34.7357C81.2851 35.7376 82.0692 36.4782 83.0275 36.4782C84.0294 36.4782 84.8136 35.7376 84.8136 34.7357V22.7127C84.8136 17.1804 81.3722 14.3053 76.3626 14.3053C73.6618 14.3053 71.0481 15.525 69.6105 17.0497V8.68583Z" fill="#5E99C4"/>
<path d="M25.3974 24.1061C25.2667 19.9677 27.3577 17.354 31.5832 17.354C35.2859 17.354 37.6382 19.8806 37.3769 23.6269C37.3333 23.9754 37.1591 24.1061 36.8106 24.1061H25.3974ZM40.8182 23.2784C40.8182 18.051 37.2462 14.3047 31.5832 14.3047C26.3122 14.3047 22.5659 17.5283 22.0867 22.8428C21.956 24.1061 21.956 26.2406 22.0431 27.8088C22.3481 33.0798 25.8766 36.6954 31.801 36.6954C34.2404 36.6954 37.2462 36.1727 38.6402 35.3885C39.3807 34.9529 39.5985 34.4302 39.5985 33.9075C39.5985 32.9491 38.6402 31.9907 37.1155 32.6006C35.1988 33.254 33.4127 33.6896 31.8445 33.6896C28.0547 33.6896 25.441 31.5116 25.441 27.6346V26.9811H38.2917C40.0777 26.9811 40.8182 26.0228 40.8182 24.5852V23.2784Z" fill="#CDC400"/>
<path d="M15.1595 28.1143C14.811 31.6864 12.8507 33.5596 9.10439 33.5596C7.01343 33.5596 4.35617 32.5576 3.44137 31.8607V18.8793C4.48685 18.313 6.96987 17.4417 9.49645 17.4417C13.1992 17.4417 14.8981 19.3149 15.1159 22.7127C15.2466 23.9324 15.2902 26.6768 15.1595 28.1143ZM18.688 22.4949C18.2524 17.3546 15.1159 14.3053 9.6707 14.3053C7.31836 14.3053 5.0096 14.9587 3.48494 15.6121V8.68583C3.48494 7.72747 2.65726 6.94336 1.74247 6.94336C0.740549 6.94336 0 7.72747 0 8.68583V32.8626C0 33.4289 0.0871227 33.8209 0.696987 34.213C1.78603 34.91 5.35809 36.696 9.23508 36.696C14.9417 36.696 18.2959 33.4289 18.7315 28.3322C18.8187 26.8511 18.8187 24.0195 18.688 22.4949Z" fill="#5E99C4"/>
</g>
</svg>
