<svg width="242" height="66" viewBox="0 0 242 66" fill="none" xmlns="http://www.w3.org/2000/svg">
<path d="M212.964 46.2081L195.158 30.0851L191.969 12.7219L212.964 22.9095V46.2081Z" fill="#CDC400"/>
<path d="M214.382 46.2967L236.884 27.8704L239.896 9.44421L214.382 22.9981V46.2967Z" fill="#043F85"/>
<path d="M213.319 4.12901L240.516 0.408325L241.579 3.33172L213.319 15.2911L191.792 12.1905L190.818 9.53286L213.319 4.12901Z" fill="#5E99C4"/>
<path d="M123.846 19.8977C122.162 19.8977 120.922 20.9607 120.302 22.5553L107.457 57.1045C107.28 57.5474 106.748 57.5474 106.571 57.1045L93.46 22.2895C92.9285 20.9607 91.6882 19.8091 90.1822 19.8091C87.5246 19.8091 85.7529 22.2009 86.7273 24.6814L100.37 59.4078C101.699 62.8627 104.002 64.6344 106.925 64.6344C110.026 64.6344 112.329 62.8627 113.747 59.3192L127.123 24.77C128.098 22.3781 126.415 19.8977 123.846 19.8977Z" fill="#5E99C4"/>
<path d="M141.563 7.93828C141.563 5.98935 139.88 4.39478 137.931 4.39478C135.894 4.39478 134.388 5.98935 134.388 7.93828V60.9137C134.388 62.9512 135.982 64.4572 137.931 64.4572C140.057 64.4572 141.563 62.9512 141.563 60.9137V32.2999C144.31 28.7564 149.27 25.833 154.497 25.833C161.496 25.833 165.305 30.0852 165.305 37.0836V60.9137C165.305 62.9512 166.899 64.4572 168.848 64.4572C170.886 64.4572 172.48 62.9512 172.48 60.9137V36.4635C172.48 25.2129 165.482 19.3661 155.294 19.3661C149.802 19.3661 144.487 21.8465 141.563 24.9471V7.93828V7.93828Z" fill="#5E99C4"/>
<path d="M51.6469 39.2983C51.3811 30.8825 55.6333 25.5672 64.2263 25.5672C71.7563 25.5672 76.54 30.7053 76.0085 38.3238C75.9199 39.0325 75.5655 39.2983 74.8568 39.2983H51.6469ZM83.0069 37.6151C83.0069 26.9846 75.7427 19.3661 64.2263 19.3661C53.5072 19.3661 45.8887 25.9216 44.9142 36.7293C44.6485 39.2983 44.6485 43.6391 44.8256 46.8283C45.4457 57.5474 52.6213 64.9001 64.6693 64.9001C69.6302 64.9001 75.7427 63.8371 78.5775 62.2425C80.0835 61.3566 80.5265 60.2936 80.5265 59.2305C80.5265 57.2816 78.5775 55.3327 75.477 56.5729C71.5791 57.9017 67.947 58.7876 64.7579 58.7876C57.0507 58.7876 51.7355 54.3582 51.7355 46.4739V45.1451H77.8688C81.5009 45.1451 83.0069 43.1962 83.0069 40.2728V37.6151V37.6151Z" fill="#CDC400"/>
<path d="M30.8285 47.4484C30.1198 54.7126 26.1334 58.5218 18.5148 58.5218C14.2626 58.5218 8.85876 56.4843 6.99842 55.0669V28.6678C9.12453 27.5162 14.174 25.7444 19.3121 25.7444C26.8421 25.7444 30.297 29.5537 30.7399 36.4635C31.0057 38.944 31.0943 44.525 30.8285 47.4484ZM38.0041 36.0206C37.1182 25.5672 30.7399 19.3661 19.6665 19.3661C14.8827 19.3661 10.1876 20.6949 7.08701 22.0237V7.93828C7.08701 5.98935 5.40385 4.39478 3.54351 4.39478C1.50599 4.39478 0 5.98935 0 7.93828V57.1044C0 58.2561 0.177174 59.0534 1.4174 59.8506C3.63209 61.268 10.8963 64.9001 18.7806 64.9001C30.3856 64.9001 37.2068 58.2561 38.0927 47.8913C38.2699 44.8793 38.2699 39.1211 38.0041 36.0206Z" fill="#5E99C4"/>
</svg>
