<svg width="90" height="80" viewBox="0 0 90 80" fill="none" xmlns="http://www.w3.org/2000/svg">
<path fill-rule="evenodd" clip-rule="evenodd" d="M22.0434 49.2764V64.5652C22.0434 67.7333 24.6112 70.2986 27.7825 70.2986H31.6086V74.1208H27.7825C22.4981 74.1208 18.2173 69.8443 18.2173 64.5652V49.2764H22.0434Z" fill="#043F85"/>
<path fill-rule="evenodd" clip-rule="evenodd" d="M67.9563 64.5652V49.2764H71.7824V64.5652C71.7824 69.8443 67.5016 74.1208 62.2172 74.1208H58.3911V70.2986H62.2172C65.3885 70.2986 67.9563 67.7333 67.9563 64.5652Z" fill="#043F85"/>
<path fill-rule="evenodd" clip-rule="evenodd" d="M18.7777 47.926C19.5247 47.1796 20.736 47.1796 21.4831 47.926L29.1353 55.5704L26.4298 58.2731L20.1304 51.98L13.8309 58.2731L11.1255 55.5704L18.7777 47.926Z" fill="#043F85"/>
<path fill-rule="evenodd" clip-rule="evenodd" d="M68.5169 47.926C69.264 47.1796 70.4753 47.1796 71.2224 47.926L78.8745 55.5704L76.1691 58.2731L69.8696 51.98L63.5702 58.2731L60.8647 55.5704L68.5169 47.926Z" fill="#043F85"/>
<path fill-rule="evenodd" clip-rule="evenodd" d="M10.5654 16.7879C10.5654 10.2924 15.6623 5.32129 22.0437 5.32129C28.425 5.32129 33.5219 10.2924 33.5219 16.7879V20.6102C33.5219 27.1057 28.425 32.0768 22.0437 32.0768C15.6623 32.0768 10.5654 27.1057 10.5654 20.6102V16.7879ZM22.0437 9.14351C17.7503 9.14351 14.3915 12.4284 14.3915 16.7879V20.6102C14.3915 24.9697 17.7503 28.2546 22.0437 28.2546C26.3371 28.2546 29.6959 24.9697 29.6959 20.6102V16.7879C29.6959 12.4284 26.3371 9.14351 22.0437 9.14351Z" fill="#043F85"/>
<path fill-rule="evenodd" clip-rule="evenodd" d="M56.4785 16.7879C56.4785 10.2924 61.5754 5.32129 67.9568 5.32129C74.3381 5.32129 79.435 10.2924 79.435 16.7879V20.6102C79.435 27.1057 74.3381 32.0768 67.9568 32.0768C61.5754 32.0768 56.4785 27.1057 56.4785 20.6102V16.7879ZM67.9568 9.14351C63.6634 9.14351 60.3046 12.4284 60.3046 16.7879V20.6102C60.3046 24.9697 63.6634 28.2546 67.9568 28.2546C72.2502 28.2546 75.6089 24.9697 75.6089 20.6102V16.7879C75.6089 12.4284 72.2502 9.14351 67.9568 9.14351Z" fill="#043F85"/>
<path fill-rule="evenodd" clip-rule="evenodd" d="M55.3743 35.9351C59.5494 34.6135 64.5288 33.9873 67.9566 33.9873C71.3843 33.9873 76.3637 34.6135 80.5388 35.9351C82.6191 36.5936 84.6298 37.4647 86.1597 38.6099C87.6797 39.7477 89 41.3786 89 43.5429V53.0984H85.1739V43.5429C85.1739 43.0889 84.916 42.4551 83.8654 41.6687C82.8246 40.8896 81.2723 40.1768 79.383 39.5788C75.619 38.3873 71.0332 37.8095 67.9566 37.8095C64.88 37.8095 60.2942 38.3873 56.5301 39.5788C54.6408 40.1768 53.0885 40.8896 52.0477 41.6687C50.9971 42.4551 50.7392 43.0889 50.7392 43.5429V53.0984H46.9131V43.5429C46.9131 41.3786 48.2334 39.7477 49.7534 38.6099C51.2833 37.4647 53.294 36.5936 55.3743 35.9351Z" fill="#043F85"/>
<path fill-rule="evenodd" clip-rule="evenodd" d="M9.46126 35.9351C13.6363 34.6135 18.6157 33.9873 22.0435 33.9873C25.4712 33.9873 30.4506 34.6135 34.6257 35.9351C36.706 36.5936 38.7167 37.4647 40.2466 38.6099C41.7666 39.7477 43.0869 41.3786 43.0869 43.5429V53.0984H39.2608V43.5429C39.2608 43.0889 39.0029 42.4551 37.9523 41.6687C36.9115 40.8896 35.3592 40.1768 33.4699 39.5788C29.7059 38.3873 25.1201 37.8095 22.0435 37.8095C18.9669 37.8095 14.3811 38.3873 10.617 39.5788C8.72774 40.1768 7.17544 40.8896 6.13464 41.6687C5.08404 42.4551 4.82609 43.0889 4.82609 43.5429V53.0984H1V43.5429C1 41.3786 2.32031 39.7477 3.84036 38.6099C5.37021 37.4647 7.38095 36.5936 9.46126 35.9351Z" fill="#043F85"/>
<path fill-rule="evenodd" clip-rule="evenodd" d="M46.913 74.122H43.0869V70.2998H46.913V74.122Z" fill="#043F85"/>
<path fill-rule="evenodd" clip-rule="evenodd" d="M39.2607 74.122H35.4346V70.2998H39.2607V74.122Z" fill="#043F85"/>
<path fill-rule="evenodd" clip-rule="evenodd" d="M54.5653 74.122H50.7393V70.2998H54.5653V74.122Z" fill="#043F85"/>
</svg>
