<svg width="74" height="68" viewBox="0 0 74 68" fill="none" xmlns="http://www.w3.org/2000/svg">
<path fill-rule="evenodd" clip-rule="evenodd" d="M37.3012 31.0293C37.9505 31.0293 38.5364 31.4167 38.7872 32.0118L43.4919 43.1798L55.2693 43.9324C55.9132 43.9735 56.4703 44.3924 56.685 44.997C56.8997 45.6015 56.7307 46.275 56.2554 46.7085L47.3132 54.8649L49.9055 66.0403C50.0486 66.6572 49.8123 67.2999 49.3026 67.6798C48.793 68.0598 48.1058 68.1056 47.5496 67.7966L37.3006 62.1032L27.0357 67.7971C26.4792 68.1058 25.7918 68.0595 25.2824 67.6789C24.773 67.2984 24.5373 66.6552 24.6812 66.0383L27.2881 54.8639L18.347 46.7085C17.8717 46.275 17.7026 45.6015 17.9173 44.997C18.132 44.3924 18.6891 43.9735 19.333 43.9324L31.1105 43.1798L35.8152 32.0118C36.0659 31.4167 36.6518 31.0293 37.3012 31.0293ZM37.3012 36.7751L33.6967 45.3312C33.4605 45.8921 32.9248 46.2715 32.3141 46.3105L23.3056 46.8861L30.1589 53.1372C30.5866 53.5272 30.7699 54.1157 30.6388 54.6775L28.6411 63.2406L36.5159 58.8725C37.0043 58.6016 37.5991 58.6017 38.0873 58.8729L45.9499 63.2407L43.9631 54.6756C43.8329 54.1143 44.0163 53.5267 44.4434 53.1372L51.2967 46.8861L42.2882 46.3105C41.6775 46.2715 41.1419 45.8921 40.9056 45.3312L37.3012 36.7751Z" fill="#043F85"/>
<path fill-rule="evenodd" clip-rule="evenodd" d="M56.7781 27.7285C57.4321 27.7285 58.022 28.115 58.274 28.7086L62.1174 37.7606L71.7639 38.3671C72.4122 38.4079 72.9731 38.8253 73.1893 39.4279C73.4054 40.0304 73.235 40.7016 72.7563 41.1335L65.4275 47.7447L67.5499 56.8051C67.694 57.4201 67.4557 58.0607 66.9423 58.4392C66.4288 58.8176 65.7367 58.8625 65.1771 58.5538L56.7785 53.921L52.4327 56.3211L50.8452 53.5405L55.9843 50.7023C56.477 50.4302 57.0782 50.43 57.5711 50.7019L63.5678 54.0098L62.0559 47.5555C61.9248 46.996 62.1097 46.4104 62.5399 46.0224L67.7625 41.3111L60.9059 40.88C60.2906 40.8413 59.7509 40.4627 59.5134 39.9031L56.7781 33.4608L54.0428 39.9031C53.8054 40.4622 53.2664 40.8406 52.6518 40.8799L48.4043 41.1509L48.1943 37.9686L51.4383 37.7616L55.2821 28.7086C55.5341 28.115 56.1241 27.7285 56.7781 27.7285Z" fill="#043F85"/>
<path fill-rule="evenodd" clip-rule="evenodd" d="M16.4981 27.7285C17.1525 27.7285 17.7429 28.115 17.995 28.7086L21.8413 37.7616L25.0874 37.9686L24.8773 41.1509L20.6271 40.8799C20.012 40.8406 19.4727 40.4622 19.2352 39.9031L16.4981 33.4608L13.761 39.9031C13.5233 40.4626 12.9833 40.8412 12.3677 40.8799L5.52239 41.3107L10.7488 46.0224C11.1799 46.411 11.3648 46.9977 11.2326 47.5578L9.71054 54.0062L15.7046 50.7019C16.1977 50.43 16.7993 50.4302 17.2924 50.7023L22.4348 53.5405L20.8463 56.3211L16.4976 53.921L8.09361 58.5538C7.53325 58.8628 6.8402 58.8175 6.32633 58.4384C5.81247 58.0594 5.57462 57.4179 5.71982 56.8028L7.85809 47.7436L0.525781 41.1335C0.0467477 40.7016 -0.12378 40.0304 0.0924622 39.4279C0.308705 38.8254 0.869961 38.408 1.51864 38.3671L11.1553 37.7607L15.0012 28.7086C15.2533 28.115 15.8437 27.7285 16.4981 27.7285Z" fill="#043F85"/>
<path fill-rule="evenodd" clip-rule="evenodd" d="M29.0424 20.6102C31.4068 19.3853 34.4703 18.4854 37.301 18.4854C40.1317 18.4854 43.1953 19.3853 45.5597 20.6102C46.7453 21.2243 47.8284 21.9576 48.641 22.769C49.4055 23.5326 50.1748 24.6124 50.1748 25.9125V34.9902H46.9564V25.9125C46.9564 25.9196 46.9563 25.9192 46.954 25.9114C46.9417 25.8686 46.8657 25.6034 46.3957 25.1341C45.8882 24.6272 45.1057 24.0731 44.1087 23.5566C42.1081 22.5203 39.5394 21.7863 37.301 21.7863C35.0627 21.7863 32.4939 22.5203 30.4933 23.5566C29.4964 24.0731 28.7139 24.6272 28.2064 25.1341C27.7364 25.6034 27.6603 25.8686 27.648 25.9114C27.6458 25.9192 27.6457 25.9196 27.6457 25.9125V34.9902H24.4272V25.9125C24.4272 24.6124 25.1965 23.5326 25.9611 22.769C26.7736 21.9576 27.8568 21.2243 29.0424 20.6102Z" fill="#043F85"/>
<path fill-rule="evenodd" clip-rule="evenodd" d="M31.695 1.81701C33.2106 0.683733 35.222 0 37.301 0C39.38 0 41.3914 0.683733 42.907 1.81701C44.4209 2.94899 45.5534 4.62861 45.5534 6.61635V10.5487C45.5534 12.5364 44.4209 14.2161 42.907 15.348C41.3914 16.4813 39.38 17.165 37.301 17.165C35.222 17.165 33.2106 16.4813 31.695 15.348C30.1812 14.2161 29.0486 12.5364 29.0486 10.5487V6.61635C29.0486 4.62861 30.1812 2.94899 31.695 1.81701ZM33.7427 4.26488C32.8097 4.96254 32.3496 5.81086 32.3496 6.61635V10.5487C32.3496 11.3542 32.8097 12.2025 33.7427 12.9002C34.674 13.5965 35.9635 14.0441 37.301 14.0441C38.6385 14.0441 39.9281 13.5965 40.8593 12.9002C41.7923 12.2025 42.2525 11.3542 42.2525 10.5487V6.61635C42.2525 5.81086 41.7923 4.96254 40.8593 4.26488C39.9281 3.56852 38.6385 3.12092 37.301 3.12092C35.9635 3.12092 34.674 3.56852 33.7427 4.26488Z" fill="#043F85"/>
</svg>
