<svg width="78" height="69" viewBox="0 0 78 69" fill="none" xmlns="http://www.w3.org/2000/svg">
<path fill-rule="evenodd" clip-rule="evenodd" d="M0 16.5107H78V68.321H0V16.5107ZM3.25 19.7489V65.0828H74.75V19.7489H3.25Z" fill="#043F85"/>
<path fill-rule="evenodd" clip-rule="evenodd" d="M5.12402 7.9707H72.8759V14.8028H69.6496V11.3868H8.3503V14.8028H5.12402V7.9707Z" fill="#043F85"/>
<path fill-rule="evenodd" clip-rule="evenodd" d="M9.67871 0H68.321V6.26277H65.0631V3.13139H12.9366V6.26277H9.67871V0Z" fill="#043F85"/>
<path fill-rule="evenodd" clip-rule="evenodd" d="M67 40H39V37H67V40Z" fill="#043F85"/>
<path fill-rule="evenodd" clip-rule="evenodd" d="M67 32H39V29H67V32Z" fill="#043F85"/>
<path fill-rule="evenodd" clip-rule="evenodd" d="M14.559 44.8722C16.5104 43.896 19.0388 43.1787 21.375 43.1787C23.7112 43.1787 26.2396 43.896 28.191 44.8722C29.1695 45.3617 30.0634 45.9461 30.7341 46.5929C31.3651 47.2015 32 48.0621 32 49.0983V56.3335H29.3437V49.0983C29.3437 49.104 29.3436 49.1036 29.3418 49.0974C29.3316 49.0633 29.2689 48.852 28.881 48.4779C28.4621 48.0739 27.8163 47.6323 26.9935 47.2207C25.3424 46.3947 23.2223 45.8097 21.375 45.8097C19.5276 45.8097 17.4076 46.3947 15.7565 47.2207C14.9337 47.6323 14.2878 48.0739 13.869 48.4779C13.4811 48.852 13.4183 49.0633 13.4082 49.0974C13.4063 49.1036 13.4062 49.104 13.4062 49.0983V56.3335H10.75V49.0983C10.75 48.0621 11.3849 47.2015 12.0159 46.5929C12.6865 45.9461 13.5805 45.3617 14.559 44.8722Z" fill="#043F85"/>
<path fill-rule="evenodd" clip-rule="evenodd" d="M16.9069 29.4996C18.1148 28.5643 19.718 28 21.375 28C23.032 28 24.6351 28.5643 25.8431 29.4996C27.0497 30.4339 27.9524 31.8201 27.9524 33.4606V36.706C27.9524 38.3466 27.0497 39.7328 25.8431 40.667C24.6351 41.6023 23.032 42.1666 21.375 42.1666C19.718 42.1666 18.1148 41.6023 16.9069 40.667C15.7003 39.7328 14.7976 38.3466 14.7976 36.706V33.4606C14.7976 31.8201 15.7003 30.4339 16.9069 29.4996ZM18.5389 31.5199C17.7953 32.0957 17.4286 32.7958 17.4286 33.4606V36.706C17.4286 37.3708 17.7953 38.071 18.5389 38.6468C19.2812 39.2215 20.309 39.5909 21.375 39.5909C22.441 39.5909 23.4688 39.2215 24.211 38.6468C24.9547 38.071 25.3214 37.3708 25.3214 36.706V33.4606C25.3214 32.7958 24.9547 32.0957 24.211 31.5199C23.4688 30.9452 22.441 30.5758 21.375 30.5758C20.309 30.5758 19.2812 30.9452 18.5389 31.5199Z" fill="#043F85"/>
<path fill-rule="evenodd" clip-rule="evenodd" d="M67 48H39V45H67V48Z" fill="#043F85"/>
<path fill-rule="evenodd" clip-rule="evenodd" d="M67 56H39V53H67V56Z" fill="#043F85"/>
</svg>
