<svg width="378" height="79" viewBox="0 0 378 79" fill="none" xmlns="http://www.w3.org/2000/svg">
<mask id="mask0_6632_26160" style="mask-type:luminance" maskUnits="userSpaceOnUse" x="291" y="9" width="81" height="59">
<path d="M372 9H291V67.9H372V9Z" fill="white"/>
</mask>
<g mask="url(#mask0_6632_26160)">
<mask id="mask1_6632_26160" style="mask-type:luminance" maskUnits="userSpaceOnUse" x="291" y="9" width="81" height="59">
<path d="M372 9H291V67.9H372V9Z" fill="white"/>
</mask>
<g mask="url(#mask1_6632_26160)">
<path d="M330.4 11.4004H317.5C316 11.4004 314.7 11.8004 314.7 12.2004V67.1004C314.7 67.5004 315.9 67.9004 317.5 67.9004H330.4C331.9 67.9004 333.2 67.5004 333.2 67.1004V12.2004C333.2 11.8004 332 11.4004 330.4 11.4004ZM331.4 61.2004L331.2 61.5004H317.4L317.2 61.2004V59.7004L317.4 59.4004H331.2L331.4 59.7004V61.2004ZM331.4 27.7004L331.2 28.0004H317.4L317.2 27.7004V26.2004L317.4 25.9004H331.2L331.4 26.2004V27.7004ZM331.4 21.0004L331.2 21.3004H317.4L317.2 21.0004V19.5004L317.4 19.2004H331.2L331.4 19.5004V21.0004Z" fill="#023F86"/>
</g>
<mask id="mask2_6632_26160" style="mask-type:luminance" maskUnits="userSpaceOnUse" x="291" y="9" width="81" height="59">
<path d="M372 9H291V67.9H372V9Z" fill="white"/>
</mask>
<g mask="url(#mask2_6632_26160)">
<path d="M306.7 11.4004H293.8C292.3 11.4004 291 11.8004 291 12.2004V67.1004C291 67.5004 292.2 67.9004 293.8 67.9004H306.7C308.2 67.9004 309.5 67.5004 309.5 67.1004V12.2004C309.4 11.8004 308.2 11.4004 306.7 11.4004ZM307.7 61.2004L307.5 61.5004H293.7L293.5 61.2004V59.7004L293.7 59.4004H307.5L307.7 59.7004V61.2004ZM307.7 27.7004L307.5 28.0004H293.7L293.5 27.7004V26.2004L293.7 25.9004H307.5L307.7 26.2004V27.7004ZM307.7 21.0004L307.5 21.3004H293.7L293.5 21.0004V19.5004L293.7 19.2004H307.5L307.7 19.5004V21.0004Z" fill="#CDC400"/>
</g>
<mask id="mask3_6632_26160" style="mask-type:luminance" maskUnits="userSpaceOnUse" x="291" y="9" width="81" height="59">
<path d="M372 9H291V67.9H372V9Z" fill="white"/>
</mask>
<g mask="url(#mask3_6632_26160)">
<path d="M372 59.9009L351 9.20094C350.8 8.80094 349.6 8.90094 348.1 9.50094L336.2 14.5009C334.8 15.1009 333.8 15.9009 333.9 16.3009L354.9 67.0009C355.1 67.4009 356.3 67.3009 357.8 66.7009L369.7 61.7009C371.1 61.1009 372.2 60.3009 372 59.9009ZM339.5 23.5009L338.9 22.1009L339 21.7009L351.8 16.4009L352.1 16.6009L352.7 18.0009L352.6 18.4009L339.8 23.7009L339.5 23.5009ZM342.1 29.6009L341.5 28.2009L341.6 27.8009L354.4 22.5009L354.7 22.7009L355.3 24.1009L355.2 24.5009L342.4 29.8009L342.1 29.6009ZM368 55.5009L355.2 60.8009L354.9 60.6009L354.3 59.2009L354.4 58.8009L367.2 53.5009L367.5 53.7009L368.1 55.1009L368 55.5009Z" fill="#5E99C5"/>
</g>
</g>
<path d="M29.7002 33.4H26.2002V22H13.7002V33.4H10.2002V7.5H13.7002V19.2H26.2002V7.5H29.7002V33.4Z" fill="#5E99C5"/>
<path d="M34.6001 23.5988C34.6001 20.7988 35.4001 18.3988 36.9001 16.5988C38.4001 14.7988 40.5001 13.7988 43.2001 13.7988C45.9001 13.7988 48.0001 14.6988 49.5001 16.5988C51.0001 18.3988 51.8001 20.7988 51.8001 23.5988V23.9988C51.8001 26.8988 51.0001 29.1988 49.5001 30.9988C48.0001 32.7988 45.9001 33.6988 43.2001 33.6988C40.5001 33.6988 38.5001 32.7988 37.0001 30.9988C35.5001 29.1988 34.7001 26.7988 34.7001 23.9988V23.5988H34.6001ZM38.1001 23.9988C38.1001 25.9988 38.5001 27.6988 39.4001 28.9988C40.3001 30.2988 41.5001 30.9988 43.2001 30.9988C44.9001 30.9988 46.1001 30.2988 47.0001 28.9988C47.9001 27.6988 48.3001 25.9988 48.3001 23.9988V23.5988C48.3001 21.5988 47.9001 19.8988 47.0001 18.5988C46.1001 17.2988 44.9001 16.5988 43.2001 16.5988C41.5001 16.5988 40.3001 17.2988 39.4001 18.5988C38.5001 19.8988 38.1001 21.5988 38.1001 23.5988V23.9988Z" fill="#5E99C5"/>
<path d="M63.9002 30.9984C65.1002 30.9984 66.1002 30.5984 67.0002 29.8984C67.9002 29.1984 68.3002 28.2984 68.3002 27.2984H71.4002V27.3984C71.5002 29.0984 70.7002 30.4984 69.2002 31.7984C67.7002 33.0984 65.9002 33.6984 63.8002 33.6984C61.0002 33.6984 58.9002 32.7984 57.4002 30.9984C55.9002 29.1984 55.2002 26.8984 55.2002 24.0984V23.3984C55.2002 20.6984 55.9002 18.3984 57.4002 16.5984C58.9002 14.7984 61.0002 13.8984 63.8002 13.8984C66.0002 13.8984 67.9002 14.5984 69.3002 15.8984C70.7002 17.1984 71.4002 18.8984 71.4002 20.7984V20.8984H68.2002C68.2002 19.6984 67.8002 18.6984 67.0002 17.8984C66.2002 17.0984 65.1002 16.6984 63.9002 16.6984C62.1002 16.6984 60.8002 17.3984 60.0002 18.6984C59.2002 19.9984 58.8002 21.5984 58.8002 23.4984V24.1984C58.8002 26.1984 59.2002 27.7984 60.0002 29.0984C60.8002 30.3984 62.1002 30.9984 63.9002 30.9984Z" fill="#5E99C5"/>
<path d="M78.9 16.7992C79.6 15.8992 80.4 15.1992 81.3 14.5992C82.2 13.9992 83.3 13.7992 84.5 13.7992C86.5 13.7992 88.1 14.3992 89.3 15.5992C90.4 16.7992 91 18.6992 91 21.2992V33.2992H87.5V21.2992C87.5 19.6992 87.2 18.4992 86.5 17.7992C85.8 16.9992 84.8 16.6992 83.5 16.6992C82.5 16.6992 81.7 16.8992 80.9 17.3992C80.1 17.8992 79.5 18.4992 79 19.2992V33.4992H75.5V5.69922H79V16.7992H78.9Z" fill="#5E99C5"/>
<path d="M107.2 28.2984C107.2 27.4984 106.9 26.8984 106.3 26.3984C105.7 25.8984 104.6 25.4984 103 25.0984C100.7 24.5984 98.9004 23.8984 97.7004 22.9984C96.6004 22.0984 96.0004 20.9984 96.0004 19.4984C96.0004 17.8984 96.7004 16.5984 98.0004 15.4984C99.3004 14.3984 101.1 13.8984 103.2 13.8984C105.4 13.8984 107.2 14.4984 108.5 15.5984C109.8 16.6984 110.4 18.0984 110.4 19.7984V19.8984H107C107 19.0984 106.6 18.2984 105.9 17.5984C105.2 16.8984 104.3 16.5984 103.1 16.5984C101.9 16.5984 100.9 16.8984 100.3 17.3984C99.7004 17.8984 99.4004 18.5984 99.4004 19.3984C99.4004 20.1984 99.7004 20.7984 100.2 21.1984C100.7 21.5984 101.8 21.9984 103.4 22.3984C105.8 22.8984 107.6 23.5984 108.8 24.4984C110 25.3984 110.6 26.5984 110.6 28.0984C110.6 29.7984 109.9 31.1984 108.5 32.1984C107.1 33.2984 105.3 33.7984 103.1 33.7984C100.7 33.7984 98.7004 33.1984 97.3004 31.8984C95.9004 30.5984 95.2004 29.1984 95.3004 27.5984V27.4984H98.6004C98.7004 28.6984 99.1004 29.5984 100 30.1984C100.9 30.7984 101.9 31.0984 103 31.0984C104.2 31.0984 105.2 30.7984 105.9 30.2984C106.6 29.7984 107.2 29.0984 107.2 28.2984Z" fill="#5E99C5"/>
<path d="M122.9 30.9984C124.1 30.9984 125.1 30.5984 126 29.8984C126.9 29.1984 127.3 28.2984 127.3 27.2984H130.4V27.3984C130.5 29.0984 129.7 30.4984 128.2 31.7984C126.7 33.0984 124.9 33.6984 122.8 33.6984C120 33.6984 117.9 32.7984 116.4 30.9984C114.9 29.1984 114.2 26.8984 114.2 24.0984V23.3984C114.2 20.6984 114.9 18.3984 116.4 16.5984C117.9 14.7984 120 13.8984 122.8 13.8984C125 13.8984 126.9 14.5984 128.3 15.8984C129.7 17.1984 130.4 18.8984 130.4 20.7984V20.8984H127.2C127.2 19.6984 126.8 18.6984 126 17.8984C125.2 17.0984 124.1 16.6984 122.9 16.6984C121.1 16.6984 119.8 17.3984 119 18.6984C118.2 19.9984 117.8 21.5984 117.8 23.4984V24.1984C117.8 26.1984 118.2 27.7984 119 29.0984C119.7 30.3984 121 30.9984 122.9 30.9984Z" fill="#5E99C5"/>
<path d="M137.9 16.7992C138.6 15.8992 139.4 15.1992 140.3 14.5992C141.3 14.0992 142.3 13.7992 143.5 13.7992C145.5 13.7992 147.1 14.3992 148.3 15.5992C149.5 16.7992 150 18.6992 150 21.2992V33.2992H146.5V21.2992C146.5 19.6992 146.2 18.4992 145.5 17.7992C144.8 16.9992 143.8 16.6992 142.5 16.6992C141.5 16.6992 140.7 16.8992 139.9 17.3992C139.1 17.8992 138.5 18.4992 138 19.2992V33.4992H134.5V5.69922H138V16.7992H137.9Z" fill="#5E99C5"/>
<path d="M167.2 30.4992C166.6 31.4992 165.8 32.2992 164.9 32.8992C164 33.4992 162.9 33.6992 161.6 33.6992C159.5 33.6992 157.9 32.9992 156.7 31.6992C155.5 30.3992 154.9 28.2992 154.9 25.4992V14.1992H158.4V25.5992C158.4 27.5992 158.7 29.0992 159.3 29.7992C159.9 30.5992 160.8 30.9992 162.1 30.9992C163.3 30.9992 164.4 30.6992 165.2 30.1992C166 29.6992 166.6 28.9992 167 28.0992V14.1992H170.5V33.3992H167.4L167.2 30.4992Z" fill="#5E99C5"/>
<path d="M179.5 33.3992H176V5.69922H179.5V33.3992Z" fill="#5E99C5"/>
<path d="M196.6 33.4C196.5 32.8 196.4 32.3 196.3 31.9C196.2 31.5 196.2 31 196.2 30.6C195.5 31.5 194.7 32.3 193.7 32.9C192.7 33.5 191.5 33.8 190.3 33.8C188.3 33.8 186.8 33.3 185.7 32.3C184.7 31.3 184.1 29.9 184.1 28.1C184.1 26.3 184.8 24.8 186.3 23.8C187.8 22.8 189.8 22.2 192.3 22.2H196.1V20.3C196.1 19.2 195.8 18.3 195.1 17.6C194.4 16.9 193.4 16.6 192.2 16.6C191.1 16.6 190.2 16.9 189.5 17.5C188.8 18.1 188.4 18.8 188.4 19.6H185.1V19.5C185 18.1 185.7 16.8 187.1 15.7C188.5 14.5 190.3 14 192.5 14C194.7 14 196.4 14.6 197.8 15.7C199.1 16.8 199.8 18.4 199.8 20.5V29.7C199.8 30.4 199.8 31 199.9 31.7C200 32.3 200.1 33 200.3 33.6H196.6V33.4ZM190.8 30.8C192.1 30.8 193.2 30.5 194.2 29.8C195.2 29.2 195.9 28.4 196.2 27.6V24.5H192.3C190.9 24.5 189.8 24.9 188.9 25.6C188.1 26.3 187.6 27.1 187.6 28.1C187.6 28.9 187.9 29.6 188.4 30.1C188.9 30.6 189.8 30.8 190.8 30.8Z" fill="#5E99C5"/>
<path d="M209.4 9.59961V14.1996H213V16.7996H209.4V28.4996C209.4 29.3996 209.6 29.9996 210 30.3996C210.4 30.7996 210.9 30.9996 211.5 30.9996C211.7 30.9996 211.9 30.9996 212.2 30.8996C212.5 30.7996 212.7 30.7996 212.8 30.6996L213.3 33.0996C213 33.2996 212.7 33.4996 212.2 33.5996C211.7 33.6996 211.2 33.7996 210.7 33.7996C209.3 33.7996 208.2 33.3996 207.3 32.4996C206.5 31.5996 206 30.2996 206 28.4996V16.7996H202.9V14.1996H206V9.59961H209.4Z" fill="#5E99C5"/>
<path d="M221.2 33.3992H217.7V5.69922H221.2V33.3992Z" fill="#5E99C5"/>
<path d="M238.4 33.3984C238.3 32.7984 238.2 32.2984 238.1 31.8984C238 31.4984 238 30.9984 238 30.4984C237.3 31.3984 236.5 32.1984 235.5 32.7984C234.5 33.3984 233.3 33.6984 232.1 33.6984C230.1 33.6984 228.6 33.1984 227.5 32.1984C226.5 31.1984 225.9 29.7984 225.9 27.9984C225.9 26.1984 226.6 24.6984 228.1 23.6984C229.6 22.6984 231.6 22.0984 234.1 22.0984H237.9V20.1984C237.9 19.0984 237.6 18.1984 236.9 17.4984C236.2 16.7984 235.2 16.4984 234 16.4984C232.9 16.4984 232 16.7984 231.3 17.3984C230.6 17.9984 230.2 18.6984 230.2 19.4984H226.9V19.3984C226.8 17.9984 227.5 16.6984 228.9 15.5984C230.3 14.3984 232.1 13.8984 234.3 13.8984C236.5 13.8984 238.2 14.4984 239.6 15.5984C240.9 16.6984 241.6 18.2984 241.6 20.3984V29.5984C241.6 30.2984 241.6 30.8984 241.7 31.5984C241.8 32.1984 241.9 32.8984 242.1 33.4984H238.4V33.3984ZM232.5 30.7984C233.8 30.7984 234.9 30.4984 235.9 29.7984C236.9 29.1984 237.6 28.3984 237.9 27.5984V24.4984H234C232.6 24.4984 231.5 24.8984 230.6 25.5984C229.8 26.2984 229.3 27.0984 229.3 28.0984C229.3 28.8984 229.6 29.5984 230.1 30.0984C230.6 30.5984 231.5 30.7984 232.5 30.7984Z" fill="#5E99C5"/>
<path d="M257.7 28.2988C257.7 27.4988 257.4 26.8988 256.8 26.3988C256.2 25.8988 255.1 25.4988 253.5 25.0988C251.2 24.5988 249.4 23.8988 248.2 22.9988C247 22.0988 246.4 20.8988 246.4 19.3988C246.4 17.7988 247.1 16.4988 248.4 15.3988C249.7 14.2988 251.5 13.7988 253.6 13.7988C255.8 13.7988 257.6 14.3988 258.9 15.4988C260.2 16.5988 260.8 17.9988 260.8 19.6988V19.7988H257.5C257.5 18.9988 257.1 18.1988 256.4 17.4988C255.7 16.7988 254.8 16.4988 253.6 16.4988C252.4 16.4988 251.4 16.7988 250.8 17.2988C250.2 17.7988 249.9 18.4988 249.9 19.2988C249.9 20.0988 250.2 20.6988 250.7 21.0988C251.2 21.4988 252.3 21.8988 253.9 22.2988C256.3 22.7988 258.1 23.4988 259.3 24.3988C260.5 25.2988 261.1 26.4988 261.1 27.9988C261.1 29.6988 260.4 31.0988 259 32.0988C257.6 33.1988 255.8 33.6988 253.6 33.6988C251.2 33.6988 249.2 33.0988 247.8 31.7988C246.4 30.4988 245.7 29.0988 245.8 27.4988V27.3988H249.1C249.2 28.5988 249.6 29.4988 250.5 30.0988C251.4 30.6988 252.4 30.9988 253.5 30.9988C254.7 30.9988 255.7 30.6988 256.4 30.1988C257.1 29.6988 257.7 29.0988 257.7 28.2988Z" fill="#5E99C5"/>
<path d="M71.0002 69.1988C68.3002 69.1988 66.2002 68.2988 64.6002 66.4988C63.0002 64.6988 62.2002 62.3988 62.2002 59.5988V58.7988C62.2002 56.0988 63.0002 53.7988 64.6002 51.9988C66.2002 50.1988 68.2002 49.2988 70.4002 49.2988C73.0002 49.2988 74.9002 50.0988 76.3002 51.5988C77.6002 53.1988 78.3002 55.1988 78.3002 57.7988V59.9988H65.9002L65.8002 60.0988C65.8002 61.8988 66.3002 63.4988 67.2002 64.5988C68.1002 65.7988 69.4002 66.3988 71.0002 66.3988C72.2002 66.3988 73.2002 66.1988 74.1002 65.8988C75.0002 65.5988 75.8002 65.0988 76.4002 64.4988L77.8002 66.7988C77.1002 67.4988 76.2002 67.9988 75.1002 68.4988C74.0002 68.9988 72.6002 69.1988 71.0002 69.1988ZM70.5002 52.0988C69.3002 52.0988 68.3002 52.5988 67.5002 53.5988C66.7002 54.5988 66.2002 55.7988 66.0002 57.2988V57.3988H74.9002V56.8988C74.9002 55.4988 74.5002 54.3988 73.8002 53.4988C73.0002 52.4988 71.9002 52.0988 70.5002 52.0988Z" fill="#CDC400"/>
<path d="M89.0003 59.2996H80.3003V56.5996H89.0003V59.2996Z" fill="#5E99C5"/>
<path d="M100 66.4984C101.2 66.4984 102.2 66.0984 103.1 65.3984C104 64.6984 104.4 63.7984 104.4 62.7984H107.5V62.8984C107.6 64.5984 106.8 65.9984 105.3 67.2984C103.8 68.5984 102 69.1984 99.9003 69.1984C97.1003 69.1984 95.0003 68.2984 93.5003 66.4984C92.0003 64.6984 91.3003 62.3984 91.3003 59.5984V58.8984C91.3003 56.1984 92.0003 53.8984 93.5003 52.0984C95.0003 50.2984 97.1003 49.3984 99.9003 49.3984C102.1 49.3984 104 50.0984 105.4 51.3984C106.8 52.6984 107.5 54.3984 107.5 56.2984V56.3984H104.3C104.3 55.1984 103.9 54.1984 103.1 53.3984C102.3 52.5984 101.2 52.1984 100 52.1984C98.2003 52.1984 96.9003 52.8984 96.1003 54.1984C95.3003 55.4984 94.9003 57.0984 94.9003 58.9984V59.6984C94.9003 61.6984 95.3003 63.2984 96.1003 64.5984C96.9003 65.7984 98.2003 66.4984 100 66.4984Z" fill="#5E99C5"/>
<path d="M110.7 59.0988C110.7 56.2988 111.5 53.8988 113 52.0988C114.5 50.2988 116.6 49.2988 119.3 49.2988C122 49.2988 124.1 50.1988 125.6 52.0988C127.1 53.8988 127.9 56.2988 127.9 59.0988V59.4988C127.9 62.3988 127.1 64.6988 125.6 66.4988C124.1 68.2988 122 69.1988 119.3 69.1988C116.6 69.1988 114.6 68.2988 113 66.4988C111.5 64.6988 110.7 62.2988 110.7 59.4988V59.0988ZM114.2 59.4988C114.2 61.4988 114.6 63.1988 115.5 64.4988C116.4 65.7988 117.6 66.4988 119.3 66.4988C121 66.4988 122.2 65.7988 123.1 64.4988C124 63.1988 124.4 61.4988 124.4 59.4988V59.0988C124.4 57.0988 124 55.3988 123.1 54.0988C122.2 52.7988 121 52.0988 119.3 52.0988C117.6 52.0988 116.4 52.7988 115.5 54.0988C114.6 55.3988 114.2 57.0988 114.2 59.0988V59.4988Z" fill="#5E99C5"/>
<path d="M135.3 49.6988L135.5 52.1988C136.1 51.2988 136.9 50.5988 137.9 50.0988C138.9 49.5988 140 49.2988 141.3 49.2988C142.6 49.2988 143.7 49.5988 144.6 50.1988C145.5 50.7988 146.2 51.6988 146.7 52.8988C147.3 51.7988 148.1 50.8988 149.1 50.2988C150.1 49.6988 151.3 49.2988 152.6 49.2988C154.6 49.2988 156.1 49.9988 157.2 51.2988C158.3 52.5988 158.9 54.6988 158.9 57.3988V68.8988H155.4V57.2988C155.4 55.3988 155.1 54.0988 154.4 53.2988C153.7 52.4988 152.8 52.0988 151.5 52.0988C150.3 52.0988 149.3 52.4988 148.6 53.2988C147.9 54.0988 147.4 55.1988 147.3 56.3988V56.4988V68.6988H143.8V57.2988C143.8 55.4988 143.5 54.1988 142.8 53.3988C142.1 52.5988 141.2 52.0988 139.9 52.0988C138.8 52.0988 138 52.2988 137.3 52.7988C136.6 53.1988 136.1 53.8988 135.7 54.5988V68.7988H132.2V49.6988H135.3Z" fill="#5E99C5"/>
<path d="M167 49.6988L167.2 52.1988C167.8 51.2988 168.6 50.5988 169.6 50.0988C170.6 49.5988 171.7 49.2988 173 49.2988C174.3 49.2988 175.4 49.5988 176.3 50.1988C177.2 50.7988 177.9 51.6988 178.4 52.8988C179 51.7988 179.8 50.8988 180.8 50.2988C181.8 49.6988 183 49.2988 184.3 49.2988C186.3 49.2988 187.8 49.9988 188.9 51.2988C190 52.5988 190.6 54.6988 190.6 57.3988V68.8988H187.1V57.2988C187.1 55.3988 186.8 54.0988 186.1 53.2988C185.4 52.4988 184.5 52.0988 183.2 52.0988C182 52.0988 181 52.4988 180.3 53.2988C179.6 54.0988 179.1 55.1988 179 56.3988V56.4988V68.6988H175.5V57.2988C175.5 55.4988 175.2 54.1988 174.5 53.3988C173.8 52.5988 172.9 52.0988 171.6 52.0988C170.5 52.0988 169.7 52.2988 169 52.7988C168.3 53.1988 167.8 53.8988 167.4 54.5988V68.7988H163.9V49.6988H167Z" fill="#5E99C5"/>
<path d="M203.7 69.1988C201 69.1988 198.9 68.2988 197.3 66.4988C195.7 64.6988 194.9 62.3988 194.9 59.5988V58.7988C194.9 56.0988 195.7 53.7988 197.3 51.9988C198.9 50.1988 200.9 49.2988 203.1 49.2988C205.7 49.2988 207.6 50.0988 209 51.5988C210.3 53.1988 211 55.1988 211 57.7988V59.9988H198.5L198.4 60.0988C198.4 61.8988 198.9 63.4988 199.8 64.5988C200.7 65.7988 202 66.3988 203.6 66.3988C204.8 66.3988 205.8 66.1988 206.7 65.8988C207.6 65.5988 208.4 65.0988 209 64.4988L210.4 66.7988C209.7 67.4988 208.8 67.9988 207.7 68.4988C206.6 68.9988 205.3 69.1988 203.7 69.1988ZM203.1 52.0988C201.9 52.0988 200.9 52.5988 200.1 53.5988C199.3 54.5988 198.8 55.7988 198.6 57.2988V57.3988H207.5V56.8988C207.5 55.4988 207.1 54.3988 206.4 53.4988C205.7 52.4988 204.6 52.0988 203.1 52.0988Z" fill="#5E99C5"/>
<path d="M224 52.6984L222.2 52.5984C221.3 52.5984 220.5 52.7984 219.9 53.2984C219.3 53.6984 218.8 54.3984 218.4 55.0984V68.7984H214.9V49.6984H218L218.3 52.4984C218.8 51.4984 219.5 50.6984 220.3 50.1984C221.1 49.6984 222 49.3984 223.1 49.3984C223.4 49.3984 223.6 49.3984 223.8 49.4984C224 49.5984 224.2 49.5984 224.4 49.5984L224 52.6984Z" fill="#5E99C5"/>
<path d="M234.8 66.4984C236 66.4984 237 66.0984 237.9 65.3984C238.8 64.6984 239.2 63.7984 239.2 62.7984H242.3V62.8984C242.4 64.5984 241.6 65.9984 240.1 67.2984C238.6 68.5984 236.8 69.1984 234.7 69.1984C231.9 69.1984 229.8 68.2984 228.3 66.4984C226.8 64.6984 226.1 62.3984 226.1 59.5984V58.8984C226.1 56.1984 226.8 53.8984 228.3 52.0984C229.8 50.2984 231.9 49.3984 234.7 49.3984C236.9 49.3984 238.8 50.0984 240.2 51.3984C241.6 52.6984 242.3 54.3984 242.3 56.2984V56.3984H239.1C239.1 55.1984 238.7 54.1984 237.9 53.3984C237.1 52.5984 236 52.1984 234.8 52.1984C233 52.1984 231.7 52.8984 230.9 54.1984C230.1 55.4984 229.7 57.0984 229.7 58.9984V59.6984C229.7 61.6984 230.1 63.2984 230.9 64.5984C231.7 65.7984 233 66.4984 234.8 66.4984Z" fill="#5E99C5"/>
<path d="M254.3 69.1988C251.6 69.1988 249.5 68.2988 247.9 66.4988C246.3 64.6988 245.5 62.3988 245.5 59.5988V58.7988C245.5 56.0988 246.3 53.7988 247.9 51.9988C249.5 50.1988 251.5 49.2988 253.7 49.2988C256.3 49.2988 258.2 50.0988 259.6 51.5988C260.9 53.1988 261.6 55.1988 261.6 57.7988V59.9988H249.1L249 60.0988C249 61.8988 249.5 63.4988 250.4 64.5988C251.3 65.7988 252.6 66.3988 254.2 66.3988C255.4 66.3988 256.4 66.1988 257.3 65.8988C258.2 65.5988 259 65.0988 259.6 64.4988L261 66.7988C260.3 67.4988 259.4 67.9988 258.3 68.4988C257.2 68.9988 255.9 69.1988 254.3 69.1988ZM253.8 52.0988C252.6 52.0988 251.6 52.5988 250.8 53.5988C250 54.5988 249.5 55.7988 249.3 57.2988V57.3988H258.2V56.8988C258.2 55.4988 257.8 54.3988 257.1 53.4988C256.3 52.4988 255.2 52.0988 253.8 52.0988Z" fill="#5E99C5"/>
</svg>
