<svg width="124" height="34" viewBox="0 0 124 34" fill="none" xmlns="http://www.w3.org/2000/svg">
<path d="M109.313 23.5084L100.173 15.2327L98.5361 6.32031L109.313 11.5495V23.5084Z" fill="#E6ECF3"/>
<path d="M110.041 23.5547L121.59 14.0967L123.136 4.63867L110.041 11.5958V23.5547Z" fill="#E6ECF3"/>
<path d="M109.495 1.90979L123.454 0L124 1.50055L109.495 7.63916L98.445 6.04767L97.9448 4.68353L109.495 1.90979Z" fill="#E6ECF3"/>
<path d="M63.5688 10.0045C62.7049 10.0045 62.0683 10.5501 61.75 11.3686L55.1567 29.1023C55.0657 29.3297 54.7929 29.3297 54.702 29.1023L47.9722 11.2322C47.6994 10.5501 47.0628 9.95898 46.2898 9.95898C44.9257 9.95898 44.0163 11.1867 44.5164 12.4599L51.519 30.2846C52.2011 32.058 53.3833 32.9674 54.8839 32.9674C56.4754 32.9674 57.6576 32.058 58.3851 30.2391L65.2513 12.5054C65.7515 11.2776 64.8875 10.0045 63.5688 10.0045Z" fill="#E6ECF3"/>
<path d="M72.6627 3.86572C72.6627 2.86536 71.7987 2.04688 70.7983 2.04688C69.7525 2.04688 68.9795 2.86536 68.9795 3.86572V31.0575C68.9795 32.1033 69.798 32.8763 70.7983 32.8763C71.8896 32.8763 72.6627 32.1033 72.6627 31.0575V16.3703C74.0723 14.5514 76.6186 13.0509 79.3014 13.0509C82.8937 13.0509 84.8489 15.2335 84.8489 18.8257V31.0575C84.8489 32.1033 85.6674 32.8763 86.6678 32.8763C87.7136 32.8763 88.5321 32.1033 88.5321 31.0575V18.5074C88.5321 12.7326 84.9399 9.7315 79.7107 9.7315C76.8915 9.7315 74.1632 11.0047 72.6627 12.5962V3.86572Z" fill="#E6ECF3"/>
<path d="M26.5095 19.9615C26.3731 15.6417 28.5557 12.9134 32.9664 12.9134C36.8314 12.9134 39.2869 15.5508 39.0141 19.4613C38.9686 19.8251 38.7867 19.9615 38.4229 19.9615H26.5095ZM42.6063 19.0975C42.6063 13.641 38.8776 9.73047 32.9664 9.73047C27.4644 9.73047 23.5539 13.0953 23.0537 18.6428C22.9173 19.9615 22.9173 22.1896 23.0082 23.8265C23.3265 29.3285 27.0097 33.1026 33.1937 33.1026C35.7401 33.1026 38.8776 32.557 40.3327 31.7385C41.1057 31.2838 41.3331 30.7381 41.3331 30.1925C41.3331 29.1921 40.3327 28.1918 38.7412 28.8284C36.7405 29.5104 34.8762 29.9651 33.2392 29.9651C29.2832 29.9651 26.555 27.6916 26.555 23.6446V22.9626H39.969C41.8333 22.9626 42.6063 21.9622 42.6063 20.4617V19.0975Z" fill="#E6ECF3"/>
<path d="M15.824 24.1459C15.4602 27.8745 13.414 29.8298 9.50347 29.8298C7.32086 29.8298 4.54711 28.7839 3.59222 28.0564V14.506C4.68353 13.9148 7.27538 13.0054 9.91271 13.0054C13.7778 13.0054 15.5511 14.9607 15.7785 18.5074C15.9149 19.7806 15.9604 22.6453 15.824 24.1459ZM19.5071 18.2801C19.0524 12.9145 15.7785 9.7315 10.0946 9.7315C7.63915 9.7315 5.22918 10.4136 3.63769 11.0956V3.86572C3.63769 2.86536 2.77374 2.04688 1.81885 2.04688C0.77301 2.04688 0 2.86536 0 3.86572V29.1022C0 29.6933 0.0909416 30.1026 0.727538 30.5118C1.86432 31.2394 5.59295 33.1037 9.63988 33.1037C15.5966 33.1037 19.0979 29.6933 19.5526 24.3732C19.6435 22.8272 19.6435 19.8716 19.5071 18.2801Z" fill="#E6ECF3"/>
</svg>
