<svg width="16" height="16" viewBox="0 0 16 16" fill="none" xmlns="http://www.w3.org/2000/svg">
<path d="M3.5 6.5H12.5V13C12.5 13.2761 12.2761 13.5 12 13.5H4C3.72386 13.5 3.5 13.2761 3.5 13V6.5Z" stroke="#5E99C4"/>
<path d="M3 5C3 4.44772 3.44772 4 4 4H12C12.5523 4 13 4.44772 13 5V6H3V5Z" fill="#5E99C4"/>
<path d="M10 2.5C10 2.22386 10.2239 2 10.5 2C10.7761 2 11 2.22386 11 2.5V4H10V2.5Z" fill="#5E99C4"/>
<path d="M5 2.5C5 2.22386 5.22386 2 5.5 2C5.77614 2 6 2.22386 6 2.5V4H5V2.5Z" fill="#5E99C4"/>
</svg>
