<svg width="19" height="20" viewBox="0 0 19 20" fill="none" xmlns="http://www.w3.org/2000/svg">
<path d="M5.02818 12.7455L6.89425 14.6116L6.25586 15.25H5.56836V14.0714H4.38979V13.3839L5.02818 12.7455ZM10.1108 7.95759C10.2254 8.06399 10.2131 8.18676 10.0739 8.32589L6.5014 11.8984C6.36226 12.0376 6.23949 12.0499 6.13309 11.9353C6.01851 11.8289 6.03079 11.7061 6.16992 11.567L9.74247 7.99442C9.8816 7.85528 10.0044 7.84301 10.1108 7.95759ZM6.74693 16.4286L13.4255 9.75L9.88979 6.21428L3.21122 12.8929V16.4286H6.74693ZM14.2112 8.96429L15.3407 7.83482C15.5698 7.60565 15.6844 7.32738 15.6844 7C15.6844 6.67262 15.5698 6.39434 15.3407 6.16518L13.4746 4.29911C13.2454 4.06994 12.9672 3.95536 12.6398 3.95536C12.3124 3.95536 12.0341 4.06994 11.805 4.29911L10.6755 5.42857L14.2112 8.96429ZM18.9255 4.25V16.0357C18.9255 17.0097 18.5777 17.8404 17.882 18.5279C17.1945 19.2236 16.3637 19.5714 15.3898 19.5714H3.60407C2.63012 19.5714 1.79529 19.2236 1.09961 18.5279C0.412109 17.8404 0.0683594 17.0097 0.0683594 16.0357V4.25C0.0683594 3.27604 0.412109 2.44531 1.09961 1.75781C1.79529 1.06213 2.63012 0.714285 3.60407 0.714285H15.3898C16.3637 0.714285 17.1945 1.06213 17.882 1.75781C18.5777 2.44531 18.9255 3.27604 18.9255 4.25Z" fill="#043F85"/>
</svg>
