<svg width="23" height="18" viewBox="0 0 23 18" fill="none" xmlns="http://www.w3.org/2000/svg">
<path d="M22.5 5.85937V15.6071C22.5 16.1473 22.3077 16.6097 21.923 16.9944C21.5383 17.3791 21.0759 17.5714 20.5357 17.5714H2.46429C1.92411 17.5714 1.46168 17.3791 1.07701 16.9944C0.692336 16.6097 0.5 16.1473 0.5 15.6071V5.85937C0.860119 6.26042 1.27344 6.61644 1.73996 6.92745C4.70275 8.94085 6.73661 10.3527 7.84152 11.1629C8.30804 11.5067 8.68452 11.7768 8.97098 11.9732C9.26563 12.1615 9.65439 12.3579 10.1373 12.5625C10.6202 12.7589 11.0703 12.8571 11.4877 12.8571H11.5H11.5123C11.9297 12.8571 12.3798 12.7589 12.8627 12.5625C13.3456 12.3579 13.7303 12.1615 14.0167 11.9732C14.3114 11.7768 14.692 11.5067 15.1585 11.1629C16.5499 10.1562 18.5878 8.74442 21.2723 6.92745C21.7388 6.60826 22.1481 6.25223 22.5 5.85937ZM22.5 2.25C22.5 2.89658 22.2995 3.51451 21.8984 4.10379C21.4974 4.69308 20.9981 5.19643 20.4007 5.61384C17.3233 7.75 15.4081 9.07998 14.6551 9.60379C14.5733 9.66109 14.3973 9.78795 14.1272 9.98438C13.8653 10.1726 13.6443 10.3281 13.4643 10.4509C13.2924 10.5655 13.0796 10.6964 12.8259 10.8437C12.5804 10.9911 12.3471 11.1016 12.1261 11.1752C11.9051 11.2489 11.7005 11.2857 11.5123 11.2857H11.5H11.4877C11.2995 11.2857 11.0949 11.2489 10.8739 11.1752C10.6529 11.1016 10.4156 10.9911 10.1618 10.8437C9.91629 10.6964 9.7035 10.5655 9.52344 10.4509C9.35156 10.3281 9.13058 10.1726 8.86049 9.98438C8.59859 9.78795 8.42671 9.66109 8.34487 9.60379C7.60007 9.07998 6.5279 8.33519 5.12835 7.36942C3.72879 6.39546 2.88988 5.81027 2.61161 5.61384C2.10417 5.27009 1.62537 4.79948 1.17522 4.20201C0.725074 3.59635 0.5 3.03571 0.5 2.52009C0.5 1.8817 0.667783 1.3497 1.00335 0.924107C1.3471 0.498512 1.83408 0.285714 2.46429 0.285714H20.5357C21.0677 0.285714 21.526 0.47805 21.9107 0.862722C22.3036 1.2474 22.5 1.70982 22.5 2.25Z" fill="#5E99C4"/>
</svg>
