<svg width="21" height="21" viewBox="0 0 21 21" fill="none" xmlns="http://www.w3.org/2000/svg">
<path d="M18.3571 0H2.64286C1.4375 0 0.5 1.03125 0.5 2.25V18.75C0.5 20.0156 1.4375 21 2.64286 21H8.75893V13.875H5.94643V10.5H8.75893V7.96875C8.75893 5.0625 10.4107 3.42188 12.9107 3.42188C14.1607 3.42188 15.4107 3.65625 15.4107 3.65625V6.51562H14.0268C12.6429 6.51562 12.1964 7.40625 12.1964 8.34375V10.5H15.2768L14.7857 13.875H12.1964V21H18.3571C19.5179 21 20.5 20.0156 20.5 18.75V2.25C20.5 1.03125 19.5179 0 18.3571 0Z" fill="#505050"/>
</svg>
