<svg width="30" height="32" viewBox="0 0 30 32" fill="none" xmlns="http://www.w3.org/2000/svg">
<path d="M26.7857 0H3.21429C1.40625 0 0 1.57143 0 3.42857V28.5714C0 30.5 1.40625 32 3.21429 32H12.3884V21.1429H8.16964V16H12.3884V12.1429C12.3884 7.71429 14.8661 5.21429 18.6161 5.21429C20.4911 5.21429 22.3661 5.57143 22.3661 5.57143V9.92857H20.2902C18.2143 9.92857 17.5446 11.2857 17.5446 12.7143V16H22.1652L21.4286 21.1429H17.5446V32H26.7857C28.5268 32 30 30.5 30 28.5714V3.42857C30 1.57143 28.5268 0 26.7857 0Z" fill="white" fill-opacity="0.75"/>
</svg>
