<svg width="21" height="21" viewBox="0 0 21 21" fill="none" xmlns="http://www.w3.org/2000/svg">
<path d="M19.0714 0H1.88393C1.125 0 0.5 0.703125 0.5 1.54688V19.5C0.5 20.3438 1.125 21 1.88393 21H19.0714C19.8304 21 20.5 20.3438 20.5 19.5V1.54688C20.5 0.703125 19.8304 0 19.0714 0ZM6.52679 18H3.58036V8.01562H6.52679V18ZM5.05357 6.60938C4.07143 6.60938 3.3125 5.8125 3.3125 4.82812C3.3125 3.84375 4.07143 3 5.05357 3C5.99107 3 6.75 3.84375 6.75 4.82812C6.75 5.8125 5.99107 6.60938 5.05357 6.60938ZM17.6429 18H14.6518V13.125C14.6518 12 14.6518 10.5 13.1339 10.5C11.5714 10.5 11.3482 11.7656 11.3482 13.0781V18H8.40179V8.01562H11.2143V9.375H11.2589C11.6607 8.57812 12.6429 7.73438 14.0714 7.73438C17.0625 7.73438 17.6429 9.84375 17.6429 12.5156V18Z" fill="#505050"/>
</svg>
