<svg width="23" height="22" viewBox="0 0 23 22" fill="none" xmlns="http://www.w3.org/2000/svg">
<path d="M22 21V21.85H22.85V21H22ZM17.7443 21H16.8943V21.85H17.7443V21ZM17.2139 12.787L16.527 13.2876L16.5319 13.2944L16.5371 13.3011L17.2139 12.787ZM14.2129 12.4911L14.7188 13.1742L14.7206 13.1729L14.2129 12.4911ZM13.398 13.497L12.6229 13.1482L12.6156 13.1644L12.609 13.1808L13.398 13.497ZM13.2557 21V21.85H14.1057V21H13.2557ZM9 21H8.15V21.85H9V21ZM9 9.27219V8.42219H8.15V9.27219H9ZM13.2557 9.27219L14.1055 9.29099L14.1247 8.42219H13.2557V9.27219ZM14.4846 9.69822L13.9917 9.0056L13.9826 9.01231L14.4846 9.69822ZM15.61 9.18935L15.8308 10.0102L15.8403 10.0075L15.61 9.18935ZM20.6547 10.3491L20.0528 10.9493L20.0555 10.9519L20.6547 10.3491ZM21.15 14.2781V21H22.85V14.2781H21.15ZM22 20.15H17.7443V21.85H22V20.15ZM18.5943 21V14.7278H16.8943V21H18.5943ZM18.5943 14.7278C18.5943 13.7891 18.395 12.9367 17.8908 12.2729L16.5371 13.3011C16.74 13.5682 16.8943 14.0097 16.8943 14.7278H18.5943ZM17.9009 12.2864C17.3539 11.5358 16.5171 11.2269 15.5841 11.2269V12.9269C16.1343 12.9269 16.384 13.0914 16.527 13.2876L17.9009 12.2864ZM15.5841 11.2269C14.891 11.2269 14.2473 11.4057 13.7053 11.8094L14.7206 13.1729C14.9202 13.0242 15.1906 12.9269 15.5841 12.9269V11.2269ZM13.707 11.8081C13.2306 12.1609 12.865 12.6103 12.6229 13.1482L14.1731 13.8459C14.2932 13.5791 14.4709 13.3578 14.7188 13.1742L13.707 11.8081ZM12.609 13.1808C12.4574 13.5592 12.4057 14.0004 12.4057 14.4556H14.1057C14.1057 14.1061 14.1489 13.9083 14.187 13.8133L12.609 13.1808ZM12.4057 14.4556V21H14.1057V14.4556H12.4057ZM13.2557 20.15H9V21.85H13.2557V20.15ZM14.0662 11.1279C14.0484 11.2261 14.0168 11.2952 14.0083 11.3138C13.9957 11.3412 13.9851 11.3595 13.9817 11.3653C13.9749 11.3769 13.9741 11.3768 13.9853 11.3612C14.0062 11.3317 14.0422 11.285 14.0908 11.2254C14.1879 11.1064 14.3023 10.9766 14.3745 10.9011L13.1459 9.7261C13.037 9.83996 12.893 10.0043 12.7735 10.1507C12.7139 10.2238 12.6521 10.3026 12.6006 10.3749C12.5756 10.41 12.5449 10.4548 12.5165 10.5032C12.5082 10.5174 12.4252 10.6497 12.3935 10.8248L14.0662 11.1279ZM14.3745 10.9011C14.51 10.7594 14.7095 10.5869 14.9866 10.3841L13.9826 9.01231C13.656 9.25131 13.3726 9.48907 13.1459 9.7261L14.3745 10.9011ZM14.9774 10.3908C15.1912 10.2386 15.47 10.1072 15.8308 10.0102L15.3891 8.36854C14.8703 8.50814 14.3989 8.71599 13.9918 9.00566L14.9774 10.3908ZM15.8403 10.0075C16.2025 9.90557 16.6195 9.85 17.0975 9.85V8.15C16.4889 8.15 15.9142 8.22066 15.3796 8.37115L15.8403 10.0075ZM17.0975 9.85C18.3856 9.85 19.3412 10.2357 20.0528 10.9493L21.2566 9.74893C20.1745 8.66373 18.7587 8.15 17.0975 8.15V9.85ZM20.0555 10.9519C20.7402 11.6326 21.15 12.6916 21.15 14.2781H22.85C22.85 12.409 22.3629 10.8487 21.254 9.74628L20.0555 10.9519ZM13.2557 9.27219C12.4059 9.25338 12.4059 9.25339 12.4059 9.25341C12.4059 9.25343 12.4059 9.25345 12.4059 9.25348C12.4059 9.25353 12.4059 9.25362 12.4059 9.25373C12.4059 9.25395 12.4059 9.25428 12.4059 9.25472C12.4059 9.25559 12.4059 9.25688 12.4058 9.25858C12.4057 9.26197 12.4056 9.26699 12.4055 9.27353C12.4052 9.2866 12.4048 9.30575 12.4043 9.33007C12.4032 9.37871 12.4017 9.44807 12.4 9.53107C12.3965 9.697 12.392 9.91769 12.3879 10.1362C12.3838 10.3543 12.3801 10.5722 12.3783 10.7317C12.3774 10.8104 12.3768 10.8798 12.3771 10.9289C12.3772 10.9492 12.3775 10.982 12.379 11.0124C12.3794 11.0209 12.3803 11.0367 12.3822 11.0559C12.3823 11.0579 12.3874 11.1233 12.4084 11.2006C12.4148 11.224 12.4277 11.2682 12.451 11.3211C12.4678 11.3591 12.523 11.481 12.6453 11.5965C12.7954 11.7382 13.0989 11.9047 13.4725 11.793C13.7559 11.7083 13.8963 11.5091 13.9317 11.457C14.0172 11.3316 14.0467 11.2118 14.0487 11.2047C14.0584 11.1695 14.0638 11.1411 14.0662 11.1279L12.3935 10.8248C12.3956 10.8128 12.4009 10.7852 12.4104 10.7507C12.4122 10.7444 12.4415 10.6251 12.5268 10.4999C12.5622 10.448 12.7024 10.2489 12.9857 10.1642C13.3593 10.0525 13.6627 10.219 13.8127 10.3606C13.9349 10.4761 13.9901 10.5978 14.0067 10.6356C14.0299 10.6883 14.0428 10.7323 14.0491 10.7554C14.0618 10.8023 14.0675 10.8398 14.0695 10.8535C14.0722 10.8715 14.0737 10.8859 14.0744 10.894C14.076 10.9103 14.0766 10.9225 14.0768 10.9265C14.0775 10.939 14.0772 10.9413 14.0771 10.9201C14.0769 10.8862 14.0773 10.8288 14.0781 10.7512C14.0799 10.5982 14.0835 10.3854 14.0876 10.1681C14.0916 9.9513 14.0961 9.732 14.0996 9.56678C14.1013 9.4842 14.1028 9.4152 14.1039 9.36686C14.1044 9.3427 14.1048 9.3237 14.1051 9.31076C14.1052 9.30429 14.1053 9.29933 14.1054 9.296C14.1054 9.29433 14.1055 9.29307 14.1055 9.29223C14.1055 9.29181 14.1055 9.2915 14.1055 9.29129C14.1055 9.29119 14.1055 9.29111 14.1055 9.29106C14.1055 9.29104 14.1055 9.29102 14.1055 9.291C14.1055 9.29099 14.1055 9.29099 13.2557 9.27219ZM9.85 21V9.27219H8.15V21H9.85ZM9 10.1222H13.2557V8.42219H9V10.1222Z" fill="#5E99C4"/>
<circle cx="3" cy="3" r="2" stroke="#5E99C4" stroke-width="1.7"/>
<rect x="1" y="9" width="4" height="12" stroke="#5E99C4" stroke-width="1.7"/>
</svg>
