<svg width="30" height="32" viewBox="0 0 30 32" fill="none" xmlns="http://www.w3.org/2000/svg">
<path d="M27.8571 0H2.07589C0.9375 0 0 1.07143 0 2.35714V29.7143C0 31 0.9375 32 2.07589 32H27.8571C28.9955 32 30 31 30 29.7143V2.35714C30 1.07143 28.9955 0 27.8571 0ZM9.04018 27.4286H4.62054V12.2143H9.04018V27.4286ZM6.83036 10.0714C5.35714 10.0714 4.21875 8.85714 4.21875 7.35714C4.21875 5.85714 5.35714 4.57143 6.83036 4.57143C8.23661 4.57143 9.375 5.85714 9.375 7.35714C9.375 8.85714 8.23661 10.0714 6.83036 10.0714ZM25.7143 27.4286H21.2277V20C21.2277 18.2857 21.2277 16 18.9509 16C16.6071 16 16.2723 17.9286 16.2723 19.9286V27.4286H11.8527V12.2143H16.0714V14.2857H16.1384C16.7411 13.0714 18.2143 11.7857 20.3571 11.7857C24.8438 11.7857 25.7143 15 25.7143 19.0714V27.4286Z" fill="white" fill-opacity="0.75"/>
</svg>
