<svg width="21" height="22" viewBox="0 0 21 22" fill="none" xmlns="http://www.w3.org/2000/svg">
<path d="M4.45454 1L7.33333 5.048C6.9495 5.43352 5.95153 6.32022 5.03032 6.78285C3.8788 7.36114 4.45456 8.51771 5.60607 9.67428C6.75759 10.8308 9.63637 14.3006 11.3636 14.8788C12.7455 15.3415 13.8586 15.2644 14.2424 14.8788L15.3939 13.7223L20 16.6137C19.6162 17.192 18.7333 18.5799 18.2727 19.5051C17.697 20.6617 15.5 20 12.5152 18.9268C9.53032 17.8537 4.45454 14.3006 2.72727 11.4091C1 8.51771 0.999984 5.62628 1 5.048C1.00002 4.46971 1.9596 1.57829 2.72727 1H4.45454Z" stroke="#5E99C4" stroke-width="2" stroke-linecap="round" stroke-linejoin="round"/>
</svg>
