<svg width="19" height="20" viewBox="0 0 19 20" fill="none" xmlns="http://www.w3.org/2000/svg">
<path d="M12.6398 16.0357V14.0714C12.6398 13.9568 12.603 13.8627 12.5293 13.7891C12.4556 13.7154 12.3615 13.6786 12.2469 13.6786H11.0684V7.39286C11.0684 7.27827 11.0315 7.18415 10.9579 7.11049C10.8842 7.03683 10.7901 7 10.6755 7H6.74693C6.63235 7 6.53823 7.03683 6.46456 7.11049C6.3909 7.18415 6.35407 7.27827 6.35407 7.39286V9.35714C6.35407 9.47173 6.3909 9.56585 6.46456 9.63951C6.53823 9.71317 6.63235 9.75 6.74693 9.75H7.9255V13.6786H6.74693C6.63235 13.6786 6.53823 13.7154 6.46456 13.7891C6.3909 13.8627 6.35407 13.9568 6.35407 14.0714V16.0357C6.35407 16.1503 6.3909 16.2444 6.46456 16.3181C6.53823 16.3917 6.63235 16.4286 6.74693 16.4286H12.2469C12.3615 16.4286 12.4556 16.3917 12.5293 16.3181C12.603 16.2444 12.6398 16.1503 12.6398 16.0357ZM11.0684 5.03571V3.07143C11.0684 2.95684 11.0315 2.86272 10.9579 2.78906C10.8842 2.7154 10.7901 2.67857 10.6755 2.67857H8.31836C8.20378 2.67857 8.10965 2.7154 8.03599 2.78906C7.96233 2.86272 7.9255 2.95684 7.9255 3.07143V5.03571C7.9255 5.1503 7.96233 5.24442 8.03599 5.31808C8.10965 5.39174 8.20378 5.42857 8.31836 5.42857H10.6755C10.7901 5.42857 10.8842 5.39174 10.9579 5.31808C11.0315 5.24442 11.0684 5.1503 11.0684 5.03571ZM17.661 5.41629C18.504 6.85677 18.9255 8.43229 18.9255 10.1429C18.9255 11.8534 18.504 13.433 17.661 14.8817C16.818 16.3222 15.6722 17.4639 14.2235 18.3069C12.783 19.1499 11.2075 19.5714 9.49693 19.5714C7.78637 19.5714 6.20675 19.1499 4.75809 18.3069C3.31762 17.4639 2.17587 16.3222 1.33287 14.8817C0.489862 13.433 0.0683594 11.8534 0.0683594 10.1429C0.0683594 8.43229 0.489862 6.85677 1.33287 5.41629C2.17587 3.96763 3.31762 2.8218 4.75809 1.97879C6.20675 1.13579 7.78637 0.714285 9.49693 0.714285C11.2075 0.714285 12.783 1.13579 14.2235 1.97879C15.6722 2.8218 16.818 3.96763 17.661 5.41629Z" fill="#5E99C4"/>
</svg>
