<svg width="22" height="22" viewBox="0 0 22 22" fill="none" xmlns="http://www.w3.org/2000/svg">
<path d="M5.50012 1L8.33344 5.048C7.94961 5.43352 6.50012 6.46915 6.50012 7.5C6.50012 8.5 7.80571 10.3004 9.00012 11.5C10.2953 12.8009 13.0614 15 15.0001 15C15.8258 15 16 14 16.3941 13.7223C17.0856 13.7223 21.0001 16.6137 21.0001 16.6137C20.6163 17.192 19.4013 18.9942 18.5 19.5C16.7272 20.4949 15.5 20.5 12.1447 18.8689C8.78932 17.2377 5.87239 15 3.72739 11.4091C1.58238 7.81827 2.0001 5.62628 2.00012 5.048C2.00013 4.46971 2.17261 3.5 3.50012 2.5C4.82762 1.5 5.50012 1 5.50012 1Z" stroke="#5E99C4" stroke-width="2" stroke-linecap="round" stroke-linejoin="round"/>
</svg>
