<svg width="23" height="19" viewBox="0 0 23 19" fill="none" xmlns="http://www.w3.org/2000/svg">
<path d="M20.2613 4.71566C21.1223 4.02892 21.8973 3.20482 22.5 2.24337C21.725 2.60964 20.8209 2.88434 19.9168 2.9759C20.864 2.38072 21.5528 1.46506 21.8973 0.320482C21.0362 0.86988 20.046 1.28193 19.0558 1.51084C18.1947 0.549398 17.0323 0 15.7407 0C13.2436 0 11.2202 2.15181 11.2202 4.80723C11.2202 5.17349 11.2632 5.53976 11.3493 5.90602C7.60372 5.67711 4.2456 3.75422 2.00685 0.86988C1.61937 1.55663 1.40411 2.38072 1.40411 3.29639C1.40411 4.94458 2.17906 6.40964 3.42759 7.27952C2.69569 7.23374 1.9638 7.0506 1.36106 6.68434V6.73012C1.36106 9.06506 2.91096 10.988 4.9775 11.4458C4.63307 11.5373 4.20254 11.6289 3.81507 11.6289C3.5137 11.6289 3.25538 11.5831 2.95401 11.5373C3.5137 13.4602 5.19276 14.8337 7.17319 14.8795C5.62329 16.1614 3.68591 16.9398 1.57632 16.9398C1.18885 16.9398 0.844423 16.894 0.5 16.8482C2.48043 18.2217 4.84834 19 7.43151 19C15.7407 19 20.2613 11.7205 20.2613 5.35663C20.2613 5.12771 20.2613 4.94458 20.2613 4.71566Z" fill="#505050"/>
</svg>
