<svg width="32" height="32" viewBox="0 0 32 32" fill="none" xmlns="http://www.w3.org/2000/svg">
<circle cx="16.5" cy="15.5" r="13.5" stroke="#5E99C4" stroke-width="2"/>
<path d="M23 15.5C23 19.3777 22.1849 22.8387 20.9151 25.2936C19.6191 27.7992 18.006 29 16.5 29C14.994 29 13.3809 27.7992 12.0849 25.2936C10.8151 22.8387 10 19.3777 10 15.5C10 11.6223 10.8151 8.16133 12.0849 5.70637C13.3809 3.20084 14.994 2 16.5 2C18.006 2 19.6191 3.20084 20.9151 5.70637C22.1849 8.16133 23 11.6223 23 15.5Z" stroke="#5E99C4" stroke-width="2"/>
<line x1="4" y1="12" x2="29" y2="12" stroke="#5E99C4" stroke-width="2"/>
<line x1="4" y1="20" x2="29" y2="20" stroke="#5E99C4" stroke-width="2"/>
</svg>
