<svg width="32" height="22" viewBox="0 0 32 22" fill="none" xmlns="http://www.w3.org/2000/svg">
<path d="M12.9029 15.1696L21.0056 10.9844L12.9029 6.74888V15.1696ZM16 0.738839C17.875 0.738839 19.683 0.766741 21.4241 0.822544C23.1763 0.867186 24.4598 0.91741 25.2746 0.973214L26.4967 1.04018C26.5078 1.04018 26.6027 1.05134 26.7813 1.07366C26.9598 1.08482 27.0882 1.10156 27.1663 1.12388C27.2444 1.13504 27.3728 1.15736 27.5513 1.19085C27.7411 1.22433 27.9029 1.26897 28.0368 1.32478C28.1708 1.38058 28.327 1.45312 28.5056 1.54241C28.6842 1.6317 28.8571 1.7433 29.0246 1.87723C29.192 2 29.3538 2.14509 29.51 2.3125C29.577 2.37946 29.6607 2.48549 29.7612 2.63058C29.8728 2.76451 30.0346 3.08817 30.2467 3.60156C30.4699 4.11496 30.6205 4.67857 30.6987 5.29241C30.7879 6.0067 30.8549 6.7712 30.8996 7.58594C30.9554 8.38951 30.9888 9.02009 31 9.47768V10.1473V12.4241C31.0112 14.0424 30.9107 15.6607 30.6987 17.279C30.6205 17.8929 30.481 18.4509 30.2801 18.9531C30.0792 19.4442 29.9007 19.7846 29.7444 19.9743L29.51 20.2589C29.3538 20.4263 29.192 20.577 29.0246 20.7109C28.8571 20.8337 28.6842 20.9397 28.5056 21.029C28.327 21.1071 28.1708 21.1741 28.0368 21.2299C27.9029 21.2857 27.7411 21.3304 27.5513 21.3638C27.3728 21.3973 27.2388 21.4252 27.1496 21.4475C27.0714 21.4587 26.9431 21.4754 26.7645 21.4978C26.5971 21.5089 26.5078 21.5145 26.4967 21.5145C23.6953 21.7266 20.1964 21.8326 16 21.8326C13.6897 21.8103 11.6808 21.7768 9.97321 21.7321C8.27679 21.6763 7.16071 21.6317 6.625 21.5982L5.80469 21.5312L5.20201 21.4643C4.80022 21.4085 4.4933 21.3527 4.28125 21.2969C4.08036 21.2411 3.79576 21.1239 3.42746 20.9453C3.07031 20.7667 2.75781 20.5379 2.48996 20.2589C2.42299 20.192 2.33371 20.0915 2.2221 19.9576C2.12165 19.8125 1.95982 19.4833 1.73661 18.9699C1.52455 18.4565 1.37946 17.8929 1.30134 17.279C1.21205 16.5647 1.13951 15.8058 1.08371 15.0022C1.03906 14.1875 1.01116 13.5513 1 13.0938V12.4241V10.1473C0.988839 8.52902 1.08929 6.91071 1.30134 5.29241C1.37946 4.67857 1.51897 4.12612 1.71987 3.63504C1.92076 3.13281 2.09933 2.78683 2.25558 2.5971L2.48996 2.3125C2.64621 2.14509 2.80804 2 2.97545 1.87723C3.14286 1.7433 3.31585 1.6317 3.49442 1.54241C3.67299 1.45312 3.82924 1.38058 3.96317 1.32478C4.0971 1.26897 4.25335 1.22433 4.43192 1.19085C4.62165 1.15736 4.75558 1.13504 4.83371 1.12388C4.91183 1.10156 5.04018 1.08482 5.21875 1.07366C5.39732 1.05134 5.49219 1.04018 5.50335 1.04018C8.30469 0.839285 11.8036 0.738839 16 0.738839Z" fill="#595959"/>
</svg>
