<svg width="25" height="17" viewBox="0 0 25 17" fill="none" xmlns="http://www.w3.org/2000/svg">
<path d="M23.9735 3.04167C23.7102 2.04167 22.8766 1.25 21.8675 1C19.9808 0.5 12.5219 0.5 12.5219 0.5C12.5219 0.5 5.0192 0.5 3.13254 1C2.1234 1.25 1.28976 2.04167 1.02651 3.04167C0.5 4.79167 0.5 8.54167 0.5 8.54167C0.5 8.54167 0.5 12.25 1.02651 14.0417C1.28976 15.0417 2.1234 15.7917 3.13254 16.0417C5.0192 16.5 12.5219 16.5 12.5219 16.5C12.5219 16.5 19.9808 16.5 21.8675 16.0417C22.8766 15.7917 23.7102 15.0417 23.9735 14.0417C24.5 12.25 24.5 8.54167 24.5 8.54167C24.5 8.54167 24.5 4.79167 23.9735 3.04167ZM10.0649 11.9167V5.16667L16.2952 8.54167L10.0649 11.9167Z" fill="#505050"/>
</svg>
