<svg xmlns="http://www.w3.org/2000/svg" width="52.96" height="40.304" viewBox="0 0 52.96 40.304">
  <g id="envelope" transform="translate(0 0)">
    <g id="Group_83" data-name="Group 83" transform="translate(0 0)">
      <path id="Path_5005" data-name="Path 5005" d="M46.5,57.75H6.476A6.482,6.482,0,0,0,0,64.226V91.577a6.482,6.482,0,0,0,6.476,6.476H46.484a6.482,6.482,0,0,0,6.476-6.476V64.237A6.475,6.475,0,0,0,46.5,57.75Zm3.518,33.827A3.522,3.522,0,0,1,46.5,95.095H6.476a3.522,3.522,0,0,1-3.518-3.518V64.237A3.522,3.522,0,0,1,6.476,60.72H46.484A3.522,3.522,0,0,1,50,64.237v27.34Z" transform="translate(0 -57.75)" fill="#0c3766"/>
      <path id="Path_5006" data-name="Path 5006" d="M83.043,123.109,96,111.494a1.482,1.482,0,0,0-1.983-2.2L76.151,125.323l-3.485-3.112c-.011-.011-.022-.022-.022-.033a2.192,2.192,0,0,0-.241-.208L58.223,109.28a1.482,1.482,0,0,0-1.972,2.214l13.106,11.714L56.306,135.426a1.485,1.485,0,0,0-.066,2.093,1.514,1.514,0,0,0,1.085.471,1.483,1.483,0,0,0,1.008-.395L71.581,125.2l3.594,3.211a1.476,1.476,0,0,0,1.972-.011l3.693-3.309,13.172,12.514a1.483,1.483,0,0,0,2.093-.055,1.485,1.485,0,0,0-.055-2.093Z" transform="translate(-49.643 -103.297)" fill="#0c3766"/>
    </g>
  </g>
</svg>
