<svg xmlns="http://www.w3.org/2000/svg" width="124.041" height="124.042" viewBox="0 0 124.041 124.042">
  <g id="Group_735" data-name="Group 735" transform="translate(-844.959 -18164.941)">
    <g id="Group_611" data-name="Group 611" transform="translate(844.959 18164.941)">
      <g id="Group_610" data-name="Group 610">
        <path id="Path_5263" data-name="Path 5263" d="M354.006,298.546H229.965V174.505H354.006ZM231.691,296.82H352.28V176.231H231.691Z" transform="translate(-229.965 -174.505)" fill="#fff"/>
      </g>
    </g>
    <g id="Group_658" data-name="Group 658" transform="translate(867.241 18256.783)">
      <g id="Group_657" data-name="Group 657">
        <rect id="Rectangle_62" data-name="Rectangle 62" width="100.896" height="18.389" fill="#fff"/>
      </g>
    </g>
    <g id="Group_659" data-name="Group 659" transform="translate(871.068 18245.885)">
      <path id="Path_5278" data-name="Path 5278" d="M243.3,204.582h-1.191v-1.191a.613.613,0,0,0-1.225,0v1.191H239.7a.613.613,0,0,0,0,1.225h1.188V207a.613.613,0,0,0,1.225,0v-1.188H243.3a.613.613,0,1,0,0-1.225Z" transform="translate(-239.085 -202.778)" fill="#7b9073"/>
    </g>
    <g id="Group_660" data-name="Group 660" transform="translate(884.674 18252.406)">
      <path id="Path_5279" data-name="Path 5279" d="M248.054,206.857h-1.191v-1.188a.613.613,0,1,0-1.225,0v1.188H244.45a.613.613,0,0,0,0,1.225h1.188v1.191a.613.613,0,0,0,1.225,0v-1.191h1.191a.613.613,0,0,0,0-1.225Z" transform="translate(-243.837 -205.056)" fill="#7b9073"/>
    </g>
    <g id="Group_661" data-name="Group 661" transform="translate(922.682 18246.543)">
      <path id="Path_5280" data-name="Path 5280" d="M261.333,204.812h-1.191v-1.191a.613.613,0,1,0-1.225,0v1.191h-1.191a.613.613,0,0,0,0,1.225h1.191v1.191a.613.613,0,1,0,1.225,0v-1.191h1.191a.613.613,0,0,0,0-1.225Z" transform="translate(-257.113 -203.008)" fill="#7b9073"/>
    </g>
    <g id="Group_662" data-name="Group 662" transform="translate(903.869 18249.328)">
      <path id="Path_5281" data-name="Path 5281" d="M254.762,205.782h-1.191v-1.188a.613.613,0,0,0-1.225,0v1.188h-1.191a.613.613,0,1,0,0,1.225h1.191V208.2a.613.613,0,0,0,1.225,0v-1.191h1.191a.613.613,0,0,0,0-1.225Z" transform="translate(-250.542 -203.981)" fill="#7b9073"/>
    </g>
    <g id="Group_663" data-name="Group 663" transform="translate(936 18253.781)">
      <path id="Path_5282" data-name="Path 5282" d="M265.982,207.34h-1.191v-1.191a.613.613,0,1,0-1.225,0v1.191h-1.188a.613.613,0,0,0,0,1.225h1.188v1.191a.613.613,0,1,0,1.225,0v-1.191h1.191a.613.613,0,0,0,0-1.225Z" transform="translate(-261.765 -205.536)" fill="#7b9073"/>
    </g>
    <g id="Group_664" data-name="Group 664" transform="translate(951.746 18246.543)">
      <path id="Path_5283" data-name="Path 5283" d="M271.482,204.812h-1.191v-1.191a.613.613,0,1,0-1.225,0v1.191h-1.188a.613.613,0,0,0,0,1.225h1.188v1.191a.613.613,0,1,0,1.225,0v-1.191h1.191a.613.613,0,0,0,0-1.225Z" transform="translate(-267.265 -203.008)" fill="#7b9073"/>
    </g>
    <g id="Group_719" data-name="Group 719" transform="translate(20636.18 17585.533) rotate(90)">
      <g id="Group_687" data-name="Group 687" transform="translate(657.448 19714.701)">
        <g id="Group_686" data-name="Group 686">
          <g id="Group_685" data-name="Group 685">
            <rect id="Rectangle_64" data-name="Rectangle 64" width="0.766" height="8.308" fill="#fff"/>
          </g>
        </g>
      </g>
      <g id="Group_690" data-name="Group 690" transform="translate(640.472 19709.982)">
        <g id="Group_689" data-name="Group 689">
          <g id="Group_688" data-name="Group 688">
            <path id="Path_5293" data-name="Path 5293" d="M48.161,189.919,43.242,185v14.993H28.252l4.918,4.918h14.99ZM33.488,204.145l-3.387-3.39H44.007V186.85l3.39,3.387v13.908Z" transform="translate(-28.252 -184.998)" fill="#fff"/>
          </g>
        </g>
      </g>
      <g id="Group_693" data-name="Group 693" transform="translate(651.444 19708.738)">
        <g id="Group_692" data-name="Group 692">
          <g id="Group_691" data-name="Group 691">
            <rect id="Rectangle_65" data-name="Rectangle 65" width="0.766" height="8.308" fill="#fff"/>
          </g>
        </g>
      </g>
      <g id="Group_696" data-name="Group 696" transform="translate(634.466 19704.02)">
        <g id="Group_695" data-name="Group 695">
          <g id="Group_694" data-name="Group 694">
            <path id="Path_5294" data-name="Path 5294" d="M46.066,187.836l-4.921-4.921v14.99H26.154l4.921,4.921h14.99ZM31.393,202.059,28,198.673H41.911V184.764l3.387,3.39v13.905Z" transform="translate(-26.154 -182.915)" fill="#fff"/>
          </g>
        </g>
      </g>
    </g>
  </g>
</svg>
