<svg xmlns="http://www.w3.org/2000/svg" width="28.246" height="49.765" viewBox="0 0 28.246 49.765">
  <path id="facebook" d="M17.947,49.765H9.978a2.417,2.417,0,0,1-2.414-2.414V29.375H2.914A2.417,2.417,0,0,1,.5,26.961v-7.7a2.417,2.417,0,0,1,2.414-2.414h4.65V12.988a13.133,13.133,0,0,1,3.473-9.409A12.508,12.508,0,0,1,20.258,0l6.078.01a2.417,2.417,0,0,1,2.41,2.414V9.575a2.416,2.416,0,0,1-2.413,2.414l-4.092,0c-1.248,0-1.566.25-1.634.327-.112.127-.245.487-.245,1.48v3.047h5.664a2.454,2.454,0,0,1,1.194.3,2.423,2.423,0,0,1,1.242,2.111l0,7.7a2.416,2.416,0,0,1-2.414,2.413H20.361V47.351a2.417,2.417,0,0,1-2.414,2.414Zm-7.466-2.917h6.963V28.069a1.614,1.614,0,0,1,1.612-1.612h6.486l0-6.7H19.055a1.613,1.613,0,0,1-1.611-1.612V13.8a4.969,4.969,0,0,1,.976-3.41,4.945,4.945,0,0,1,3.82-1.314l3.589,0V2.926l-5.573-.009c-6.029,0-9.775,3.859-9.775,10.071v5.163A1.614,1.614,0,0,1,8.87,19.762H3.418v6.7H8.87a1.613,1.613,0,0,1,1.611,1.612ZM26.33,2.927h0Zm0,0" transform="translate(-0.5 0)" fill="#0c3766"/>
</svg>
