<svg xmlns="http://www.w3.org/2000/svg" width="49.766" height="37.693" viewBox="0 0 49.766 37.693">
  <g id="youtube" transform="translate(0 0)">
    <path id="Path_5030" data-name="Path 5030" d="M204.929,112.789l-10.994-6.016a2.019,2.019,0,0,0-2.989,1.772v11.928a2.016,2.016,0,0,0,2.976,1.778l10.995-5.912a2.019,2.019,0,0,0,.013-3.55Zm-11.067,6.183v-8.915l8.217,4.5Zm0,0" transform="translate(-172.386 -96.169)" fill="#0c3766"/>
    <path id="Path_5031" data-name="Path 5031" d="M49.4,8.9l0-.023c-.042-.4-.462-3.963-2.194-5.776A8.1,8.1,0,0,0,41.839.583c-.09-.01-.173-.02-.247-.03L41.5.544C34.926.066,24.99,0,24.891,0h-.017C24.774,0,14.838.066,8.2.544L8.112.553,7.879.582A7.894,7.894,0,0,0,2.546,3.174C.9,4.967.42,8.453.371,8.845L.365,8.9C.35,9.063,0,13.031,0,17.015v3.724c0,3.984.351,7.952.366,8.119l0,.025c.042.394.461,3.892,2.185,5.7A8.264,8.264,0,0,0,8.1,37.066c.2.023.377.043.5.064l.115.016c3.8.361,15.709.54,16.214.547h.03c.1,0,10.035-.066,16.614-.544l.087-.009c.083-.011.177-.021.279-.032a7.711,7.711,0,0,0,5.286-2.529c1.65-1.793,2.127-5.28,2.176-5.671l.006-.051c.015-.167.366-4.135.366-8.118V17.015c0-3.984-.352-7.951-.366-8.118Zm-2.55,11.842c0,3.687-.322,7.484-.352,7.833a9.259,9.259,0,0,1-1.431,4.04,4.8,4.8,0,0,1-3.442,1.6c-.112.012-.216.023-.311.035-6.363.46-15.924.531-16.364.533-.494-.007-12.23-.187-15.913-.529-.189-.031-.393-.054-.607-.079A5.453,5.453,0,0,1,4.7,32.611l-.027-.029a8.4,8.4,0,0,1-1.4-4c-.023-.263-.353-4.105-.353-7.844V17.015c0-3.683.321-7.476.352-7.832A9.07,9.07,0,0,1,4.7,5.142,5.032,5.032,0,0,1,8.213,3.479l.238-.028c6.456-.462,16.085-.531,16.431-.534s9.972.071,16.37.534l.257.03A5.222,5.222,0,0,1,45.08,5.1l.012.013a8.536,8.536,0,0,1,1.4,4.058c.022.249.353,4.1.353,7.846Zm0,0" transform="translate(0.001 0)" fill="#0c3766"/>
  </g>
</svg>
