<svg xmlns="http://www.w3.org/2000/svg" xmlns:xlink="http://www.w3.org/1999/xlink" width="224.635" height="37" viewBox="0 0 224.635 37">
  <defs>
    <clipPath id="clip-path">
      <rect id="Rectangle_1488" data-name="Rectangle 1488" width="224.635" height="37" fill="#fff"/>
    </clipPath>
  </defs>
  <g id="Mask_Group_3" data-name="Mask Group 3" clip-path="url(#clip-path)">
    <g id="Group_1515" data-name="Group 1515" transform="translate(1.595 0.763)">
      <g id="Group_783" data-name="Group 783">
        <path id="Path_1085" data-name="Path 1085" d="M2.98,12.287a8.821,8.821,0,0,0,6.1,2.44c1.078,0,2.1-.369,2.1-1.107s-.795-1.107-2.668-1.447C5.392,11.606.624,10.869.624,6.13.624,2.923,3.292,0,8.485,0a12.487,12.487,0,0,1,8.031,2.639L13.451,6.7A9.422,9.422,0,0,0,8.173,4.824c-1.419,0-1.731.511-1.731.993,0,.738.766.993,2.781,1.334,3.122.539,7.747,1.447,7.747,5.817,0,4.172-3.093,6.584-8.173,6.584-4.03,0-6.783-1.192-8.8-3.008Z" fill="#003b68"/>
        <path id="Path_1086" data-name="Path 1086" d="M30.619,19.212l-.738-2.441H22.616l-.738,2.441H15.664L22.645.284h7.208l6.981,18.928ZM26.249,5.335,24.092,12h4.313Z" fill="#003b68"/>
        <path id="Path_1087" data-name="Path 1087" d="M49.433,19.212,42.452,9.052V19.212H36.719V.284h5.9l6.584,9.535V.284h5.732V19.212Z" fill="#003b68"/>
        <path id="Path_1088" data-name="Path 1088" d="M56.867,19.212V.284h8.457c5.959,0,10.386,3.405,10.386,9.45s-4.427,9.478-10.358,9.478ZM62.6,14.217h2.724a4.373,4.373,0,0,0,4.569-4.484c0-2.554-1.476-4.455-4.54-4.455H62.6Z" fill="#003b68"/>
        <path id="Path_1089" data-name="Path 1089" d="M76.618,19.212V.284h8.457c5.959,0,10.386,3.405,10.386,9.45S91.034,19.212,85.1,19.212Zm5.732-4.994h2.724a4.373,4.373,0,0,0,4.569-4.484c0-2.554-1.476-4.455-4.54-4.455H82.35Z" fill="#003b68"/>
        <path id="Path_1090" data-name="Path 1090" d="M96.368,19.212V.284h14.359V5.051H102.1V7.265h8.428v4.767H102.1v2.412h8.627v4.767Z" fill="#003b68"/>
        <path id="Path_1091" data-name="Path 1091" d="M112.146,19.212V.284h11.493c3.916,0,5.619,2.611,5.619,4.824a4.174,4.174,0,0,1-3.235,4.342,4.464,4.464,0,0,1,3.6,4.626c0,2.639-1.788,5.136-5.59,5.136Zm5.732-11.89H122.3A1.2,1.2,0,0,0,123.44,6.1,1.163,1.163,0,0,0,122.3,4.938h-4.427Zm0,7.236h4.6a1.252,1.252,0,0,0,1.334-1.277,1.291,1.291,0,0,0-1.334-1.305h-4.6Z" fill="#003b68"/>
        <path id="Path_1092" data-name="Path 1092" d="M130.789.284h5.817V11.237a3.278,3.278,0,0,0,6.555,0V.284h5.817V11.408c0,4.711-2.7,8.144-9.081,8.144s-9.109-3.434-9.109-8.116Z" fill="#003b68"/>
        <path id="Path_1093" data-name="Path 1093" d="M161.323,19.212l-2.611-6.073h-2.072v6.073h-5.732V.284h10.1c4.427,0,6.81,2.951,6.81,6.5a6.1,6.1,0,0,1-3.405,5.732l3.434,6.7Zm-1.192-14.16h-3.491v3.32h3.49A1.743,1.743,0,0,0,162,6.7a1.739,1.739,0,0,0-1.873-1.646" fill="#003b68"/>
        <path id="Path_1094" data-name="Path 1094" d="M179.427,19.212l-2.611-6.073h-2.072v6.073h-5.732V.284h10.1c4.427,0,6.811,2.951,6.811,6.5a6.1,6.1,0,0,1-3.405,5.732l3.434,6.7Zm-1.192-14.16h-3.491v3.32h3.49A1.743,1.743,0,0,0,180.108,6.7a1.739,1.739,0,0,0-1.873-1.646" fill="#003b68"/>
        <path id="Path_1095" data-name="Path 1095" d="M187.117,19.212V.284h14.359V5.051H192.85V7.265h8.428v4.767H192.85v2.412h8.627v4.767Z" fill="#003b68"/>
        <path id="Path_1096" data-name="Path 1096" d="M213.31,19.212,210.7,13.139h-2.072v6.073H202.9V.284H213c4.427,0,6.811,2.951,6.811,6.5a6.1,6.1,0,0,1-3.405,5.732l3.434,6.7Zm-1.192-14.16h-3.491v3.32h3.49A1.743,1.743,0,0,0,213.991,6.7a1.739,1.739,0,0,0-1.873-1.646" fill="#003b68"/>
        <rect id="Rectangle_1486" data-name="Rectangle 1486" width="220.704" height="2.768" transform="translate(0.772 22.454)" fill="#003b68"/>
      </g>
    </g>
  </g>
</svg>
