<svg xmlns="http://www.w3.org/2000/svg" width="124.039" height="124.042" viewBox="0 0 124.039 124.042">
  <g id="Group_720" data-name="Group 720" transform="translate(-135.649 -18395.941)">
    <g id="Group_434" data-name="Group 434" transform="translate(135.649 18395.941)">
      <path id="Path_5195" data-name="Path 5195" d="M138.315,298.546H14.276V174.505H138.315ZM16,296.82H136.591V176.231H16Z" transform="translate(-14.276 -174.505)" fill="#fff"/>
    </g>
    <g id="Group_437" data-name="Group 437" transform="translate(157.931 18487.783)">
      <g id="Group_436" data-name="Group 436">
        <rect id="Rectangle_59" data-name="Rectangle 59" width="100.896" height="18.389" fill="#fff"/>
      </g>
    </g>
    <g id="Group_484" data-name="Group 484" transform="translate(151.816 18480.117)">
      <g id="Group_483" data-name="Group 483">
        <path id="Path_5210" data-name="Path 5210" d="M26.906,222.2a.866.866,0,0,1-.853-.727c-.209-1.311-1.059-1.807-2.548-2.571a9.592,9.592,0,0,1-3.012-2.107,2.7,2.7,0,0,1-.47-2.442,2.411,2.411,0,0,1,1.32-1.749c.226-.086.673-.867.349-2.121a4.776,4.776,0,0,1,1.912-5.58,4.932,4.932,0,0,1,4.28-.8,3.757,3.757,0,0,1,2.388,2.454c.321.945.653,1.36,1.744,1.28a4.2,4.2,0,0,1,4.584,3.79c.106.93,2.227,1.663,3.63,1.864a.86.86,0,0,1,.73.973.85.85,0,0,1-.973.733c-.49-.069-4.8-.75-5.1-3.375a2.5,2.5,0,0,0-2.754-2.262,3.186,3.186,0,0,1-3.493-2.445,2.024,2.024,0,0,0-1.291-1.374,3.256,3.256,0,0,0-2.754.578,3.086,3.086,0,0,0-1.231,3.733c.49,1.881-.112,3.67-1.4,4.166a1.294,1.294,0,0,0-.3.716.967.967,0,0,0,.12.724,8.131,8.131,0,0,0,2.5,1.712c1.46.747,3.112,1.595,3.467,3.836a.861.861,0,0,1-.716.988A1.1,1.1,0,0,1,26.906,222.2Z" transform="translate(-19.923 -203.907)" fill="#fff"/>
      </g>
    </g>
    <g id="Group_486" data-name="Group 486" transform="translate(175.636 18484.631)">
      <g id="Group_485" data-name="Group 485">
        <path id="Path_5211" data-name="Path 5211" d="M34.3,213.649c-3.4,0-6.055-1.792-6.055-4.082s2.66-4.083,6.055-4.083,6.055,1.8,6.055,4.083S37.693,213.649,34.3,213.649Zm0-6.439c-2.551,0-4.329,1.242-4.329,2.356s1.778,2.356,4.329,2.356,4.329-1.243,4.329-2.356S36.849,207.21,34.3,207.21Z" transform="translate(-28.243 -205.484)" fill="#fff"/>
      </g>
    </g>
    <g id="Group_488" data-name="Group 488" transform="translate(200.732 18482.502)">
      <g id="Group_487" data-name="Group 487">
        <path id="Path_5212" data-name="Path 5212" d="M45.855,215.588c-4.961,0-8.846-2.382-8.846-5.425s3.885-5.422,8.846-5.422,8.844,2.382,8.844,5.422S50.814,215.588,45.855,215.588Zm0-9.121c-3.862,0-7.12,1.692-7.12,3.7s3.258,3.7,7.12,3.7,7.117-1.695,7.117-3.7S49.712,206.466,45.855,206.466Z" transform="translate(-37.009 -204.74)" fill="#fff"/>
      </g>
    </g>
    <g id="Group_715" data-name="Group 715" transform="translate(-472.635 -1253)">
      <g id="Group_687" data-name="Group 687" transform="translate(657.448 19714.701)">
        <g id="Group_686" data-name="Group 686">
          <g id="Group_685" data-name="Group 685">
            <rect id="Rectangle_64" data-name="Rectangle 64" width="0.766" height="8.308" fill="#fff"/>
          </g>
        </g>
      </g>
      <g id="Group_690" data-name="Group 690" transform="translate(640.472 19709.982)">
        <g id="Group_689" data-name="Group 689">
          <g id="Group_688" data-name="Group 688">
            <path id="Path_5293" data-name="Path 5293" d="M48.161,189.919,43.242,185v14.993H28.252l4.918,4.918h14.99ZM33.488,204.145l-3.387-3.39H44.007V186.85l3.39,3.387v13.908Z" transform="translate(-28.252 -184.998)" fill="#fff"/>
          </g>
        </g>
      </g>
      <g id="Group_693" data-name="Group 693" transform="translate(651.444 19708.738)">
        <g id="Group_692" data-name="Group 692">
          <g id="Group_691" data-name="Group 691">
            <rect id="Rectangle_65" data-name="Rectangle 65" width="0.766" height="8.308" fill="#fff"/>
          </g>
        </g>
      </g>
      <g id="Group_696" data-name="Group 696" transform="translate(634.466 19704.02)">
        <g id="Group_695" data-name="Group 695">
          <g id="Group_694" data-name="Group 694">
            <path id="Path_5294" data-name="Path 5294" d="M46.066,187.836l-4.921-4.921v14.99H26.154l4.921,4.921h14.99ZM31.393,202.059,28,198.673H41.911V184.764l3.387,3.39v13.905Z" transform="translate(-26.154 -182.915)" fill="#fff"/>
          </g>
        </g>
      </g>
    </g>
  </g>
</svg>
