<svg xmlns="http://www.w3.org/2000/svg" width="124.042" height="124.042" viewBox="0 0 124.042 124.042">
  <g id="Group_732" data-name="Group 732" transform="translate(-381.834 -18164.941)">
    <g id="Group_555" data-name="Group 555" transform="translate(381.834 18164.941)">
      <g id="Group_554" data-name="Group 554">
        <path id="Path_5242" data-name="Path 5242" d="M192.239,298.546H68.2V174.505H192.239ZM69.924,296.82H190.513V176.231H69.924Z" transform="translate(-68.198 -174.505)" fill="#fff"/>
      </g>
    </g>
    <g id="Group_601" data-name="Group 601" transform="translate(402.167 18237.768)">
      <path id="Path_5257" data-name="Path 5257" d="M77.353,220.084,75.3,199.943l6.415,12.572,2.822-5.26,5,13.855" transform="translate(-75.3 -199.943)" fill="#7b9073"/>
    </g>
    <g id="Group_603" data-name="Group 603" transform="translate(404.116 18256.783)">
      <g id="Group_602" data-name="Group 602">
        <rect id="Rectangle_61" data-name="Rectangle 61" width="100.896" height="18.389" fill="#fff"/>
      </g>
    </g>
    <g id="Group_716" data-name="Group 716" transform="translate(20152.557 17585.533) rotate(90)">
      <g id="Group_687" data-name="Group 687" transform="translate(657.448 19714.701)">
        <g id="Group_686" data-name="Group 686">
          <g id="Group_685" data-name="Group 685">
            <rect id="Rectangle_64" data-name="Rectangle 64" width="0.766" height="8.308" fill="#fff"/>
          </g>
        </g>
      </g>
      <g id="Group_690" data-name="Group 690" transform="translate(640.472 19709.982)">
        <g id="Group_689" data-name="Group 689">
          <g id="Group_688" data-name="Group 688">
            <path id="Path_5293" data-name="Path 5293" d="M48.161,189.919,43.242,185v14.993H28.252l4.918,4.918h14.99ZM33.488,204.145l-3.387-3.39H44.007V186.85l3.39,3.387v13.908Z" transform="translate(-28.252 -184.998)" fill="#fff"/>
          </g>
        </g>
      </g>
      <g id="Group_693" data-name="Group 693" transform="translate(651.444 19708.738)">
        <g id="Group_692" data-name="Group 692">
          <g id="Group_691" data-name="Group 691">
            <rect id="Rectangle_65" data-name="Rectangle 65" width="0.766" height="8.308" fill="#fff"/>
          </g>
        </g>
      </g>
      <g id="Group_696" data-name="Group 696" transform="translate(634.466 19704.02)">
        <g id="Group_695" data-name="Group 695">
          <g id="Group_694" data-name="Group 694">
            <path id="Path_5294" data-name="Path 5294" d="M46.066,187.836l-4.921-4.921v14.99H26.154l4.921,4.921h14.99ZM31.393,202.059,28,198.673H41.911V184.764l3.387,3.39v13.905Z" transform="translate(-26.154 -182.915)" fill="#fff"/>
          </g>
        </g>
      </g>
    </g>
  </g>
</svg>
