<svg xmlns="http://www.w3.org/2000/svg" width="49.765" height="49.765" viewBox="0 0 49.765 49.765">
  <g id="instagram" transform="translate(0 0)">
    <path id="Path_5022" data-name="Path 5022" d="M36.293,0H13.47A13.486,13.486,0,0,0,0,13.471V36.295A13.486,13.486,0,0,0,13.47,49.765H36.294A13.486,13.486,0,0,0,49.764,36.295V13.471A13.486,13.486,0,0,0,36.293,0ZM46.847,36.295A10.565,10.565,0,0,1,36.293,46.848H13.47A10.565,10.565,0,0,1,2.916,36.295V13.471A10.565,10.565,0,0,1,13.47,2.917H36.294A10.565,10.565,0,0,1,46.847,13.471Zm0,0" transform="translate(0.001 0)" fill="#0c3766"/>
    <path id="Path_5023" data-name="Path 5023" d="M129.611,116a13.607,13.607,0,1,0,13.607,13.607A13.623,13.623,0,0,0,129.611,116Zm0,24.3a10.69,10.69,0,1,1,10.69-10.69A10.7,10.7,0,0,1,129.611,140.3Zm0,0" transform="translate(-104.729 -104.729)" fill="#0c3766"/>
    <path id="Path_5024" data-name="Path 5024" d="M362,66.285a4.021,4.021,0,1,0,4.021,4.021A4.025,4.025,0,0,0,362,66.285Zm0,5.124a1.1,1.1,0,1,1,1.1-1.1A1.1,1.1,0,0,1,362,71.409Zm0,0" transform="translate(-323.182 -59.842)" fill="#0c3766"/>
  </g>
</svg>
