<svg xmlns="http://www.w3.org/2000/svg" width="57.885" height="26.126" viewBox="0 0 57.885 26.126">
  <path id="Path_5010" data-name="Path 5010" d="M-390.307,60.16a1.492,1.492,0,0,0-2.118,0l-9.009,9.009V17.906a1.5,1.5,0,0,0-1.506-1.506,1.5,1.5,0,0,0-1.506,1.506V69.169l-9-9.009a1.492,1.492,0,0,0-2.118,0,1.492,1.492,0,0,0,0,2.118l11.567,11.567a1.491,1.491,0,0,0,1.065.441,1.491,1.491,0,0,0,1.065-.441L-390.3,62.277A1.527,1.527,0,0,0-390.307,60.16Z" transform="translate(-16.4 -389.874) rotate(-90)" fill="#0c3766"/>
</svg>
