<svg xmlns="http://www.w3.org/2000/svg" width="22.301" height="12.673" viewBox="0 0 22.301 12.673">
  <path id="Path_5009" data-name="Path 5009" d="M919.074,469.713a1.525,1.525,0,0,0-2.144,0l-1.737,1.74-2.878,2.883-.657.657-1.766,1.767-1.517,1.517-2.14-2.138h0l-.272-.272-.317-.317-4.971-4.972-.865-.865a1.516,1.516,0,1,0-2.145,2.145l8.57,8.56,1.075,1.073a1.527,1.527,0,0,0,1.067.449,1.478,1.478,0,0,0,1.066-.449l1.083-1.083,8.55-8.55A1.511,1.511,0,0,0,919.074,469.713Z" transform="translate(-897.219 -469.267)" fill="#0c3766"/>
</svg>
