<svg xmlns="http://www.w3.org/2000/svg" width="13.8" height="13.8" viewBox="0 0 13.8 13.8">
  <g id="world-2-svgrepo-com" transform="translate(-2.1 -1.618)">
    <path id="Path_5301" data-name="Path 5301" d="M16.892,6l-.964.723a1.314,1.314,0,0,1-.788.263H12.934a1.036,1.036,0,0,0-.927.573h0a1.036,1.036,0,0,0,.271,1.266L13.591,9.9a3.942,3.942,0,0,1,1.422,3.486L15,13.5a5.257,5.257,0,0,1-.344,1.372l-.392.98" transform="translate(-3.224 -1.238)" fill="none" stroke="#0c3766" stroke-width="0.8"/>
    <path id="Path_5302" data-name="Path 5302" d="M2.5,10.305l2.127-.355a1.314,1.314,0,0,1,1.512,1.512l-.088.53a2.192,2.192,0,0,0,1.182,2.321h0a1.644,1.644,0,0,1,.86,1.869l-.337,1.348" transform="translate(0 -2.587)" fill="none" stroke="#0c3766" stroke-width="0.8"/>
    <circle id="Ellipse_1" data-name="Ellipse 1" cx="6.5" cy="6.5" r="6.5" transform="translate(2.5 2.018)" fill="none" stroke="#0c3766" stroke-width="0.8"/>
  </g>
</svg>
