<svg xmlns="http://www.w3.org/2000/svg" width="44.415" height="48.855" viewBox="0 0 44.415 48.855">
  <g id="xing" transform="translate(-27.811)">
    <g id="Group_182" data-name="Group 182" transform="translate(27.811)">
      <g id="group-38svg" transform="translate(0)">
        <path id="path-1_31_" d="M38.395,95.919H29.942A2,2,0,0,1,28.1,95a1.882,1.882,0,0,1,0-1.991l7.889-13.73-3.728-7.668a2.5,2.5,0,0,1,.107-2.247c.313-.506.845-1.365,1.806-1.365h8.453c.764,0,1.408.523,1.914,1.554L48.77,78.53a1.945,1.945,0,0,1-.075,1.906L40.241,95.022A1.982,1.982,0,0,1,38.395,95.919Zm-7.953-2.326h7.939L46.608,79.4l-4.168-8.834a2.157,2.157,0,0,0-.134-.236h-7.8c-.053.077-.106.163-.14.218h0a.4.4,0,0,0,0,.105l3.976,8.166a1.167,1.167,0,0,1-.037,1.089Z" transform="translate(-27.811 -62.573)" fill="#0c3766"/>
        <path id="path-2_21_" d="M260.762,48.855h-8.453a2,2,0,0,1-1.841-.914L239.9,29.848a2.218,2.218,0,0,1-.019-2.157L254.677,1.256A2.226,2.226,0,0,1,256.535,0h8.455a2.222,2.222,0,0,1,1.841,1.226,2.271,2.271,0,0,1,.022,2.177l-14.2,25.355,9.959,17.149a1.934,1.934,0,0,1-1.845,2.95Zm-8.426-2.326h7.945L250.3,29.352A1.163,1.163,0,0,1,250.3,28.2l14.487-25.86a.071.071,0,0,0-.008-.012h-8.025a.726.726,0,0,0-.047.072L241.953,28.752Z" transform="translate(-222.704)" fill="#0c3766"/>
      </g>
    </g>
  </g>
</svg>
